<?xml version="1.0" encoding="utf-8"?>
<!-- Generator: Adobe Illustrator 21.1.0, SVG Export Plug-In . SVG Version: 6.00 Build 0)  -->
<svg version="1.1"
	 id="svg2" inkscape:output_extension="org.inkscape.output.svg.inkscape" inkscape:version="0.46+pre4" sodipodi:docname="World_map_blank_without_borders.svg" sodipodi:version="0.32" xmlns:cc="http://creativecommons.org/ns#" xmlns:dc="http://purl.org/dc/elements/1.1/" xmlns:inkscape="http://www.inkscape.org/namespaces/inkscape" xmlns:rdf="http://www.w3.org/1999/02/22-rdf-syntax-ns#" xmlns:sodipodi="http://sodipodi.sourceforge.net/DTD/sodipodi-0.dtd" xmlns:svg="http://www.w3.org/2000/svg"
	 xmlns="http://www.w3.org/2000/svg" xmlns:xlink="http://www.w3.org/1999/xlink" x="0px" y="0px" viewBox="0 0 1539.8 1333.4"
	 style="enable-background:new 0 0 1539.8 1333.4;" xml:space="preserve">
<style type="text/css">
	.st0{fill:url(#SVGID_1_);}
	.st1{fill:url(#SVGID_2_);}
</style>
<defs>
	
	
		<inkscape:perspective  id="perspective10" inkscape:persp3d-origin="372.04724 : 350.78739 : 1" inkscape:vp_x="0 : 526.18109 : 1" inkscape:vp_y="0 : 1000 : 0" inkscape:vp_z="744.09448 : 526.18109 : 1" sodipodi:type="inkscape:persp3d">
		</inkscape:perspective>
	
		<inkscape:perspective  id="perspective2458" inkscape:persp3d-origin="380 : 120 : 1" inkscape:vp_x="0 : 180 : 1" inkscape:vp_y="0 : 1000 : 0" inkscape:vp_z="760 : 180 : 1" sodipodi:type="inkscape:persp3d">
		</inkscape:perspective>
</defs>
<sodipodi:namedview  bordercolor="#666666" borderopacity="1.0" id="base" inkscape:current-layer="layer1" inkscape:cx="1267.4286" inkscape:cy="885.96512" inkscape:document-units="px" inkscape:guide-bbox="true" inkscape:pageopacity="0.0" inkscape:pageshadow="2" inkscape:window-height="712" inkscape:window-width="1280" inkscape:window-x="-4" inkscape:window-y="-4" inkscape:zoom="0.0875" pagecolor="#ffffff" showgrid="false" showguides="true">
	<sodipodi:guide  id="guide5732" orientation="0,1" position="-3095.1074,2723.3713"></sodipodi:guide>
</sodipodi:namedview>
<linearGradient id="SVGID_1_" gradientUnits="userSpaceOnUse" x1="33.3526" y1="-44.545" x2="1521.246" y2="1443.3484">
	<stop  offset="0" style="stop-color:#4891DC"/>
	<stop  offset="0" style="stop-color:#4795D5"/>
	<stop  offset="0.5857" style="stop-color:#43B19D"/>
	<stop  offset="0.9987" style="stop-color:#36FF00"/>
</linearGradient>
<path class="st0" d="M732.6,403.3l2.3,1.1l-0.6,0.4l-2.1-0.9l-1.5-1.8L732.6,403.3z M601.5-6.9L600-5.3l-1.2,2.3l-1.5,1.8l-1.2,2
	l-1.4,2l-1.9,1.1L590.7,5l-1.9,1.3l-1,2.2l-1.9,1.3l-2.1,0.9l-2.3,1.1l-1.7,1.3l-0.8,2.7l-1.5,1.8l-1.7,1.6l-1.9,1.3l-2.3,0.7
	l-2.3,0.9l-1.7,1.3l-1.5,1.8l-1.5,1.8l-1.7,1.3l-2.1,1.1l-1.9,1.3l-2.5,0.7H553l-2.1,0.9l-3.1,0.2l-2.5,0.4l-2.7,0.2l-2.5,0.7
	l2.1,1.1l2.3,0.7l2.3,0.9l2.7,0.2l2.9,0.2l2.5-0.7l2.3-0.7l2.7-0.4l2.5-0.7l2.3-0.7l2.7-0.7L569,32l1.7-1.3l1-2.5l0.6-2.9l2.1-0.9
	l2.5,0.4l2.3-0.7l1.7-1.6l2.1-1.1l2.3-0.9l2.1-0.9h3.1l2.1-1.1l1.7-1.6l2.1-1.1l1-2.2l1.9-1.3l2.1-1.1l2.5-0.4l1.4-2l-1.4-1.8h-3.1
	l1.4-2l1.7-1.6l1.7,1.3l1.5,1.8l0.6-2.7l1.5-1.6l1.7-1.6l0.8-2.7l-0.6-2.7L612-8l1.5-1.6l0.6-1.6h-10.1l-1,2.2L601.5-6.9z
	 M979.6,878.9l-1.9-1.1h-0.4l1.9,1.3L979.6,878.9z M400.4,57.7l2.1,1.1l2.7-0.5l1.9-1.3l1.4-1.8l2.1-1.1l-1.9-1.1l-1.5-1.6l-0.8-2.7
	h-0.2l-1.7,1.6l-2.5,0.4l-2.3,0.9l-1.5,1.6l1,2.5L400.4,57.7z M466.8,275.5l-1.4-1.8l-0.8,0.9l0.8,2.7L466.8,275.5z M534.2-7.3
	l-1,2.2l-1.4,2l-1,2.5l1.7,1.8L534,3l-2.1,1.1h-2.9l2.7,0.4l2.7,0.5l1,2.5l0.8,2.5l-0.2,3.4l0.8-2.7l-0.2-3.4l2.7-0.2l-2.3-0.9
	l-1.5-1.8l-1-2.2l-1.5-1.6l-1.4-2l1.4-1.8l2.1-1.1l1.2,2.3l-0.8-2.5l-0.8-2.7l-1.2-2l-0.4-1.8h-0.6l0.4,1.8L534.2-7.3z M708.6,78.6
	l1.2-2.2l1.7-1.3l1.7-1.6l2.3-0.9l1.7-1.3l-2.7-0.5l-1.4-1.8l-0.2,0.2v-1.3l-1.7,1.3l-1.5,1.8l-1.5,1.8l-1.9,0.9l-0.6,2.9l0.6,2.7
	L708.6,78.6z M499.7,48.4l1-2.2l1.7-1.3l0.6-2.9l0.8-2.7l-1.4-2l-1.4-1.8l-1.5,1.3V39l-2.1,1.1l0.6,2.9l-0.8,2.7v3.4l-0.6,2.9
	l2.1-0.9L499.7,48.4z M551.8,29.8l-1.5-1.8l-1.5-1.6h-0.2l-0.4,0.7l1.7,1.4L551.8,29.8z M224.2,163l-2.5,0.5H219l-2.5,0.7h-2.9
	l-2.7,0.5l-2.5,0.4l-2.5,0.4l-2.3,1.1l-2.7,0.2l-1,2.2l2.9,0.2l2.3,0.7l2.3,0.9l2.5,0.7l2.7-0.2h3.1l2.1-0.9l1.5-1.6l1.7-1.6
	l1.7-1.6l2.3-0.7l-2.5-0.2L224.2,163z M388.8,316l-0.8,2.5l1.4,0.5L388.8,316z M168.3,124.9l1.5,1.8l1.9,1.1l0.6,2.9l1.5-1.8
	l-0.4-3.2l-0.4-2.9l2.1-1.1l0.6-2.7l0.4-3.2h2.9l2.1-1.1l1.2-2.2l1.2-2l2.9-0.5l2.5-0.4l1.4-2l1.5,1.6l2.7-0.4l2.9-0.4l2.5-0.5
	l2.5,0.7h3.1l2.1,0.9l2.9,0.2l2.7-0.5l2.3,0.7l2.1,0.9l2.7-0.2l1.9,1.1l2.5-0.7l2.3,1.1l1.9-1.3l2.9,0.2l2.1-1.1l1-2.2l1.4-2
	l-2.9-0.2l-2.3,0.7l-2.9-0.2l-2.5,0.7l-1.5,1.8l-2.3-0.7l-2.5-0.9l-2.7,0.2l-2.9,0.2l-2.3,1.1l-1.9-1.4l-2.5,0.7l-2.1-0.9h-2.9
	l-1.5-1.3l-2.7-0.7l-2.7-0.2l-2.7,0.5l-2.5,0.7l-2.9-0.2l-2.1-0.7l-2.7,0.5l-2.5,0.4l-1.4,2l-1.9,1.3l-1.9,1.1h-1.5l-0.4,2.9
	l-2.5,0.7l-2.3,0.9l-0.4,3.2l-1,2.2l-1.5,1.8l2.1,1.3L168.3,124.9z M287.5,86.7l2.7,0.5l2.3,0.7l1.9,1.6l2.3,0.7l1.7,1.4l1.9-1.4
	l1.2-2l-2.1-1.1l-2.7-0.5l-1.9-1.1l-2.1-0.9l-1.2-2l2.1-1.1l-2.9-0.2l-0.8-2.7l-0.2-3.2l1.7-1.3l2.3-0.9l2.1-0.9l2.5-0.4l1.9-1.6
	l-2.3-0.7l-1.9-1.3l-1.7-1.6l-2.1-0.9l1.5-1.8l1.9-1.3l-2.1,1.1l-2.1,0.9h-3.1l2.1,1.1l2.1,1.1l2.1,0.9l1.9,1.4l1.2,2l-2.1,0.9
	l-2.5,0.5l-2.1,1.1l-2.1,1.1v3.4l-0.4,3.1l2.1,0.9l-1.7,1.6l-2.9,0.2l-2.5,0.4l1.9,1.3L287.5,86.7z M491.4,249.6l2.1,1.1l2.5,0.5
	l2.9-0.2l2.1,1.1l2.1-1.1l-0.4-3.1l-2.1-0.9l-1.4-2l-1.4-1.6h-0.2l-1.9-0.2l-2.7-0.2L491,244l1,2.5l-1.9,1.1L491.4,249.6z
	 M279.2-8.9l-2.3,0.7l-1.7,1.6l-1.9,1.4l-2.1,1.1l-2.5,0.4l-0.8,1.1l2.1-0.9l2.5-0.7l2.1-1.1l1.9-1.1l2.5-0.7l1.7-1.3l2.7-0.7
	l1.9-1.1l-2.1-0.9l-2.3,0.7L279.2-8.9z M380.9-9.2l1.7,1.3l2.1,1.1l1,2.2l1.4,2l1.4,1.8l-0.8,2.7l0.8,2.5l0.6,0.2l0.6-2.9h2.9
	l-2.7-0.2l-0.4-3.2L388-3.3l2.5-0.7L388-4.7l-0.8,0.5l-0.8-1.4l-1.7-1.6l-2.1-1.1l-0.2-2.9h-0.7l-0.3,1.6L380.9-9.2z M719.4,301.3
	l-0.8-1.1l-2.5,0.5l-1,2.5l1.5-1.6L719.4,301.3z M524.7,763.3l-0.2,1.1h0.2V763.3z M265.1-0.6l-2.3,0.7l-1.2,2h1l1.4-1.8l2.3-0.9
	l1.5-2L267-1.9L265.1-0.6z M733.4,302.5l-0.6,2.9l-1.5,1.1l1.9,0.7l1.4-2l-0.8-2.7l-1.5-1.8l-1.4,1.8l-2.7,0.2l2.7,0.2L733.4,302.5z
	 M720,302l-0.4-0.5l0.8,2.2l-2.1-0.7l-1.4,1.6l1-0.4h2.9l2.3-0.7l1-2.5l2.7-0.4l0.6-2.9l-1.9-1.1l-2.3-0.9l-1,2.5l-2.5,0.7l1.4,1.8
	l2.1,1.1l-1.5,1.8L720,302z M742.5,332.2l2.1,1.1l2.3-0.7l1.4-2l-2.3,0.9l0.6-2.9l-0.4-2.9l-2.3-0.7l-1.9,1.3l-1.2,2l0.4,1.8
	L742.5,332.2z M2.4,151.1l2.5-0.7l2.9,0.2l2.3-0.9l1.4-2l-1.9-1.1l-2.1-1.1l1.9-1.4l1.4-2l0.8-2.5l1,2.2l0.8-2.7l-1.4-1.8l1.4-2
	l2.7-0.2l0.6-0.7l2.1-0.9l1.7-1.6l2.1-1.1l-2.5-0.7l-1.4-2l-1.4-1.8l-1.7-1.4l-1.5-1.6l-0.8-2.7l-2.5,0.7l0.2-3.2l-0.4-3.1l2.5-0.7
	l1.5-1.8l1.2-2.2l1.7-1.3l1.2-2.2l-0.6-2.9l-1.9,1.1l-1.7,1.6l-1,2.2l-2.7,0.4l-2.1-1.3l1.4-2l-2.3-0.9H4.7l1.9,1.3l-2.3,0.9
	l-1.7-1.6l-1.9,0.9v-0.2L0,106.7v45.9h0.6L2.4,151.1z M891.3,134.4l2.1,1.1l2.1,0.9l2.1-1.1l0.8-2.5l1.7-1.8l0.2-2.9l-1.7-1.6
	l-2.5-0.7h-3.1l-2.1,0.9l-0.4,3.2l1.4,1.8L891.3,134.4z M770.2,597.2V597 M718.1,426.7h0.2 M800.4,231.6h0.2 M862.9,291.4h0.2
	 M906.6,255.7v-0.2 M458.9,748.9l-0.2,0.2 M1143.6,97.5v-0.2 M408,581.9v-0.2 M430,549.1v0.2 M433.7,696.4h-0.2 M1186.2,880.7
	l-1.5-1.8 M1204.8,899.6l-0.4,3.2 M1223.7,1564.3l-0.6,2.7 M621.7,476.6l1.9-1.3 M579.7,478.7l1.9,1.1 M500.7,675.3h0.2
	 M494.5,637.7v-0.2 M588.6,474.6v-0.2 M1330.2,643.3l0.4,0.9 M1330.4,982.2l-0.8,2.7 M1320.9,945.7l2.3,0.7 M1470.9,1493.6l-0.2,0.2
	 M1383.3,677.3l0.6-0.7 M1380.9,677.1l2.1,1.1 M1475.2,901.7l0.2-1.1 M1345.1,712.7l1-0.7 M1063.8,843.8l-0.2,3.2 M472.2,606.9v-0.2
	 M468.4,579h0.2 M467.4,594.7v-0.2 M467,574.5v-0.2 M473.4,647.8h-0.2 M472.4,617v-0.2 M474.7,620.4v0.2 M541.7,767.3l-0.2-0.2
	 M780.6,591.2l-1.4-1.8h-0.2l-0.6,0.7l1.4,1.8l1.5,1.8l1.9,1.3l-1.4-2.2L780.6,591.2z M498,700.1h-1.5l0.6,2.7L498,700.1z
	 M492.4,685.4l-0.4,0.4l-2.1,0.9l1.7,1.3L492.4,685.4z M474.5,663.2l-1.2-2l-0.6,2.2l1,2.5L474.5,663.2z M515.2,753.2l1-2.5V750
	l-1.5-1.8l-2.3,0.5l-0.6,2.9l1.2,2.2L515.2,753.2z M475.1,607.1l1.2-1.3l-1.7-1.3L475.1,607.1z M473.2,600.4l0.8,0.2l1.2-2.2
	l-2.1-1.1L473.2,600.4z M474.4,611.4l1.7-0.5l-1.2-2.2L474.4,611.4z M524.9,757.7l-0.6-0.9l-2.3-0.7l-2.1,1.1l2.3,0.7L524.9,757.7z
	 M551.2,766.4l0.8-2.7v-0.4l-1.4-2l-2.7,0.4l-1,2.5l2.3,0.9L551.2,766.4z M544.4,764.4l1.2-2.2l-1.5-0.7l-1.5,1.6L544.4,764.4z
	 M547,766.7v-0.2l-2.1-1.1L547,766.7z M550.2,775.9l1.7,1.6l-1.4-1.8L550.2,775.9z M543.5,758.8l-2.7-0.7l-1.5,1.6l2.7,0.7
	L543.5,758.8z M524.7,764.4h-0.2l-0.4,1.8l1.9,1.1h2.9l2.7-0.2l-0.4-0.9l-1.7-1.3l-2.7-0.4l-2.1-1.1V764.4z M524.9,761.2l-0.6-1.1
	l-1.7-1.6l-0.8,2.2l0.4,2.9l2.3,0.7l0.2-1.1L524.9,761.2z M473,591.6l-0.6-2.7l0.4,2.9L473,591.6z M530.9,765.5l2.5,0.7l-1.4-2
	l-1.7-1.6h-2.9l1.5,1.6L530.9,765.5z M536.5,767.1l-1-0.2l1.9,1.1L536.5,767.1z M560.7,858.9l2.1,1.1l0.4,2l1.7,1.3l1-2.2l0.4-3.2
	l0.2-3.2l0.2-3.4l0.2-3.4l0.2-3.2l-0.4-3.1l-0.4-3.2l0.8-2.7l0.6-2.7l-1.5-1.6l0.8-2.9l1-2l1.5-2l-0.6-2.9l-2.1-0.9l-0.8-2.5
	l-1.7-1.6l-0.4-3.1l-2.3-0.7l-2.5-0.7h-2.9l-2.5,0.5l-0.6,2.7l-2.1,1.1l1.7-1.3l-1-2.5l1.9-1.3l1-2.2l-1.5-1.8l-1.7-1.3l-1-2.5
	l-1-2.5v-3.4l-0.6-2.9l-2.3-0.7l-2.3-0.9h-2.9l-1.9-1.3l-1.7-1.6l-1.7-1.6l0.8-2.7l1.7-1.6l-2.3-0.7l1.2-2l-2.5,0.7v-0.2l0.8-0.2
	l1.9-1.3l1.9-1.3l1.9-1.1l-0.6-2.9l-1.7-1.3l-1.4-1.8l-2.1-1.1l-1.9,1.6l-1.9,1.3l-1.9,1.1l-2.7,0.2l2.1-1.1l1.9-1.1l1.2-2.2l-1.5-2
	l-2.3-0.7h-2.9l-1.7-1.6l-1.5-1.8l-0.6-2.5l-0.8-2.9l-1.7-1.3l-1.5-1.8l-1.7-1.3l-2.9-0.2l-1.5-1.6l-0.6-2.9l-1.5-1.8l-1.7-1.6
	l-1.9-1.1l-1.4,1.8l1.2,2.2l0.6,2.7l-0.8-1.8l-1.5-1.8l-2.1-0.9l-1.5-1.6l-1.2-2.2l-1-2.5l-2.5-0.4l-1.2-2.2l-0.6-2.9l-1.5-1.6
	l-1.5-1.8l-2.1-1.1l-1.5-1.6l-1.5-1.6l-1.9-1.4l-1.9-1.1l-2.1-1.1l-1.2-2.2l-1.7-1.3l-2.1-1.1l-1.7-1.6l0.6-2.7l-1.4-1.8l-2.1-1.1
	l-0.4-2.9l-1.4-2l-1.7-1.6l-1.5-1.8l-1.9-0.9l-2.3,0.9l-1.9-1.3l-2.7-0.2l-2.5,0.7H450l-2.5-0.7l-2.3-0.7l-1.5-1.6l-1.5-1.8
	l-2.1-1.1l-2.7-0.2l-2.1,0.9v0.2l0.2,2.2l0.4,2.9l0.8,2.5l1,2.5l1.2,2.2l1.5,1.6l1.7,1.8l1.4,1.8l1.5,1.8l1.9,1.1l1.4,1.8l1.4,2
	l1.4,1.8h3.1l1.7,1.4l1.5,1.8l1.2,2.5l1.4,1.8l1,2.2l1.4,2l2.3,0.9l0.6,2.7l0.2,3.4l1,2.2l2.7,0.4l1.9,1.4l1.7,1.3l2.1,1.1l1.7,1.6
	l1.4,2l1.9,1.1l-0.6,2.9l0.8,2.5l0.8,2.5l0.8,2.7l1,2.5l0.8,2.7v3.4l1.5,1.8l2.3,0.9l2.3,0.9l1.5,1.6l0.6,2.7l1.2,2.2l1.7,1.6l1.2,2
	l1.4,1.8l1.4,2l1,2.5l-0.4,0.4l0.6,2.9l1.9,1.1l0.8,2.7l1,2.2l1.2,2l0.8,2.7l0.2,3.4l1.2,2.2l1.2,2l1.7,1.6l1.5,1.6l1.2,2.5l1.2,2
	l1.2,2.2l1.7,1.3l1.7,1.6l1.9,1.3l1.7,1.3l0.8,2.5l0.8,2.7l1.7,1.6l1.7,1.6l1.7,1.4l1.5,1.6l1.7,1.6l1.9,1.4l1.5,1.6l1.5,2l2.3,0.7
	l1.5,1.6l1.9,1.3l1.4,2l1.2,2.2l1.5,1.6l1.4,1.8l1.5,1.8l1.2,2l1.7-1.3l-1-2.2l1-2.2l1.5,1.6l2.1,1.1l1.7,1.4l0.6-2.9l1.2-2.2
	L560.7,858.9z M656.1,1139.2l-0.4,3.2l0.2,0.2L656.1,1139.2z M657.5,897.8l2.3,0.9l1.9,1.3l2.1,0.9l2.1,0.9l2.3,1.1l2.7-0.4l1.2,2
	l2.7,0.5l-1.2-2.2l-1-2.2l-0.4-3.2l0.6-2.9l0.4-3.1l-1.9-1.1l-2.3-0.9H666l-2.3,0.4l-2.9,0.2l-2.9,0.2l-2.1-1.4l-2.3-0.7l-1.2-2.2
	l0.8-2.2l-2.3-0.9l-0.4-2.7l-1.4-2l-2.7-0.2l-2.9-0.2l-2.1-0.9l-2.3-0.9l-1.7-1.3l-2.1,0.9l-2.9-0.4l-0.8-2.5l-1.7-1.3l-2.5,0.4
	l-1,2.5l-0.8,2.5l-1.4,2l-2.7-0.2h-3.1l-2.7-0.4l-2.5-0.7l-2.7,0.4l-2.7-0.2l-2.9-0.2l-2.5-0.4l-1.7-1.6l-0.6-2.9l-1.5-1.6l-1.5-1.8
	l-1.9,1.1l-2.1-1.1l-2.3-0.9l-2.5-0.5l-1.7-1.6l-1.5-1.6l-2.7-0.2l-1,1.1l-1.9,1.4l-1.7-1.4l-2.7,0.5l-2.1-1.1l-2.5-0.5l-1.9,1.1
	l-1.2,2l-0.4,3.2l-1.4,2l-1.4,2l-1.4,1.8l-1.5-1.6l-1.9,1.3l2.3,0.9l2.7,0.4l2.9-0.2l2.7,0.2l2.1,1.1l2.5,0.5l-0.4,3.1l0.8,2.7
	l2.5,0.4l2.7,0.5l2.9,0.2l2.3,0.4l2.5,0.7l1.9,1.3l1.9,1.3l2.5,0.5l2.7,0.7l2.9-0.2l2.1-0.9l1.9-1.3l1.9,1.3l2.9-0.2l2.3,0.7
	l2.5,0.4l2.5,0.7l1.2,0.2l2.1,0.9l1.9,1.1l1.9,1.3l2.3,0.9l2.3,0.7l2.5,0.7l2.5,0.7h2.9l2.3,0.9l2.3-0.9l2.7,0.2l2.5,0.4l2.5,0.7
	l2.5,0.7l2.7-0.4l2.1-0.9L657.5,897.8z M655.7,1148.9l-1.7-1.6l0.8,2.7l1,2.2l1.4,2l0.6-0.7l-1-2.2L655.7,1148.9z M656.9,1135.2
	l-0.4,2.9l0.2,0.2L656.9,1135.2z M1078.2,1404.7l2.3,0.2l-1.2-2.2L1078.2,1404.7z M767.6,609.6v3.6l-0.4,2.7v3.4l-1,2.5l0.2,3.4
	l0.6,2.7l1.5-1.8l2.1-0.9l2.7-0.4l1.7-1.6l1.2-2l1.7-1.3l1.5-1.8l1-2.2v-3.6l-2.5,0.5l-2.1-1.1l-1.7,1.3l-1.5-1.6l-1.7-1.6l-1.9-1.1
	l-1.9-1.1l-1-0.4l-1.2,2.2L767.6,609.6z M1089.2,1394.2l1-2.2l-1.2,2L1089.2,1394.2z M463.3,541l-0.8,0.9l1.7,1.3L463.3,541z
	 M483.5,798.6l-1-2.2l-1.2-2.2l-1-2.5l-2.5,0.7l-0.8,2.5l0.6,2.9l1.2,2l1.2,2.2l1.5,1.6l2.7,0.4l1.2-0.7l-1.2-2.2L483.5,798.6z
	 M473,624l-1.4-2l1.2,2H473z M472.2,633.7l-1,2.5l1.5-1.6L472.2,633.7z M470.1,610.7l-0.8-2.7l0.6,2.7H470.1z M447.4,741l-1.4-1.8
	l-1.9-1.1l-1.7-1.6l-1.7,1.6l1.2,2.2l2.3,0.7l2.1,1.3l1.9,1.3l1.9,0.9l-1-1.8L447.4,741z M461.2,748.9l-1.7-1.6l1.7,1.8V748.9z
	 M467.8,763.3l-1.7-1.6l-1.5-1.6l-1.2-2.2l-2.7-0.2l-1.7,1.3l1.4,2l1.2,2l1.4,2l1.5,1.6l1,2.5l1.7,1.6l1-2.5l0.4-3.2l-0.2,0.2
	L467.8,763.3z M1039.6,1348.9l-1.9,1.4l-0.4,2.9l0.6,2.9l1.5-0.2l1.5-1.8l-0.4-2.9L1039.6,1348.9z M795.3,599.2l0.8,2.7l1.2,2
	l2.1,1.1l1.5,1.8l1.4,2l1.4,1.8l-0.4,2.9l0.8,2.5l2.3,0.9l1.9,1.3l2.7-0.4l2.1,0.9l-1.7-1.3l-0.4-3.2l-1.2-2.2l-0.2-3.1l0.2-3.2
	l0.6-2.9l-2.1-1.1l-0.8-2.7l-1.7-1.6l-2.7,0.2l-2.5,0.7l-2.9-0.2l-2.3-0.7V599.2z M794.7,425.8l-2.1,0.9l1.4,1.6L794.7,425.8z
	 M796.1,581l-0.4-2.9l-1.4-2l-1.4,0.5v3.4l-1,2.5l2.7,0.4L796.1,581z M811.6,628.3l-1.4,2v3.4l2.1,1.1l-0.4-3.2l0.2-3.2L811.6,628.3
	z M788.9,427.1h-0.2l-1.4,1.6l2.9,0.2L788.9,427.1z M764.5,562.6l0.8,2.5l0.8,2.7l0.6-2.9l-0.4-2.7L764.5,562.6z M744.4,450.3
	l0.8,2.5l1.4,2l1.9,1.1l1.4,2l0.6,2.7l1.9,1.1l0.4-2.9l0.4-2.9l1-2.5l1.4-2l1.4-1.8l1.2-2l1.2-2.2l0.8-2.7l0.6-2.9l0.6-2.7l0.6-2.7
	l0.6-2.9l1.2-2.2l0.8-2.5l0.2-3.4l0.4-2.9l1.4-2l-1.7-1.6l-2.1-1.1l-2.7-0.2l-1.7,1.3l-0.4,0.2l-2.3,0.9l-1.4,2l-1,2.2l-1.5,1.6
	l-1.4,2.2l-1.2,2l-1,2.2l-1.4,2l-1,2.2l-1.4,2l-0.6,2.9v3.4l-0.8,2.5l1.4,1.8L744.4,450.3z M766.1,682.3l-1,2.5l1.7,1.6l2.1-0.7
	l0.8-2.7l-1.9-1.1L766.1,682.3z M740.7,554l0.2,3.2l1,2.2l0.8,2.7l0.4,3.2l1.7,1.3l1.7,1.6l0.8,2.5l1.9-1.4l-0.8-2.5l1-2.7l1.4,1.8
	l2.3,0.9l1,2.2l-0.8,0.7l-0.6,0.7l-0.2,0.5l-1.7,1.6l-1.5,1.6l0.4,2.9l0.6,2.9l1.5-1.8l1.4,1.8l1.7,1.6l2.1,0.9l2.7-0.4l0.6-2.7
	l2.1-1.1l2.7,0.5l1.9,1.3l1.5,1.6l1.9,1.3l1.4,1.8l1.2,2.2l1.4,1.8l0.6-3.2l-1-2.2l-1.2-2.5l1-2.5l1.9,1.4l1,2.5l1.7,1.3l2.1,1.1
	l1.2,2.2l0.8,2.7l1.9,1.4l1.7,1.6l2.1,0.7h3.1l-2.5,0.7l1,2.5l2.7,0.2l0.6-2.9l0.6-2.7l-2.3-0.9h-3.1l1.2-2l-1.4-2l-1.4-1.8l-1-2.5
	l2.5-0.4l1.9-1.3l-1.9-1.3l-2.5-0.5h-2.9l-0.8,2.7l-2.5-0.7l0.4-2.9l-1.2-2l-1.4-2l-2.5-0.5l-2.5-0.7l-1.5,1.8l-2.1,0.9v3.4
	l-2.5-0.9l-1.5-1.3l-1.2-2.5l-1-2l-0.6-2.9l1.2-2l-1.4-2l-1-2.2l-1-2.5l-0.8-2.7l1.4-2l1.2-2l-0.6-2.7l1.5-2l1.7-1.4l2.1-0.9
	l1.9-1.4l-1,2.5l1.4-2l0.4-3.2l1.4-2l1-2.2l0.8-2.5l-0.2-3.2l-0.6-2.9l-1.9-1.4l-1-2.5l-0.2-3.2l0.4-3.4l1.2-2l0.4-2.9l-0.2-0.2
	l-1.7-1.3l-1,2.2l-2.1,0.9l-2.3-0.9l-2.1-0.9l-1.9-1.3l-1.9-1.4h-2.9l-2.5,0.2l-2.5,0.9l-0.2,3.2l-1,2.5l-0.6,2.7l-0.4,3.2l-0.6,2.7
	l1,2.5l-0.2,3.2l-0.4,3.2l-1,2.2l-0.2,3.4l0.4,3.2l0.6,2.9l-2.1,1.1l-1.4-1.8l-1.9-1.1l-1.5-1.8l-0.8,2.7v3.4l1.9,1.4V554z
	 M803.5,615.9l-2.3-0.9l-2.3,0.7l-1.5-1.4l-1.5-1.8l-0.2,1.6l1,2.5l0.2,3.4l1,2l1.9-1.3l1.4,1.8v3.4v3.4l0.2,3.1l2.9,0.2v-3.4
	l1.5,1.6l1.4-1.8l-0.6-2.7l-1.5-2l-0.8-2.5l0.2-3.4L803.5,615.9z M792.2,634.6l-1.9,1.4l-1.4,1.8l1.2,2.2l2.5,0.5l2.7-0.2l1.7-1.6
	l2.1-1.1l-0.6-2.9l-1.7-1.6l-0.4-0.4h-2.9L792.2,634.6z M789.7,603.1l-1.7-1.6l-1.7-1.6l-1.7-1.6l-2.1-0.9v2l0.2,3.4l-0.4,3.2
	l1.5-1.8l2.5-0.7l1.4,1.8l1.5,1.8l2.9,0.2l-0.8-2.7L789.7,603.1z M774.6,599l-0.6-0.2l-1.9,1.3l1.7,1.3L774.6,599z M782.7,632.6
	l0.6-2.9l1.2-2l1-2.5l0.2-3.2l-0.6-0.7l-2.5-0.7l-2.3,0.7l-1.5,1.8l-0.6,2.7l-1.2,2.2l0.4,3.1l-1,2.7l-1.9,1.1l-2.3,0.9l-0.4,2.7
	l1,2.2l1.5,1.8l2.1,1.1l1.4,1.8l1,2.5l2.7-0.2l1.4-2l-0.4-2.9l-1.2-2.2l-0.2-3.2l0.8-2.7L782.7,632.6z M790.7,620.2l-0.8,2.7
	l-1.2,2.2l-0.8,2.5l-1.4,2l-1,2.2l-1.4,2l-0.4,2.9l-0.6,2.9l1,2.2l1-2l0.8-2.7l1-2.5l1-2.2l1.9-1.4l1.5-1.8l0.6-2.7l-0.2-3.1
	l0.4-2.9V617l-1.2,0.2L790.7,620.2z M786.4,647.6l0.8-2.7l-0.2-0.2L786.4,647.6z M592.1,823.3l1.4,1.8l1.9-1.3l0.8-2.5l0.2-3.1
	l-1.5-1.6l-2.1-1.1h-3.1l-0.8,1.3l-0.4,2.9l-0.2,3.4l1.7,1.3L592.1,823.3z M696.6,896.9l-0.8,0.2l-1.5,1.8l-1.2,2.2l-0.2,3.2
	l-1.7,1.6l2.1,0.9h2.9l2.3-0.7l1.2-2.2l1-2.5l0.6-2.9l-2.1-1.1L696.6,896.9z M687.5,901l1.2-2.2l-1.5-1.6l-1.9-1.3l-2.3-0.9
	l-2.1,0.9l-2.5,0.7l-2.3-0.7l-2.3-0.7l-0.4,0.7l1,2.5l1.9,1.1l2.3,0.9l1.7,1.3l1.7,1.6l0.8,2.7l0.8-2.5l1.9-1.3L687.5,901z
	 M605,772.5l1.2,2l1.4,2l1.5,1.8l-1.2,2l-1.7,1.6l0.8,2.7l1.4,1.8l2.3,0.9l-1.9,1.1l0.6,2.7h2.9l1.7,1.6l1.7,1.3l1.4,1.8l1.5,1.6
	v3.4l-0.8,2.7l0.8,2.7l1,2.2l0.2,3.4l0.6,2.7l1.2,0.2l-0.8,2.7v3.6l2.7-0.7l2.3,0.9l2.7-0.7l0.8,2.5l2.3-0.7l1.9-1.3l2.9-0.2
	l2.3-0.7l1.7,1.6v3.4l0.2,3.4l2.9-0.5l1.5-1.6l2.7,0.4l2.3,0.9l1.9-1.3l1.7-1.3l1-2.5l2.7,0.4l1.4,1.8l2.5-0.7l1.7,1.6l0.6,2.9
	l2.5-0.7l1.9-1.3l2.7-0.2l1.5,2l1.5-1.6l0.4-0.2l0.2,3.4l0.6,2.9l0.2,3.2l1,2.7l1.7-1.3l2.1-1.3l2.1-0.9l2.1-0.9l2.1-1.1l2.1-1.1
	l1.9-1.3l1.7-1.3l0.8-2.7l1.5-1.6l-0.2-3.2l1.9-1.3l0.4-2.9L696,815h2.9l0.6-2.9l-1.2-2.2l-0.4-2.9l-0.6-2.9l1.4-1.8l0.8-2.7
	l2.1-1.1l-0.4-3.2l1.5,1.6l2.1-0.9l1.2-2.2l1.5-1.8l2.5-0.4l1.7-1.3l0.2-3.4l-1.9-0.5l0.2-3.4l0.4-3.2l0.4-3.1l0.4-2.9l1-2.2
	l1.2-2.2l1.2-2.2l2.7-0.2l-1-2.5l1.9,1.3l2.5,0.7l2.5,0.5l2.9,0.2l2.1-1.1l-0.8-2.5l-1.2-2.2l-1.7-1.6l-2.1-0.9l-1.4-2l-1.9-1.3
	l-1.7-1.6l-1.7-1.3l-0.8-2.5l1.2-2l1.7-1.6l-1-2.5l-1.4-1.8l-1.2-2l-1.5-1.6l-1.5-1.8l1-2.2l-2.1-0.9l-2.1-1.1l1.5-1.8l-1.4-1.8
	l-1.2-2.2l2.7-0.2l2.9,0.2l2.1-1.1l-1.4-2l-1.9-1.1l-1.2-2.2l1.5-1.3l0.2-3.2l2.3,0.9l1.9,1.1l2.3-0.7l2.5-0.4l2.7-0.4l-1.2-2.5
	l-1.4-1.6l-1.7-1.6l0.4-3.4l2.7,0.2l2.7,0.4l2.1-0.9l2.3-0.9l2.1-1.1l0.8-2.7l-1.7-1.6l-2.3,0.7l-1.7-1.6l-1.7-1.6l-1.7-1.6
	l-1.9-1.1l-2.7,0.2l-1.9,1.4l1.4-2.2l-0.8-2.7l-2.1,1.1l-2.5,0.7l-2.5,0.7l2.1-1.1l-0.4-3.4l1.5-1.8l-0.8-2.7l-1.7-1.6l-2.7-0.4
	l-0.8-2.5L707,678l-1.9,1.3l-0.6,2.7l-1.5,1.6l-0.2-3.4l-0.8-2.5l-1.4,1.8l-0.6,2.7l-1.4,2l-1.4,1.8l-1.5,1.8l-1.4,1.8l-0.8,2.7
	l-1,2.5l-1.5,1.8l-1.2,2.2l-2.9-0.2l-1.7,1.6l0.4,2.9l1.2,2.5l-1.7,1.3l-2.7,0.4l-0.8,0.5l-1.4,1.3l-0.2-1.1l-2.3-0.7l-1.7,1.3
	l-1.5,1.8l-2.1,1.1l-2.3,0.9l-1.4-0.2l-1.2,2.2l-0.8,2.7l-1.4,1.8l-1.4,2l-1.7,1.8l-1.5,1.3l-1.2,2.2l-1.4,2l-1.4,2l-1.2,2l-2.1,1.1
	l-2.3,0.9l-2.5,0.7l-2.3,0.4l-2.5,0.9l-2.7,0.5l-2.5,0.4l-1.9,1.3l-1.2,2.2l0.4,2.9l-2.5-0.5l-0.8,2.5l1.5,1.6l-1.5,1.8l-0.8,2.5
	l0.6,2.7l-2.1,1.1l1.4,2l2.5,0.4h-3.1l-1.5-1.6l-2.3,0.7l-1.5-1.6l-1.4-1.8l-2.1-1.4l-1.7,1.6h-2.9l-1.7-1.6l-1.7-1.3l-0.4-2.5
	l-1.9,1.3l-1.9,1.1l-0.8,2.7l-1.7,1.6l-1,2.2l-0.8,2.5l2.1-0.9l-1.4,1.8l-1.4,2l-0.6,2.7l0.2,3.4L605,772.5z M613.2,516.2l1.5-1.8
	l2.1-1.1l1.9-1.1l1.5-1.6l2.3-0.9l0.8-2.5l1-2.2l1-2.5l1-2.2l1.4-2l1.5-1.6l1.2-2.2l-0.6-2.9l-2.1-1.1l-1.5-1.6l-1.7,1.6l-2.5-0.4
	l-2.1,0.9l-1.9,1.1l-2.3-0.7l-2.7-0.4l-0.2,0.2l-1.5,1.3l-1.7,1.6l-1.7,1.6l-1.9,1.1l-1.5,1.8l-1.9,1.1l-0.6,2.9l-0.2,3.2l0.4,3.2
	v3.4l2.3,0.9l2.1,0.9l2.1,1.1l2.7,0.2L613.2,516.2z M684.8,1076.7l-1.2,2.2l0.2,0.2L684.8,1076.7z M563.6,809.2l2.3,0.7l0.4,3.2
	l1.4,1.8v3.4l1.7,1.3l2.3,0.9l2.1,1.1l1.7,1.3l1.9-1.1l-1.5-1.6l0.8-2.7l1.2-2l-2.5-0.7l-2.5-0.7l-1.4-1.8l-0.8-2.7l-0.2-3.2l-1-2.5
	l-0.8-2.7l-1.7-1.4v0.2l-2.3,0.4l-0.8,2.7l-0.6-2.7l-2.1,0.9l-0.4,3.2L559,806l-0.8,2.5l2.3,0.7H563.6z M1320-8.7l-0.5-2.5h-3.4
	l2.1,1.1L1320-8.7z M705.7,662.7l-1.5,0.9l1.4,2L705.7,662.7z M760.7,595.4l-0.4-3.4l-0.6-2.7l-1.2-2l-1.5-1.8l-2.5-0.5l-2.5-0.7
	l-2.7-0.2l-2.9-0.2l-0.6,0.5l1.9,1.3l0.8,2.5l1.9,1.3l1,2.2l0.4,3.2l1.4,1.8l0.8,2.7l1.5,1.6l1.9,1.1l1.7-1.6l1-2.2L760.7,595.4z
	 M741.9,704.8l2.9-0.2l-0.6-2.9l-1.2,0.9l-1.9,1.3l-1.2,2L741.9,704.8z M742.9,607.8l-1.9-1.4l-0.2,2l1.4,1.8L742.9,607.8z
	 M755.3,690.8l-1,0.7l-1.5,1.6l2.3,0.7l2.7,0.4l1.7-1.3l-2.5-0.7L755.3,690.8z M711.5,654.4l2.3-0.9l1.7-1.6l1.7-1.3l1.2-2.2
	l1.7-1.4l1.7-1.3l1.7-1.8l1.2-2l1.4-2l0.2-3.4l1.7-1.3l2.5-0.7l1.7-1.6l1-2.2l1.9-1.3l2.1-0.9l0.2-3.2l-1-2.5l-0.8-2.7l0.4-2.9
	l-0.4-2.7l-1.2,1.4v3.4l-1.4,2l1,2.5l-2.1-1.1l1.5,1.8l-0.8,2.5l-2.1,1.1l-1.2,2.2l-1.7,1.6l-1.5,1.6l-1.4,2l-1.2,2l-1.5,1.8
	l-1.4,1.8l-1.4,1.8l-1.5,2l-2.3,0.7l-1.4,1.8l-1.7,1.6l-1.5,1.6l-1.2,2.2l-1.5,1.6l-0.2,3.4l1.9-1.3L711.5,654.4z M744.2,604.2
	l-1.7-1.8l-1.7-1.3l-0.4,1.6l1,2.5l1.9,1.1l2.7-0.7L744.2,604.2z M765.5,785.3l-0.8-0.9L763,786L765.5,785.3z M738.8,785.3l0.8,2.7
	l0.4,3.2l-0.6-0.9l-1.2-2l-1.4,2l-1.4,2l-0.8,2.5l-1.4,2v3.4v3.4l0.4,2.9l-1.7,1.3l-0.8,2.7v3.4l-1.5,1.8l-2.3,0.7l-0.4,3.2l0.8,2.7
	l-0.4,3.2l0.6,2.7l1.5,1.8l1.9-1.1l2.3-0.7l1.9,1.4l-0.2,3.1l1,2.5l0.6,2.7l0.2,3.4l-0.4,3.2l-1.2,2.2v3.4l-1,2.2l-0.8,2.7l0.8,2.9
	l1.5,1.6l1.7,1.3l2.1-1.1l2.7-0.4l2.1-0.7l2.1-0.9l-1-2.5l-1-2.5l0.6-2.9l1-2.5v-3.4v-3.4l-0.6-2.9l0.4-3.2l0.8-2.7l-0.4-2.9
	l0.2-3.2l-1.7-1.3l-0.2-3.4l1.7-1.3l1.7-1.6l1.9-1.3l2.7,0.2l0.8,2.7l1.2,2.2l-0.4,3.2l-1.4,1.8l-0.8,2.7l1.7,1.8l1.5,1.6l1.4,2
	l1.9,1.1l2.3,0.9l0.2,2l-1,2.2l-0.6,2.9l0.8,2.7l1.7,1.3l2.9,0.5l2.3-0.9l-0.6-2.9l1.7-1.6l2.3-0.7l2.5-0.7l2.3,0.9l-1.4-2l2.9,0.2
	l-0.4-3.2l-2.7-0.2l-0.4-2.9l-1.9-1.3l-1.9-1.3l-0.4-2.9l0.2-3.2l1.4-2.2l-1.7-1.3l-1-2.5l-1.5-1.6l-1-2.7l-1.2-2l-1.2-2.2l-1.9-1.1
	l-1.4-2l-2.3-0.7v-3.2l1.7,1.3h2.9l1-2.2l2.3-0.9l2.5-0.7l1.7-1.3l1.5-1.6l1.4-2l1.4-1.8l1.4-2l1.7-1.6l2.7,0.4l1.5,1.8l1.5-1.8
	l0.6-2.7l-1.4-1.8l-2.5-0.7l-2.7,0.7l-2.1,0.9l1.9,1.3l-2.7,0.2l-2.7-0.4l-2.7,0.2l-1.4,2l-2.3,0.7l-2.7-0.2l-1.4-1.8l-1.9,1.3
	l-1.4,2l-1.4,1.8l-1,2.5l-2.5,0.7l-2.7-0.4v0.2l-1.5-1.6l-0.6-2.7l-1.5-1.8l-2.3-0.9l-1.4-2l-1-2.2l-0.4-2.9l-0.2-3.4l0.8-2.7
	l0.8-2.5l1.4-2.2l1.5-1.6l2.1-0.9l2.5,0.7l2.3,0.9l2.7-0.4l2.7-0.2l2.3-0.9l2.3,0.9l2.7,0.5l2.7-0.5l2.7-0.4l2.7,0.4l2.7-0.2
	l2.7-0.4h0.2l1,1.8l1.9,1.4l2.9-0.2l2.9,0.2l2.5-0.7l2.5-0.4l2.3-0.7l1.5-1.8l1.4-2l1.2-2l1.7-1.6l1.5-1.8l1-2.2l1-2.5l1.5-1.8
	l-1-2.5l-2.9,0.2l-1.4,2l-1.4,1.8l-2.3,0.9l-1.2,2.2l-1.4,1.8l-1.9,1.3l-2.1,1.1l-2.3,0.7l-2.5-0.5l-2.5-0.4l-2.9-0.2l-2.7-0.5
	l-1.4,2l-0.2-0.2l-1.7-1.3l-2.1-0.9l-2.7-0.5l-2.5-0.7l-2.5-0.5l-2.7,0.5l-2.3-0.9l-1.5-1.8l-2.5-0.7l-2.3-0.7l-1.7,1.6l-0.6,2.9
	l-1.7,1.3l-1,2.2l-2.3-0.9l-1.5-1.6l-1,2.5l-1.9,1.4l-0.6,2.7l-1.4,2l-0.6,2.9l0.6,2.7l-2.1,1.1l1.2,2L738.8,785.3z M960.7,1293.4
	l-1-2.5l-2.9,0.2l-2.3,0.7l-2.5,0.7l-2.3,0.7l-2.3,0.9l1,2.5l2.1,1.1l2.9-0.2l2.5-0.5l2.1,1.1l1.9-0.7l1.2-2l2.7-0.2l1.5-1.8
	l-2.3,0.9L960.7,1293.4z M1343.3,1256.3l-1.9,1.3l-2.1,0.9l-1.4,2l-1.7,1.8l-2.5,0.5l-2.7-0.5l-2.3-0.9l-2.5-0.7l-1.9-1.3l-2.3-0.9
	l-2.5-0.4l-1.2-2.2l1.9,1.3l-1.5-1.8l-1.2-2.2l-0.8-2.7l-0.2-3.2l-2.1-1.1l1.5-1.8l-2.3,0.7l-1-2.2l-2.5-0.7l1.4,2l0.4,3.2l0.8,2.7
	l-1.7,1.6l-1.2-1.8l-1.5-2l-2.7-0.4l-2.1-0.9l-2.3-0.9l1.9-0.9l-0.2-3.6l0.6-2.7l-1.5-1.6l-1.2-2.2l-0.8-2.5l-2.3-0.9l2.5-0.9
	l-0.6-2.9l-1-2.5l-1.5-1.8l-2.3,0.9l-0.8-2.5l-1.9-1.3l-2.3-0.9l-2.7,0.4l-1.5-2l-1.2,2.2l-1-2.2l-1.4-2l-0.4-2.9l-1.9-1.3l-1.5,1.6
	l1.5,1.8l1.5,1.8l1.2,1.8l1.2,2.2l-1,2.7l2.3,0.7l1.9,1.3l2.3-0.9l-1.9,1.3l-1,2.5l1.5,1.8l1.4,1.8l1.4,1.8l1.4,2l1.5,1.8l2.1,1.1
	l-1.5-1.8l-1-2.2l1.2,2h3.1l1.5,1.6l-1.9,1.3l2.1,1.1l-0.4,3.2l-1.9-1.1l1.4,1.8l0.8,2.5l1.7,1.8l2.1-1.1l1.2,2l-1.7,1.3l-1.9-1.3
	l1.2,2.2l1.9,1.3l-0.4,2.9l0.8,2.5l1.7,1.6l-1.4,1.8l1,2.2l-2.5,0.4l-0.6,2.9l-0.6,2.7l-0.4,3.2l-1.2,2.2l-1.9,1.3l-2.7,0.5
	l-2.1,1.1l-1.9,1.1l-0.6,2.9l1.5,1.8l2.1,0.9l2.7,0.7l1.5,1.6l1.7,1.6l2.7,0.5l2.3,0.7l1.5,1.8l1.4,1.8l1.7,1.6l-1.4,2l-0.6,2.9
	l-1,2.2l-1.5,1.8l-1.4,2l-1.4,2l-1.9,1.4l2.1,1.1l1.7-1.6l0.8,2.5l2.7,0.5l0.8,2.7l2.3-0.9l1.9-1.3l1.9-1.1l1.7-1.6l1.7-1.6l1.2-2.2
	l1.4-1.8l1.2-2.2l1.4-1.8l1.5-1.6l1.4-2l1.5-1.8l1.2-2l0.8-2.7l-0.2-3.2h0.2v-1.3l-0.4-3.2l1.5-1.8l1.7-1.3l2.3-1.1h2.9l2.7,0.2
	l0.6,2.7l0.2-3.2l0.4-3.1l1.5-1.8l1.7-1.3l1.4-2l0.2-3.4l0.8-2.7l0.8-2.7l0.2-3.4l-2.1-1.1L1343.3,1256.3z M1264.6,930.7l-2.1-1.1
	l-2.5-0.7l-1.9-1.3l-1.9-1.3l-2.3-0.7l-0.2,0.4l1.5,1.6l1.4,2l1.2,2.2l1.9,1.1l2.1,0.9l2.5,0.7l2.9,0.2l-1.2-2.2L1264.6,930.7z
	 M1320.9,1101l2.7-0.4v-3.4l-1.7-1.6l-2.1-1.1l-1.4-1.6l-1.7-1.8l-1.7-1.3l-1.7-1.3l-1.7-1.6l-2.1-0.9l-2.1-1.1l-1.4-1.8l-1.4-2
	l-1.5-1.8l-1.5-1.8l-1.9-0.7l-1.9-1.3l-1.4-1.8l-1.9-1.1l-1.5-1.8h-2.9l-1.5-1.8l0.8,2.5l0.6,2.9l1.5,1.8l1.2,2.2l1.7,1.3l1.5,1.8
	l1.7,1.3l1,2.2l1.9,1.3l1.5,1.6l1.7,1.6l2.1,1.1l2.3,0.9l1.7,1.3l1.7,1.6l2.1,1.1l1.2,2l2.3,0.7l2.1,1.1L1320.9,1101z M1253.7,913.8
	l-0.6-2.9l-1-2.2l-1.5-1.8l-1.5-1.6l0.2-3.4l-1.4-1.8l-1.5-1.8l-1.4,1.3l1.4,2l-0.2,3.4l0.8,2.7l1.2,2.2l1.4,1.8l1.7,1.6l1.5,1.6
	l1.9,1.3L1253.7,913.8z M1255.7,915.2l-1.4-1.8l0.4,2.9l2.1,1.1L1255.7,915.2z M1297.2,1306.2h-3.1l-1.9,1.4l2.1,1.1l-2.5,0.4
	l-1.5-1.8l1.9-1.3l-2.9,0.2l-1.9,1.4l-1.9,1.1l-1.7,1.6l-1.9-1.6l-1-2.2v-3.6h-3.1l-0.6-2.7l2.3-0.9l-2.7-0.4l-1.5,1.8l-2.1,1.1
	l-1.9,1.1l-1.4,2v3.4l-0.4,3.2l-1.5,2l-1.2,2l-1.9,1.1l-2.9,0.2l-0.6,2.9l-1,2.2l-0.6,2.9l2.7,0.4l2.1-0.9l-1.9,1.1l-1.9,1.3
	l-2.5,0.7l-1.2,2l0.2,3.4l-1.4-2l-1.5,1.6l-1.7,1.3l-2.3,1.1l-1.7,1.3l-2.1,1.1l-1,2.5l-2.5,0.5l-1.7,1.3l-1.7,1.8l-2.1,0.9l0.4,0.7
	h-3.1l-1.9,1.3l1.5,2l-1.9-1.3l-2.1,1.1l-2.1,0.9l-2.9,0.4l-2.1,1.1l-1.5,1.3l-1.7,1.8l-1.7,1.6l-0.8,2.5l-2.3,0.9l-1,2.2l-1,2.5
	l-1.2-2.2l-2.1,1.1l-0.8,2.7l-2.1,0.9l1.7,1.3l0.6,2.9l-1.7-1.3l-2.1-1.1l-1.5,1.6l1.4,2l-1.2,2.2h2.9l-2.1,0.9l-2.7,0.7l-1.9,1.1
	h2.9l-1,2.2l2.3-0.7l-1.4,2l1.9,1.3l2.9,0.2l2.9,0.2l1.5-1.6l2.7,0.5l1.2,2l2.7,0.7l2.5-0.4l1.4,1.8l1.2,2.2l2.9-0.2l2.5-0.7
	l1.7,1.4l2.5-0.5l2.7,0.2l2.1-0.9l2.3-0.9l1.4-2l1.9-1.3l1.9-1.3l1.2-2l1.9-1.6l2.5-0.4l1.9-1.3l-2.1,1.1l1.7-1.6l0.4-2.9l1.2-2.2
	l0.8-2.7l1.4-2l1.5-1.8l-2.5-0.7l-2.3-0.7l2.5,0.4l2.7-0.4l-0.4-1.3l0.4-3.2l1-2.2l-1.4-2l-1.9-1.1l2.3,0.9l2.9-0.2l-0.6-2.7
	l1.7,1.3l2.5-0.7l2.1-0.9l2.1-1.1l-0.6-2.9l-1.9-1.1l-1.7-1.6l1.2,0.7l1.7,1.3l2.1,0.9l1.7,1.8l1.4-1.8h3.1l-2.3,0.9l2.7-0.2
	l2.1,1.1l1.4-2l-1.4-1.8l-1.2-2h-3.1h-3.1l-1.9-1.3l2.3,0.9h2.9l2.3-0.7l-1.7-1.6l-2.7-0.5l2.7,0.2l2.5-0.7l1.7-1.6l2.3-0.9l1.9-1.1
	l1.4-2.2l1.2-2l1-2.2l1.7-1.6l1.5-1.8l0.8-2.7l1.9-1.3l1.7-1.6l1.4-1.8l-1.2-2l-1.9,0.7l1.9-1.1l-1.4-1.8l1-2.5l2.1-0.9h-2.9
	l1.2-1.8L1297.2,1306.2z M1338.3,1453.1l-1.5-1.6l-1.4-0.7l-1.7,1.6l-0.2,3.2l-1,2.5h2.9l2.1-1.1l1.5-1.8l-2.5-0.5L1338.3,1453.1z
	 M1349.8,1535.2l1.7-1.3l-0.2-0.2L1349.8,1535.2z M1313.4,1506.9l-1.4,2l-1.4,1.8l2.1-0.9l1.9,0.9l-1-2.2l1.5-1.8L1313.4,1506.9z
	 M1244.8,916.3l-1.9-1.3l-2.3-0.7h-2.9l-1.9-0.9l-1.9-1.6l-1,0.7l-0.2,3.4l1.2,2.2l1.5,1.6l2.7,0.4l2.9-0.2l2.1,1.1l2.7,0.4l1.7-1.3
	l-1.4-1.8L1244.8,916.3z M1319.2,1073.6l-0.8,2.5l0.4,0.4L1319.2,1073.6z M1327.7,1078.3l-1.7-1.3l-0.6,2.9l1,2.2l1.9,1.3l1.7-1.6
	l-1-1.6L1327.7,1078.3z M1313.2,933.6l-1.9-1.3l-1.9,1.1l1.5,1.1L1313.2,933.6z M1326.9,1011.4l1.9,1.1l0.6,2.9l1.4,1.8l2.5-0.5
	l0.6-2.9l-1.9-1.4l-1.5-1.6l-1.5-1.8l-2.3-0.9L1326.9,1011.4z M1239.4,908.2l-0.8,0.9l2.5,0.7L1239.4,908.2z M1239.6,944.8l-1.9-1.1
	l-0.6,0.9l1.7,1.3l2.1,0.9l2.5,0.7l-1.7-1.4L1239.6,944.8z M1236.1,901.7l-0.4-3.2l-1.7-1.3l-1.9-1.3l-1.7-1.6l-2.1-0.9l-2.1-0.9
	l-1.5-1.8l-1.7-1.6l-1.9-1.4l-2.3-0.7l-0.4,0.4l1.7,1.3l1.2,2.2l1.5,1.6l1.7,1.6l1.9,1.3l1.9,1.1l2.1,1.1l2.1,1.1l1.7,1.4
	L1236.1,901.7z M1319.6,997.3l0.2,3.4l1.4,2l2.7,0.2l2.3-0.9l0.4-2.9l-0.6-2.7l-1.2-2.2l-1.2,2.2l-1.9-1.1l-0.4-0.7l-0.6-2.7
	l-1.2-2.2l-1.2,2.2l0.6,2.7L1319.6,997.3z M1519.7,32.5l-2.3,0.9l-2.1,0.9l2.5-0.5h3.1l1-2.5l-0.6-0.4L1519.7,32.5z M1557.7,23.7
	l-1.5,0.5l-2.1,1.1l1.7,1.6l-2.5,0.5l-2.1,0.9l-2.9,0.2l-2.5,0.7l-2.5,0.5l2.9,0.2l2.5-0.5h2.9h2.7l2.3-0.9l1.4-1.8l1.7-1.6
	L1557.7,23.7z M1545.5,1084.8l0.4-2l-2.3,0.9L1545.5,1084.8z M1529.4,32l-1.4-1.8l-0.4-0.2l-2.5,0.7l-0.8,2.5l-1,2.5l2.7-0.4
	l1.9-1.1L1529.4,32z M1531.7,1408.6l-2.9-0.4l-2.1,1.1l1.7,1.6l-1.7,1.6l1.9,1.1l2.5-0.7l-1.9-1.3l-0.4-2.9l1.4,1.8L1531.7,1408.6z
	 M1585.6,977.5l-1.9,1.1l1.7,1.6l2.7,0.7l1.7-1.3l-1.7-1.3L1585.6,977.5z M1579.7,972.5l-2.5,0.4l-2.3,0.9l1.7,1.6l1.4,2l0.8-0.2
	h3.1l-0.2-3.4L1579.7,972.5z M1564.5,27.7l-2.3,0.7l-2.7-0.5v0.5l2.5,0.9l2.9-0.2h2.9l2.3-0.9l-3.1,0.2L1564.5,27.7z M1484.1,1011.4
	l-0.4,0.5l1.4-0.7L1484.1,1011.4z M1469.2,1023.4l-0.2-0.7l-1,0.7H1469.2z M1467.5,1032.4l-1.9-1.3l-1.9-1.1l-1.9-1.3l-2.3,0.7
	l-2.7,0.5l-2.1,0.9l-1.5,1.8l-0.4,3.2l-1,2.2l1.5,1.8l2.3,0.7l2.5,0.9l2.5,0.4l2.1-0.2l1.7-1.6h2.9l1.5-1.8l-0.8-2.7L1467.5,1032.4z
	 M1462.6,1052.2l-0.4,0.9l-2.3,0.9l2.5,0.5l1.4-2h2.9l-1.9-1.3L1462.6,1052.2z M1484.5,1022.7l1.5-0.7l0.4-3.2l-1.4,1.8
	L1484.5,1022.7z M1480.6,1017.7l-2.3,0.7l1.2-1.8l1.7-1.6l1.2-2l1.4-1.1l-0.8,0.2l-2.7,0.4l-1.9,1.1l-2.1,1.1l-2.5,0.7l-1.9,1.1
	l-1.9,1.3l-2.5,0.7l1,2.2l0.8,1.8l0.4-0.2l2.7-0.2l1.2-2.2l2.7-0.4l1.9,0.9l2.3-0.9l2.7-0.2l-0.6-2.9L1480.6,1017.7z M1510.2,30.9
	l-1.9,1.3l1,2.5l2.9-0.2l1-2.2l-2.1-1.1L1510.2,30.9z M1483.1,1023.4h1.2l0.2-0.7l-0.4,0.2L1483.1,1023.4z M1376.7,676.9h0.4
	l1.5-0.7l-4.3-0.4l2.1,1.1H1376.7z M1164.7,943.3l1.5-1.3l-2.7,0.2L1164.7,943.3z M1155.6,1177.7l1-0.9l-0.8-2.5L1155.6,1177.7z
	 M1155.4,942.8l-2.1-1.1l0.8,1.8l1.7,1.6l1.9,1.1l1.7-1.3l-2.1-0.9L1155.4,942.8z M1171.9,853.3l-1-2.5l-0.6,0.7v3.4l1.4,1.6
	L1171.9,853.3z M1162.8,76.6v0.2h0.2l2.1-1.1L1162.8,76.6z M1191,47.3l1.2,2l0.6,0.2h0.2l1-2.2H1191z M1184.8,869.7l-1.7-1.6
	l-1.9-1.1l-1-2.5l-1.7-1.3l-1.2-2.2l-1-2.5l-2.5-0.4l-1.9-1.1l-0.2,0.2l0.4,2.9l0.4,3.2l1,2.2l1.7,1.6l1.5,1.8l1.7,1.3v3.6l1.4,1.8
	l1.9,1.3l2.3,0.7l1.7-1.3l1.2-2l-0.8-2.7L1184.8,869.7z M1334.1,999.3l-1.2,2.2h0.2L1334.1,999.3z M1129.7,1119.7l-0.8-2.7l-2.5-0.4
	l1,2.5v0.2l1.2,1.6L1129.7,1119.7z M1090,1358.4l1.4-0.7l1.2-2.2l-1.5-1.8l-1.5-1.8l-2.1-0.9l-1.4,1.8l1.7,1.3l1.2,2.2L1090,1358.4z
	 M1055.3,1332.3l-2.1,1.1l2.7,0.4L1055.3,1332.3z M1090.4,1361.1l2.7,0.2l1.2-0.9l-2.1-0.9L1090.4,1361.1z M948.8,977.5l-1.5-1.8
	l-1.2,2l-1,2.5l-0.6,2.7l1.7,0.7l2.3,0.7l1.9-1.1l-1-2.2l1.2-2.2L948.8,977.5z M1155.8,1172.3l0.4-0.2l-1-2.7L1155.8,1172.3z
	 M1158.1,1185.8l-1.4-2l-0.6-2.7l-0.6-2.7l-1-2.2l-1.4-2l-1.4-1.8v-3.4l0.6-2.7l-0.2-3.4l-0.2-3.4l-0.2-3.2l0.6-2.7l-1.5-1.6
	l-0.8-2.5l-0.4-3.2l-0.2-3.4l-2.1-0.7l-1.5-1.8l-1.4-2l-0.6-2.7l-1.9-1.3l-1.7-1.3l-1.4-2l-1-2.5l-1-2.2h-1l-1.9-1.1l-2.1-1.1
	l-1.7-1.6l-1.9-1.1l-1-2.2l-1.7-1.6l-1.7-1.6l-0.4-3.1l-0.4-2.9l0.6-2.9l-0.4-3.1l-1-2.2l-1.9-1.4l0.2,3.4l-1.9-1.3l-2.1-1.1l-1.2-2
	l-2.1-1.1l-0.2,3.2l0.6,2.9l-1.4-2l-2.3-0.7l-1.4-2l-0.8-2.7l-0.8-2.5l-0.2-3.4l-0.8-2.7l-1.2-2l-1.4-2l-0.4-2.9v-0.2l-1.2-1.3
	l-2.9-0.2l-1-2.2l-0.4-3.2l2.1-0.9l-1.2-2.2l-1.7-1.3l-1.7-1.6l-2.1,0.7l-0.8-2.5l-2.3-0.9l-2.5-0.4l-1.2-2.5l-1.9,1.3l-0.8-2.5
	l-1.2-2.2l-2.3-0.9l-2.5-0.7l-2.1-0.7l-1.7-1.6l-2.3-0.7l-1.9-1.4l-1.4-1.8l-0.6-2.9l0.6-2.9l-1.4-0.2l-1.2-2.2l-1.4-1.8l0.4-2.9
	l0.6-2.9l0.6-2.9l-1-2.2l-0.8-2.7l-1-2.2l-0.4-3.2l-1.9-1.1l-1.5-1.8l-1.4-2l-1.2-2l0.4-3.2l-0.4-3.4l-0.6-2.7l-0.6-2.9l-0.8-2.7
	l1.2-2l-1.2-2.2l1.2-2l-1.4-0.7l-1.9-1.3l-1.7-1.3l-1.5-1.6l-1.9-1.3l-1.2-2.2l-1.7-1.3l-2.9,0.2l-1.2,2.2l-2.3,0.7l-1.7-1.6
	l-0.8-2.5l-0.6-2.9l-1.2-2.2v-3.2l0.2-3.4l-0.8-2.7l-0.2-3.4l-1.7-1.3l0.6-2.9l-1.4-1.8l-1-2.5l-1.7-1.3l0.6-2.7l1.5-1.8l-1.2-0.2
	l-2.5-0.4l-1.2-2.2l-0.4-2.9l0.2-3.4l-0.6-2.9l-1-2.2l-2.5-0.5l-0.4-3.1l-1.4,1.8l-2.1,1.1l-0.6,2.9l-0.4,3.2l-0.6,2.5l-0.8,2.7
	l-0.8,2.7l0.8,2.5l-1.7-1.3l-1.2,2.2l-1,2.2l0.2,3.4l1.4,2l2.1,0.9l-1,2.2l-1.9-1.3l-1.4,1.8l-0.4,3.1v3.4l-1,2.2l-0.6,2.7l-0.4,3.2
	l1.4,2v3.4l-0.6,2.9l0.4,2.9l0.6,2.9l0.2,3.2l-0.8,2.5l-1,2.5l-0.6,2.7l-0.4,2.9l0.2,3.4l-1,2.5l-0.6,2.7l-1,2.5l-1.2,2.2l-1.2,2
	l-1,2.5l-0.8,2.7l-0.8,2.5l-1.9,1.1l-1.9,1.3l-2.3,0.9l-2.5,0.4l-2.3-0.9l-1.9-1.1l-1.9-0.7l-1.7-1.6l-2.1-0.9l-1.5-1.8l-0.4-2.9
	l-1.5-1.8l-2.5-0.7l-2.1-1.1h-2.7l-2.5-0.9l-1.7-1.3l-1.7-1.6l-1.5-1.8l-1.2-2l-2.1-1.1l-2.3-0.7l-1.7-1.6l-1.9-1.1l-2.7-0.4
	l-2.1-1.1l-1.5-1.6l-1.7-1.4l-1.9-1.3l-1.4-2l-1.7-1.3l-1.7-1.6l-1.9-1.1l-1.9-1.1l-1.5-1.8l-0.8-2.7h0.8l1.2-2l1.2-2l1.4-2l1.7-1.6
	l0.4-2.9l1.4-2l0.6-2.7l-1.9,1.3l-0.6-2.7l0.4-2.9l2.1-1.1l2.1-1.1l1.5-1.3l1.2,2l1.2-2.2l1.2-2l-0.4-2.9l1.2-2l1.5-1.8l1.4-1.8
	l-1.2-2.2l-2.1,1.1l-1-2.5l-0.2-3.4l-1.5,0.9l-1.5,1.8l-1.4,2l1.2,2.2l-1.7,1.6l-2.1-1.1l-0.8-2.7l1.4-1.8l-1.7,1.3l-2.1-1.1
	l1.2-2.2l0.6-2.5l-1.2,2l-1.4,1.8l-2.1,1.1l-2.3,0.7l-2.1,1.3l-1.9-1.1l-1.7-1.6l-2.7-0.5l-2.7,0.5h-2.7l-1.4-2l-2.5-0.4l-1.7-1.6
	h-2.9l-1.9-1.3l-2.7-0.4l-1-2.2l-0.4-0.7l-2.1-0.9l-2.7,0.5l-1.5-1.8l-1.7-1.6l-2.1-0.9l-1,2.5l-1.5-1.8l-1.2,2l1.5,1.6l2.5,0.7
	l2.9-0.2l1.4,2l0.6,2.9l0.2,3.2l1.5,1.8l-2.9-0.2l-1.5,1.6l-2.7-0.2l-2.1,1.1l-2.9-0.2l-2.9,0.2l-2.3-0.9l-0.8-2.7l-0.6,2.9
	l-2.1-1.3l-0.6,2.9l-1.7,1.3l1,2.5l-2.1-1.1l-2.3-0.9l0.2,3.4l-2.7-0.4l-0.6,2.7l-2.5,0.7l-0.2,0.7l0.4,2.9l1,2.5l-1.5,1.8l-2.7-0.5
	l-1,2.5l-0.6,2.9l-0.6,2.9l-2.5,0.7l-1,2.2l-0.6,2.9l1.7,1.8l2.7,0.4l-1.7,1.3l1.4,1.8h2.9l-2.1,0.9l-2.1,1.1l0.6,2.9l-1.5-1.8
	l-1.7-1.6l-2.1-0.9l0.4,3.2l-1.2,2v-3.6l-1.9-1.1l-2.5-0.7l-2.3-0.7l-2.5,0.7l0.4,3.2l-1.9-1.1l-0.8,2.5l0.6,2.9l-2.7-0.5l0.4-3.1
	l0.6-2.7l0.6-2.9l-1.7-1.6l-1.7-1.6l-1.4-1.8l-1.4-2l-1.5-1.6l-1.4-2l-2.3-0.9l-2.1-0.9l-1.5-1.6l-0.4,0.5l-1.9,1.3l-0.6,2.7
	l-1.9,1.3l-1-2.2l-1.7,1.4l-1.4,2l-0.4-2.9l-1.5-1.6l-1,2.5l1.7,1.3l-1,2.2l-0.8,2.7l-2.1,0.9l-1.4-1.8l-1,2.5l-0.2-3.4l-1.2,2.5
	l-2.3-0.9l-1.2,2.2l-0.8,2.7l1.2,2.2l1.2,2l-2.7,0.2l-1.7-1.6l-1.9,1.1l1.9,1.1l-1.5,1.6l2.3,0.9l1.4,2H806l-2.5-0.4l-1.2-2
	l-2.5,0.7l-1.9,1.4l-1.2,2l-0.4,3.2l1.7,1.8l1.9-1.3l-1.4,2l-1.7,1.4v3.4h2.7l2.1,1.1l-2.9-0.2l-2.3-0.7l-2.7-0.5l-2.5-0.7l-1.4,2
	l-0.6-2.7l-1.9-1.1l-1.2,2.2l1,2.5l-2.7,0.5l1.4,2l1.9,1.3l1,2l2.1-1.1l-1.5,2l-0.8,2.5l-2.3-0.7l0.2,3.4l-0.8,2.7l-1.2-2.2l-1.2-2
	l-1-2.5l-1.5-1.8l-0.6-2.7l-1.5-1.8l-0.6-2.7l-1.2,2.2l-0.4,3.2h-2.9l-1.2,2.2l-1.5,1.6l-1.4,2l-1,2.2l-0.2,3.4l0.6,2.9l1,2.5
	l0.4,3.2l-1.7,1.3l-1.7,1.8l-1.9,1.1l-1,2.2l-2.1,1.1l-0.2,3.2l-1,2.2l-1.4,2.2l-1.4,1.8l-1.5,1.8l-1.7,1.6l-1.9,1.1l-2.1,0.9
	l-2.1,1.1l-2.3,0.9l-2.3,0.7l-2.7,0.2l-2.7,0.4v0.7l-2.7,0.4l-2.3-0.7l-2.5-0.4l-1.7,1.6l-1.4,2l-1.9,1.3l-2.5,0.5l-2.9,0.2
	l-2.3,0.7l-1.7,1.3l-1.5,1.8l-2.5,0.5l-2.3,0.9l-2.5-0.5l-2.1-0.9l-1.9,1.4l-0.8-2.7l-1.5,1.8l-1.7,1.3l-1.9,1.1l-2.7,0.4l-1.4,2
	l-0.6,0.5l-1.9,1.3l-1.4,1.8l-1.9,1.4l-1.4,1.8l-1.9,1.3l-2.1,0.9l-2.3,0.9l-2.1,1.1l-1.9,1.1l-1.2,2.2l-0.8,2.5l-1.2,2l-1.4,2
	l-1.5-1.8l-1.2-2l0.6-2.9l-1.4-1.8l-1.2,2.2l-0.8,2.5l-1,2.5l-1,2.2l-0.4,3.1l1.4,1.8l0.2,3.2l-0.2,3.4l-0.4,2.9l-1.7,1.6l-1.2,2.2
	l-0.6,2.7l-0.4,2.9l-0.6,3.2l0.8,2.5l1.5,1.8l0.4,2.9l0.6,1.8l1.4,2l1.2,2.2l1,2.2l1.2,2.2l1.4,1.8l1.4,2l-0.4,3.2l-0.2,3.1
	l-2.3,0.9l-1-2.2l-1-2.5l-1.4,2l-0.8-2.5l0.2-3.4l-1.5-1.6l-1.4-2l-1,2.2l1.2,2.2l0.8,2.7l1.4,1.8l1.7,1.4l0.8,2.7l-1.2,2l-2.7-0.2
	l-0.2-3.4l-1.2-2l-1.2-2.2l-0.6,2.9l-0.4-2.9l-0.4,2.9l0.8,2.5l1.5,1.6l1.5,1.8l1.5,2l1.2,1.8l1.2,2.2l1.2,2.2l1,2.2l1,2.5l-0.2,3.4
	l0.6,3.2l1,2.2l1.5,1.6l1.2,2.2l1.4,2l0.4,2.9l1,2l1.5,1.6l1.2,2.2l0.8,2.5l0.2,3.2l-0.2,3.4v3.4l0.6,2.7l0.8,2.9l0.6,2.7l1,2.2
	l1.2,2.2l1.2,2.2l1,2.5l1.2,2l1.2,2.2l1,2.2l0.6,3.2v3.4l-0.2,3.2l0.4,3.2l-1,2.5l-0.6-2.9l-0.2,3.6l0.6,2.7l0.4,2.9l-1.2,2
	l-1.2,2.2l-1.5,1.6h-3.1l-1.7-1.3l-0.2-0.2l-0.2,1.8l-0.2,3.4l0.2,3.4l0.8,2.5l2.9,0.2l2.1,0.9l2.1,1.3l1.7,1.4l1.5,1.8l1.4,1.8
	l2.3,0.9l2.9,0.2l1.4,1.8l2.5,0.5l2.9-0.2h3.1l2.5,0.4l2.7,0.2l2.5-0.4l2.7-0.5l2.1-1.1l2.1-1.1l1.4-1.8l2.3-0.9l1.2-2l2.3-0.9
	l2.5,0.7l2.7-0.4l2.1-1.1l-1.2-0.7l1-2.2l1.7-1.6l1.7-1.6l2.5-0.7l2.7,0.2l2.9,0.2l2.5-0.9l2.5-0.4h2.9l2.5-0.7l2.9,0.2l2.3,0.7
	l2.5-0.7l1.7,1.6l2.1,1.1l1.9-1.3l2.5-0.5l3.1,0.2l2.9-0.2l2.3,0.9l2.9-0.2l1.7-1.6l1.4-2l1.5-1.6l1-2.2l1-2.5l1.2-2.2l1.5-1.6
	l2.5-0.7l2.7-0.4l2.1-0.9l1.7-1.6l1.9-1.1l2.1-0.9l2.3-0.9l1.7-1.3l1.9-1.6l2.1-0.9v0.2l2.5-0.7l2.5,0.9l2.7,0.2h2.9l2.9-0.2
	l2.7-0.5l2.5-0.7l2.1-0.9l2.3-0.7l2.5-0.7l2.3-0.9l2.1-0.9l2.1-1.1l1.9-1.1l2.1-1.1l2.7-0.4l2.7-0.5l2.7-0.2l2.9-0.2l2.7-0.2
	l2.7-0.2l2.9,0.2l2.7,0.2l2.5-0.4l2.1-1.4l2.5,0.5l2.1,1.1l2.1,0.9l2.1,1.3l1.7,1.3l1.9,1.3l1.7,1.6l2.9-0.2l1.2-1.3l2.7,0.5
	l1.7,1.3l1.9,1.1l2.1,1.1l1.9-1.3l2.7-0.2l1.5,1.6l1.7,1.6l-0.4,3.2l2.1-1.1l2.1,0.9l0.8,2.7l-2.3,0.5l0.4,2.9l1.5,1.8l1.7,1.3
	l2.9-0.2l1.4,1.8l1.4,2l0.2,3.2l1.7,1.6l1.5,1.6l1.5,1.8l0.6,2.9l0.8,2.7l-0.6,2.9l-1.9-1.1l1.5,1.6l1.7,1.6l1.5,1.8l1.5,1.6
	l2.1-0.9l1.5,1.8l0.2-1.6l-1.4-1.8l0.6-2.9l2.3-0.7l0.8-2.7l1.5-1.8l1.2-2.2l1.9-1.3l1.7-1.3l2.1-0.9l2.1-1.1l2.1-0.9l1.2-2.5l1-2.2
	l0.8-2.7l1.7-1.6l2.3-0.7l0.4-2.9l0.2-3.4l1,2.2l0.6,2.9v3.4l-1.5,1.8l1.2,2.2l-0.6,2.7l-1.5,1.8l-1.5,1.8l-0.6,2.5l-1,2.5l-0.2,3.4
	l0.4,2.9l-0.6,2.9l-2.3,0.7h-3.1l-0.8,2.7l-0.4,2.9l2.5-0.7l1.9-1.1l2.5-0.7l2.1,0.9l1.4-2l0.6-2.7l1-2.7l0.2-3.2l1.5-1.8l1.4-1.8
	l1.2,2.2l1,2.2l1.5,1.8l1.4,2l-0.6,2.7l-0.6,2.9l-0.6,2.7l-1.5,1.8l-1.9,1.1l1.9,1.3h0.6l2.9-0.2l1.7-1.4l2.1-1.1l1.9-1.1l2.1-1.1
	l1.9,1.4l-1.7,1.6l1.5,1.6l-2.5,0.7l1.7,1.3l1.7,1.6l1.5,1.6l1,2.5l-1.4-2l-1.4-1.8l-1.7-1.6l1.5,1.8l1.4,1.8l1.4,1.8l1.2,2.5l1,2.2
	l1,2.5l-0.4,3.1l-1.9,1.1l1,2l0.6,2.7l1.5,1.8l1.9,1.3l1.4,1.8l1.4,2l1.2,2l1.9,1.3l2.1,0.9h3.1l2.1,0.9l1.9,1.6l1,2.2l2.3,0.7
	l1.4-2l2.9-0.2l2.1,1.1l2.9,0.2l2.5,0.4l1.9,1.1l1.9,1.3l2.5,0.7l1.9,1.3l2.3,0.7l1.9,1.3l1-0.7l1.9-1.3l1.9-1.3l1.5-1.8l1.9-1.3
	l1.9-1.1l2.5-0.7l1.2-2.2l-2.9-0.2l2.1-1.1l2.1-1.1l1.9-1.1l1.4,2l0.2,3.2l-1.4,1.8l-2.7-0.2l1.5,1.6l2.9-0.2l1.5-1.6l1.9-1.3
	l1.9,1.1l-1,2.2l1.2,2l2.7,0.4l1.4,2l1.4,1.8l2.5-0.7l1.2,2l1.4,2l0.8-1.6l-0.2-3.2l-1.7,1.3l-1-2.5l2.9-0.2l2.5-0.7l2.9-0.2
	l1.5-1.6l1.7-1.6l1.5-1.6l1.7-1.6l1.7-1.6l1.9-1.3l1.9-1.1l2.3-0.7l2.5-0.9l2.7-0.2h2.9l2.9-0.2h2.9l2.9-0.2l2.3-0.7l1.7-1.6
	l2.1-1.1l0.6-2.7l0.8-2.7l-1.2-2.2l0.4-2.9l0.8-2.7l0.6-2.9l1-2.2l-0.8-2.5h0.2l0.8-0.4l0.6-2.9l1.2-2l1.2-2.2l1-2.2l1-2.5l2.5-0.7
	l1-2.5l-1-2.5l1.4-2.2l0.6-2.7l0.6-2.7l1.5-1.8l0.8-2.7l1.4-1.8l1-2.5l-1.2-2l2.3-0.7l0.6-2.9l1.7-1.3l1-2.5l1.4-1.8l1.9-1.3
	l1.4-1.8l2.1-1.1l1.7-1.6l2.1-1.1v-2v-3.4l1.4-2l1.4-1.8l1.2-2.2l1.2-2.2l0.4-2.9l0.8-2.7l0.6-2.7l-1.2-2.2l0.4-3.2l1-2.5l1-2.5
	l0.4-2.9l0.8-2.5l0.6-2.9l0.4-2.9l0.6-3.2l0.8-2.5l1.4-1.8l0.6-2.9l-0.8-2.7L1158.1,1185.8z M1194.5,893.3l1,2.2l-0.8-2.7
	L1194.5,893.3z M1186.6,48.4l-1,2.2l-1.4,2l-2.5,0.5l-2.1,1.1l-1.2,2.5v1.1l2.7-0.5l1.9-1.6l2.5-0.7l1.7-1.3l1.2-2l1.4-2l-1-2.2
	L1186.6,48.4z M1339.5,1032.2l1,2.2l2.5,0.7l0.2-2.2l-1.5-1.8L1339.5,1032.2z M1338.5,1017.7l0.4,2.9h0.8l2.7-0.5l-1.9-1.1
	L1338.5,1017.7z M1354.8,1060.7l-1.4-2l0.4,2.9L1354.8,1060.7z M1338.9,997.9l-1-2.2l0.2,3.2L1338.9,997.9z M1352.1,1051.9l0.2-1.8
	l-1.4-2l-2.1,0.7l1.2,2.2L1352.1,1051.9z M1339.9,1006.9l-0.6-2.7l-0.8-2.5l-0.6,2.9l0.8,2.7L1339.9,1006.9z M1194.9,887.7l-0.8,1.1
	l1.2,2l1.5,1.8l-0.2-3.6L1194.9,887.7z M1340.5,1013.7l-1.2-1.8h-2.9l1.4,2L1340.5,1013.7z M1337,1090.4l1.2-1.4l-1.5-1.6l-2.3-1.1
	l1,2.5L1337,1090.4z M1209.4,897.2l-1.5-1.8l-1.2-2l-1.2,0.2l-1.2,2l-0.4,3.2l1.9-1.1l1.4,1.8l1.5,1.8l2.3,0.9l-0.6-2.9
	L1209.4,897.2z M1200.9,891.7l-1,2.5l1.5,1.3l1.4-2l-1.4-1.8H1200.9z M1202.1,884.1l2.3,0.9l1.9-1.1l-2.3-0.7l-1.7-1.8l-0.8-2.5
	l-1.7-1.6l-1.9-1.1l-1.7-1.6l-2.1-0.9v2.2l1.7,1.6l1.5,1.6l1.4,2l1.5,1.6L1202.1,884.1z M1092.1,1380.4l0.6-2.9v-3.4l-0.6-2.9
	l0.4-3.2l-1.7-1.3l-1.7-1.3h-0.2l-0.8,0.7l-2.1,0.9l-2.5,0.7l-1.7,1.6l-2.7-0.2l-2.9,0.2l-1.2,2.2l-1.9-1.3l-2.3,0.9l-2.7,0.2
	l-2.5-0.4l-2.3-0.9l-2.1-1.1l-2.1-0.9l-2.1-0.9l-2.3-0.9l-2.7-0.5l-2.3-0.7l-1.4,2l-0.8,2.5l0.6,2.9l0.8,2.5l1.2,1.8l1,2.5l1.5,1.6
	l1.5,1.8l1.2,2.2l1.2,2l1,2.5l-2.7-0.4l1,2.7l1,2.2l1,2.5l1.7,1.4l1.4,1.8l1.4,2l2.3,0.9l2.3,0.7l-2.5,0.7l1.5,1.6h2.9l3.1,0.2
	l1.5,1.6l2.1-1.1l1.4-2l1-2.2l-1-2.2l1.4,2l1.7-1.8l1-2.2l-0.6-2.7l1.5,1.6l1.5,1.8l0.8-2.7l2.3,1.1l1.2,2l-2.7,0.5l1.4,2l2.9,0.2
	l-0.2-1.6l0.2-3.1l-1.2-2.2l0.8-2.7l0.2-3.4l1.2-2.2l1.7-1.3l1.7,1.6l-0.8-2.7L1092.1,1380.4z M1358.1,692.2l-1.9,2.9l0.8-0.9
	L1358.1,692.2z M1398.2,18.7l2.5-0.7l1.7-1.6l-2.3-0.9l-2.9-0.2h-2.9l-0.2,1.1l1.7,1.3L1398.2,18.7z M1398.5,754.1l0.4-0.5l-1-2.5
	L1398.5,754.1z M663.3,877.8h-2.9h-2.9h-2.9h-0.2l-1.7,1.1l-0.8,2.9l2.7,0.2l2.7,0.5l2.9,0.2l2.3-0.9l2.3-0.9l2.1-0.9l1.5-1.8
	l-2.3-0.7L663.3,877.8z M941.9,952.5l1.9-1.3l-2.1,1.1L941.9,952.5z M916.3,877.1l2.9,0.2l1.2-2l0.8-2.5l-1.2-2l-1.4-1.8l-1.7-1.6
	v1.6l0.8,2.5l-1.2,2.2L916.3,877.1z M945.9,943.7l-1.5,1.6l-1.9,1.3l0.2,0.2l1.9-1.3L945.9,943.7z M946.7,943.5l1.4-2l1-2.5l-1.4,2
	l-1.2,2L946.7,943.5z M907,837.7l1.4,1.8l2.3,0.9l-1.9-1.3L907,837.7z M903.2,859.8l-1.2,2l-0.8,2.7l1.2-2.2l1-2.2l1.4-2l0.4-3.2
	h-0.2l-1.2,2L903.2,859.8z M923.9,869.7l0.8-2.7v-3.4v-3.4l-1-2.2l-1.9-1.1l-0.4,0.7l-1,2.2l-1.5,1.8l0.4,2.9l0.2,3.4l1.9,1.3
	L923.9,869.7z M953.1,1006.5l0.6-0.7l-1.9-1.1L953.1,1006.5z M1111.3,120l1.9-1.3l2.3-0.9l1.4-2l1.9-1.3l-2.3-0.7l-1.9,1.4l-1.9,1.3
	l-1.5,1.8l-2.1,0.9l-1.5,2l-0.4,0.7l2.7-0.5L1111.3,120z M981.8,1015.7l-1.7,1.3l-1,2.5h1.7l2.1-1.1l1-2.2l2.5-0.7l-2.3-0.7
	L981.8,1015.7z M1123.7,925.9l-2.5,0.5l-2.1-0.9l-2.3-0.9l-2.1-0.9l-2.3-0.9l-1.5-1.6l1.4-1.8l2.3-1.1l-2.3-0.9l-2.5-0.5l-2.9-0.2
	l-1.9-1.1l-1.4-2l1-2.5l0.8-2.5l-2.3-0.7l-2.3,0.9l-2.3,0.9l-2.3-1.1l-0.8-2.5l-0.8-2.7l-1.9-1.1l-0.8-2.7l-0.6-2.7l-1-2.2l-2.1-1.4
	l-2.5-0.4l-1.4-2l-1.4-1.8l-1.5-1.8l-2.1-1.1l-0.8-2.5l-1-2.5l-1.2-2v-3.4l2.3-0.5l2.5,0.5l2.9-0.2l2.7-0.2l0.6-2.9l-0.8-2.7
	l-1.4-1.8l-1.4-2l-1.9-1.3h-2.9l-2.3-0.7l-2.1-1.1l-1.9-1.3l-1.7-1.3l-2.1-1.1l-2.5-0.7l-2.1-0.9h-2.9l0.2-3.1l0.4-3.2l-0.4-3.2
	l-1.7-1.3l-1.4-2l-1.4-1.8l-2.3-0.7l-2.3-1.1l-1.2-2l-1.5-1.6l-2.3-0.9l-1-2.2l-2.5-0.9l-2.3,0.7l-2.3-0.9l-1.5-1.8l-1.9-1.1
	l-1.5-1.6l-2.3-0.9l-2.5-0.7l-2.7-0.4l-2.3-0.7l-2.3-0.9l-2.1-0.9l-2.3-0.9l-1.9-1.1l-2.3-0.9l-1.9-1.1l-2.1-1.3l-2.1-0.9l-1.9-1.3
	l-2.7-0.2h-0.8l-2.5,0.4l-1-2.5l-2.5-0.7l-2.9-0.2l-2.3-0.7h-2.9l-1.9-1.1l-2.1-1.1l-2.1-1.1l-1.9-1.1l-2.1-1.1l-2.1-0.9l-1.5-1.6
	l-2.5-0.7l-2.3-0.9l-2.1-0.9l-1.9-1.3l-2.7-0.2l-2.1,0.9l-1.9,1.3l-1.9,1.3l-0.6,2.7l-0.2,2.2l-2.7,0.2l-1.9,1.6h-2.9l-2.7,0.2
	l-0.8,2.7l-1,2.5l-1.9,1.1l-1.2,2l-1,2.5l-1.5,1.8l-1.9,1.1l-1.4,2l-2.7,0.5l-2.5-0.5l-2.1-1.1l-1.2-2.2l0.6-2.9l-2.3-0.7l-0.2-3.4
	l-1.2-2.2l-1.2,2.5v3.2l-0.4-0.9l-1-2.5l-1.2-2.2l-1.2-2l-0.6-2.9v-3.4l-0.2-3.4l1.4-1.8l0.4-2.9l-1.2-2.2l-1.2-2.2l-0.2-3.1
	l-2.3-0.9h-2.9l-2.9-0.2l-1.5-1.6l-2.1-1.1l-2.1-1.1l-2.1-0.9l-2.5-0.4l-2.7,0.2l-2.3,0.9l-1.5,1.8l-1.5,1.6l-2.3,0.9l-2.3,0.9h-1.9
	l-1.2,2.2l-0.6,2.7l-1.9,1.3l-0.2,3.2l2.3,0.7l1.7-1.4l1.9,1.1l2.1,0.9l2.3,0.9l1.4,2l-0.2,3.2l1.4,2l1.9,1.4l2.7,0.2l2.1,0.9
	l2.7-0.2l2.9-0.2l2.7-0.4l2.7,0.4l2.3-0.9l2.7-0.2l-1.5,1.6l1.5,1.8l-2.3,0.9l0.8,2.7l-1.2-2l-0.6,2.9l-0.6-2.5h-2.9l-1.5-1.6
	l-2.5,0.4l-1.4,1.8l-1.4,2h-3.1l-2.5-0.4l-2.9-0.2l-1.7,1.6l0.8,2.5l2.9-0.2l1.9,1.3l1.4,1.8l1.2,2.2l1.7,1.3l1.2,2.2l-2.1,1.1
	l0.6,2.7l1,2.5l1.9,1.1l2.9-0.2l1.5-1.8l0.4-3.2l1.5-1.8l0.8-2.7l0.8-2.5l0.8-2.7l1.9-1.1l-1.2,2.2l-1.2,2l-0.6,2.9l0.8,2.5l2.3,0.7
	l1.2,2.2l2.3-0.9l0.8,2.5l2.3-0.9l1.7,1.6l2.1-1.1l-0.6,2.9l1.5,1.8l1.5,0.4l1.7,1.6l2.3,0.7h2.9l2.5,0.5l2.9,0.2l1.7,1.6l2.1,0.9
	l2.3,0.7l1.9,1.3l2.3,0.9l2.3,0.9l2.3,0.7l2.3,0.9l1.9,1.1l1.9,1.3l1.5,1.6l1.9,1.3l1.7,1.3l0.4,3.2l2.5-0.7l-1.7,1.3l1.2,2.2
	l1.2,2.2l0.6,2.7l1.2,2.2l1.5,1.6l1,2.7l1.7,1.3l1.9,0.9h0.4l1.9,1.1l-0.4,0.2l-1.9-1.3l-2.9-0.2l-1.7,1.8l1.5,1.6l2.5,0.7l1.9,1.1
	l-2.5-0.4l-2.5,0.4l1.9,1.3l1,2.5l1.5,1.6l-0.8,2.7l0.4-2.5l-1.5-1.6l-1.4-2h-2.9h-0.2l-1.9,0.4l-2.1,0.9l-1.7,1.6l-1.4,2l-1.2,2
	l-0.8,2.7l-1.4,2l-0.2,3.4l2.5-0.7l2.9,0.2l2.7,0.4l1.9-1.3l1.7-1.6l0.4-0.2l0.4,2.7l2.3-0.7l-0.8-2.5l-1.5,0.2l1.2-0.9l1.2-2
	l-0.6,2l1.7,1.1l1.9-1.1l1-2.5l0.6,2.9l2.7,0.4l2.3-0.9l2.9-0.2l1.9-1.1l-1,2.2l1.5,1.8l1.7,1.6l1.5,1.6l1.7,1.8l1.2,2l1.5,1.8
	l1.4,1.8l2.1,1.1l0.4,0.5l2.5,0.7l2.3-0.7l2.1,1.1l2.9-0.2l2.5-0.4h3.1l2.3,0.9l1.9,1.1l1.9-1.1l1.9-1.3l1.9-1.1l2.5-0.7l1-2.2
	l-0.8-2.7l-1.4-1.8l-1.7-1.6l-2.5-0.7l-1.9-1.1l-2.5,0.7l-1.5-1.6l2.7,0.2h2.9l2.7,0.5l2.7-0.5l2.7-0.4l0.8-2.5l-1.4-2l2.3,0.7
	l2.3,0.9l0.6-2.9l-0.8-2.5l-1-2.5l1.4,2l1.9,1.1h3.1l2.3-0.9l1.2-2.2l1.5,1.8l2.5-0.7l0.6,2.9l2.3,0.7l2.5,0.4l1.9,1.3l2.9,0.2
	l2.1,0.9l2.5,0.7l1.2,2.2l1.4,1.8l0.6,2l1.5,1.8l1.4,2l0.4,3.1l2.1,1.1l2.9-0.2l-0.2,3.4l1,2.5l2.1,1.1l1.9,1.4l1.4,1.8l1,2.5
	l1.7,1.4l1.9,1.1l2.5,0.7h3.1l2.3,0.9l2.7-0.2l2.1,0.9h3.1l2.1,0.9l2.3,0.7l2.7-0.2l2.1,0.9l2.3,0.9l-1.7,1.4l1.9,1.3l2.7,0.2
	l2.5-0.7l2.1-1.1l-1.7-1.3l-1.2-2l2.7,0.2L1123.7,925.9z M1095.8,858.4l-2.5-0.7l-0.2,3.2l1.9,1.3l2.5,0.4l1.9,1.3l1.9,1.4l1.5,1.6
	l2.1-1.1l2.1,0.9l1.2,2l2.9,0.4l2.5,0.4l2.7-0.4l2.9-0.2l1.7-1.6l2.3-0.7l1.7-1.3l2.3-0.9l1.9-1.3l1.5-1.6l0.6-2.9l2.7-0.5l2.7,0.5
	l1.9-1.4l1.2-2l-1.4-1.8l-0.4-3.2h3.1l1.4-2l0.6-2.7l-0.4-3.2l-1.5-1.6l-0.8-2.7l-1.4,1.1l-2.7,0.2l-2.7-0.5l-1.5,1.8l1.2,2l0.8,2.7
	l0.2,3.4l-2.3,0.9l-2.5,0.4l-1.7,1.6l-1.4,2l-0.6,2.7l-2.7,0.4l-2.1,0.9l-2.5-0.7l-1.9,1.4l-1.7-1.6l-0.4-3.2l-0.8-2.7l-0.2,3.2
	l-0.6,2.9l-2.1,1.1h-2.9l-2.5,0.7l-2.3-0.7l-2.3-1.1l-2.3,0.9L1095.8,858.4z M899.1,861.2l1.5,1.6l-1-2.5L899.1,861.2z M1145.7,932
	l2.5-0.5h-2.9L1145.7,932z M1065.8,1042.3l1,2.2l1.7-0.7l-0.8-2.7L1065.8,1042.3z M1029.4,900.3l1.9,1.3l2.3,0.7l-1.9-1.3l-1.9-1.1
	L1029.4,900.3z M1031.1,898.9l0.4,0.9l2.3-0.7L1031.1,898.9z M1115.3,813.2l-2.3,0.9l0.6,0.7l1.5,1.6l2.5,0.7l1.7-1.6l-1.5-1.8
	L1115.3,813.2z M877.8,798.2l1-2.5l0.2-3.4l-1.9-0.9h-0.2l-1.7,0.7l-0.6,2.9l1.4,1.8L877.8,798.2z M877.6,897.2l1-2.2l-1.4,2
	l-1.4,1.8L877.6,897.2z M886.1,887.7l0.2-3.4l-0.2-3.1l-1.4,0.9l-1.2,2.2l-1.7,1.4l-1.2,2.2l-0.8,2.7l-0.4,2.9l2.9,0.2l0.8-2.5
	l1.7-1.6L886.1,887.7z M876.2,789.6l-2.5,0.7l-1.5,1.6l2.5-0.4L876.2,789.6z M926.6,283.3l1.2-2h-1.2l-1.5,1.8l-1.5,1.8l2.3,0.9
	L926.6,283.3z M923.1,670.8l0.2-3.4h-0.2V670.8z M906.1,289.9l-2.3-0.7l-2.7-0.7l-1.2,2l-1,2.5l-1.7,1.3l-1.7,1.6l-1.9,1.1l-2.1,1.1
	l2.3-0.9l1.5,1.6l1.7,1.6l-1,2.5l1.7,1.3l1.2,2.5l2.9-0.2l1.4-1.8l1.2-2l1.4-2l0.8-2.7l2.3-0.9l2.1-1.1l2.7,0.5l1.9,1.1l1.4,1.8
	l1.4-2l1.4-2l1.5-1.6l1.9-1.3l1-2.5l-1.2-1.8v-0.2l-1.4-1.8l-2.3-0.9l-1.9-1.3l-2.9-0.2l-1.9,1.4l-2.5,0.7l0.8,2.7l-2.1,1.1
	L906.1,289.9z M879.1,334.7h-0.6l-1,2.5l0.2,3.2l1-2.5L879.1,334.7z M870.4,944.2l-1-2.2l-1.5,1.6l-0.2,3.6l-1.5,1.6l2.7-0.2
	l2.5,0.5l2.1-1.1l-2.1-1.3L870.4,944.2z M875.7,949.1l1.7,1.1l1.2-0.7l1.9-1.3l1.7-1.3l1.5-1.8l1-2.2l-1.2-2l-2.3-1.1l-0.4,3.1
	l-1.2-2l-2.1,0.9l-2.3,0.7l-2.1-1.1l-2.5-0.4l0.4,2.9l1,2.5l1.5,1.6h0.2L875.7,949.1z M887.3,881.4l2.7,0.2l-2.5-0.7L887.3,881.4z
	 M897.5,941.5l0.8-0.9l-1.4-1.8L897.5,941.5z M868.3,311.7l-1.9-1.3l-1,2.2l1.7,1.6L868.3,311.7z M872.8,784.7l1.5-1.6l1.4,2
	l1.5-1.8l-2.3-0.9l-0.8-2.7l1.5,1.8l1.5,1.6l2.7,0.5l2.1-1.3l-1.5-1.8l-1.9-1.1l-2.5-0.4h-0.6l-2.3,0.7l-2.9,0.2l-1.2,2.2l2.7,0.5
	L872.8,784.7z M863.5,806.5l2.1,1.1l2.3,0.7l2.5-0.7l0.8-2.5l-1.2-2.2l-0.6,0.2l-2.5,0.5l-2.3,0.9L863.5,806.5z M872.4,340.3h-0.2
	l-1.5,1.3l1.7,1.6l1.7-1.6L872.4,340.3z M399.6,625.1l1.9,1.3l0.4-3.2l-1.7-0.9L399.6,625.1z M152.6,885.7l0.6-0.9l-1.5-1.6
	L152.6,885.7z M522.2,604.4l1.9,1.3l-1.4-2L522.2,604.4z M125.9,1485.3l-2.5,0.7l-2.1,0.9l-2.3,0.9l-2.7,0.4l-1-2.2l2.7-0.4
	l-1.4-1.8l-1.7,1.3l-2.3,0.9l-2.3-0.9l1-2.2l1.2-2.2l-3.1,0.2l-1.9,1.1l0.6,2.9l-0.8,2.5l1.9,1.1l-0.8,2.5l-1,2.5l1.9,1.1l2.1-1.1
	l2.1-1.1l2.3,0.9l2.7,0.7l1.2-2l1,2.2l2.7,0.5l1.2-0.5l1-2.2l-1.9,1.1l-2.5-0.7l-0.4-3.2l2.9,0.2l3.1-0.2l2.3-0.7l-0.4-2.9
	L125.9,1485.3z M543.5,628.1l-0.4,2.9l1,2.5l0.6-2.9l-0.8-2.2L543.5,628.1z M165,1542.2l-2.5-0.7l0.6,0.7l1.5,1.6l2.9,0.4l2.3-0.7
	l-2.3-0.9L165,1542.2z M269,671.2l-1-2.2l-1.7-1.6l-0.4-2.9l-1.4-2l-0.6-2.7l-0.6-2.9l-2.3-0.7l-0.2-3.4l-1.4-1.8l-1.7-1.6l-1-2.5
	l-1.2-2l-1.2-2.2l-1.7-1.6l-1.7-1.3l-1.4-2l1.2,2l-1.5-1.6l-2.3-0.9l0.6,2.9l2.7,0.5l2.1,0.9l-2.3,0.9l-1.7-1.3l-1.2,2l0.6,2.9
	l-0.8,2.5l-1.5,1.8l0.2,3.2l-1,2.5l-0.4,2.9l-0.4,3.2l-0.6-2.7l-0.6,2.7l0.6,2.9l0.6,2.9v1.3l0.2,2.9l0.6,3.2l-0.2,3.1l0.4,2.9
	l1,2.5l0.6,2.9l0.8,2.7l1.4,1.8l1.9,1.1l2.5,0.7l2.5-0.7l1.9-1.1l2.5-0.7l1.9-1.1l2.1-1.1l1.7-1.3l1.5-1.8l1.2-2l0.8-2.7l0.6-2.9
	l-0.2-3.4L269,671.2z M1150.2,909.1l-1.9-1.3l-2.9,0.2l0.4,0.7l1.2,2l2.3,0.9L1150.2,909.1z M268,668.1l-0.2,0.2l0.2,0.7l1,1.6
	L268,668.1z M493.7,643.1l1.4-2l-0.2-0.4L493.7,643.1z M957.4-11.2h-1.7l-0.4,0.9L957.4-11.2z M960.8-8.3l2.1-0.9l1.9-1.3l0.3-0.7
	h-7.8l1.9,1.1L960.8-8.3z M1183.9-7.8l0.8,2.7l0.6,2.7l1,2.2l0.8,2.7l0.4,3.1l0.6,2.7l0.6,2.9l0.6,2.9l0.2,3.4l1,2.2l1.4,1.8
	l0.8,2.7l0.8,2.5l0.6,2.9l0.4,3.2l-0.2,3.1l0.4,2.9l1.7,1.6l1.2,2.5l-1,2.5l1.9-1.3l1.9-1.1l1.7-1.6l2.1-1.1l1.9-1.3l1.4-2l2.1-0.9
	l2.1-0.9l1.4-2l1.7-1.6l1.5-1.6l1.2-2.2l1.5-1.8l0.4-3.1l-1.4-2.2v-0.2l1.4-1.8l-1.4-2l1.4-2l1.5,1.6l2.7-0.7l1.9-1.3l2.3-0.7
	l2.5-0.7l2.1-0.9l2.7-0.5l1.4,2l0.2-3.4l-1.5-1.8l1.7-1.6l-1.4-2l0.6-2.7l1.2-2.2l1.5-1.6l2.3-1.1l1.7-1.4l2.1-1.3l2.1-0.9l2.5-0.7
	l2.9,0.2l2.1,0.9l2.9-0.2l2.1-0.9l2.3-1.1l1.7-1.6l-0.4-1.1h-80l0.1,0.2L1183.9-7.8z M347.2,467.2v-3.4l-0.6,0.4L347.2,467.2z
	 M0.5,413.8L0,413.7V152.6h0.6l1.7-1.6l2.5-0.7l2.9,0.2l2.3-0.9l1.4-2l-1.9-1.1l-2.1-1.1l1.9-1.4l1.4-2l0.8-2.5l1,2.2l0.8-2.7
	l-1.4-1.8l1.4-2l2.7-0.2l0.6-0.7l2.1-0.9l1.7-1.6l2.1-1.1l-2.5-0.7l-1.4-2l-1.4-1.8l-1.7-1.4l-1.5-1.6l-0.8-2.7l-2.5,0.7l0.2-3.2
	l-0.4-3.1l2.5-0.7l1.5-1.8l1.2-2.2l1.7-1.3l1.2-2.2l-0.6-2.9l-1.9,1.1l-1.7,1.6l-1,2.2l-2.7,0.4l-2.1-1.3l1.4-2l-2.3-0.9H4.7
	l1.9,1.3l-2.3,0.9l-1.7-1.6l-1.9,0.9v-0.2L0,106.7V-11.2h283.3l-2.3,0.7l-1.7,1.6l-2.3,0.7l-1.7,1.6l-1.9,1.4l-2.1,1.1l-2.5,0.4
	l-0.8,1.1L267-1.9l-1.9,1.3l-2.3,0.7l-1.2,2h1l1.4-1.8l2.3-0.9l1.5-2l2.1-0.9l2.5-0.7l2.1-1.1l1.9-1.1l2.5-0.7l1.7-1.3l2.7-0.7
	l1.9-1.1l-2.1-0.9h98.5l-0.3,1.6l-0.6,0.4l1.7,1.3l2.1,1.1l1,2.2l1.4,2l1.4,1.8l-0.8,2.7l0.8,2.5l0.6,0.2l0.6-2.9h2.9l-2.7-0.2
	l-0.4-3.2L388-3.3l2.5-0.7L388-4.7l-0.8,0.5l-0.8-1.4l-1.7-1.6l-2.1-1.1l-0.2-2.9h150l0.4,1.8l1.4,2l-1,2.2l-1.4,2l-1,2.5l1.7,1.8
	L534,3l-2.1,1.1h-2.9l2.7,0.4l2.7,0.5l1,2.5l0.8,2.5l-0.2,3.4l0.8-2.7l-0.2-3.4l2.7-0.2l-2.3-0.9l-1.5-1.8l-1-2.2l-1.5-1.6l-1.4-2
	l1.4-1.8l2.1-1.1l1.2,2.3l-0.8-2.5l-0.8-2.7l-1.2-2l-0.4-1.8h71l-1,2.2l-1.5,2L600-5.3l-1.2,2.3l-1.5,1.8l-1.2,2l-1.4,2l-1.9,1.1
	L590.7,5l-1.9,1.3l-1,2.2l-1.9,1.3l-2.1,0.9l-2.3,1.1l-1.7,1.3l-0.8,2.7l-1.5,1.8l-1.7,1.6l-1.9,1.3l-2.3,0.7l-2.3,0.9l-1.7,1.3
	l-1.5,1.8l-1.5,1.8l-1.7,1.3l-2.1,1.1l-1.9,1.3l-2.5,0.7H553l-2.1,0.9l-3.1,0.2l-2.5,0.4l-2.7,0.2l-2.5,0.7l2.1,1.1l2.3,0.7l2.3,0.9
	l2.7,0.2l2.9,0.2l2.5-0.7l2.3-0.7l2.7-0.4l2.5-0.7l2.3-0.7l2.7-0.7L569,32l1.7-1.3l1-2.5l0.6-2.9l2.1-0.9l2.5,0.4l2.3-0.7l1.7-1.6
	l2.1-1.1l2.3-0.9l2.1-0.9h3.1l2.1-1.1l1.7-1.6l2.1-1.1l1-2.2l1.9-1.3l2.1-1.1l2.5-0.4l1.4-2l-1.4-1.8h-3.1l1.4-2l1.7-1.6l1.7,1.3
	l1.5,1.8l0.6-2.7l1.5-1.6l1.7-1.6l0.8-2.7l-0.6-2.7L612-8l1.5-1.6l0.6-1.6h316.7l-0.2,1.1l2.1,0.9l2.7,0.5l1.7,1.6l2.9-0.2l2.5-0.7
	l2.9,0.5l2.7-0.5l2.3,0.9l-1.4,2l1,2.5l-0.6,2.9l-1.4,2.2l1.5,1.8l1.9-1.3l2.9,0.2l0.6-2.9l-1.2-1.8l1.9-1.3l2.3-0.7l2.7,0.5
	l-1.7,1.8l-1.4,1.8l1.9,1.1h3.1L961,2.8l-1.5,1.8l-1.9,1.1L956,7.5h3.1l2.9-0.2l2.5-0.7l2.3-0.9l1.7-1.3l1.2-2.2l2.5-0.9l-0.8,2.9
	l-1.9,1.3l-1,2.5l2.7-0.7l1.4-1.8l0.8-2.7l0.2-3.4l0.4-2.9l2.3,0.9l2.5,0.7l2.7,0.2l2.3-0.7l2.3-0.9l1.5,1.4l2.1,1.1l2.3,0.9
	l0.6,2.9l1.9,1.3l1.7,1.6l2.1,1.1l2.3,0.9l1.7,1.6l2.1,1.1l2.1,1.1l-0.2,2.5l-2.1,1.3l-2.3-0.7l-2.7-0.7l1.9,1.6l1.7,1.4l1.5,1.6
	l0.4,3.4l-1.2,2l1.7,1.6l1.2,2l-0.2,3.4l-2.1,1.1l-1,2.2l-2.5,0.7l-0.4,3.1l-2.1,1.1l-0.6,2.7l-0.6,2.9l-1.2,2l-0.6,2.9l0.4,2.9v3.4
	l2.1,1.1l-1.9,1.4l-1.4,2l1.2,2.2l-0.4,3.2l-0.8,2.5l-0.8,2.7l-0.4,3.2l-1.4,1.8l-0.6,2.9l-1,2.2l-1.7,1.6l-1.7,1.3l-1.7,1.8
	l-1.7,1.3l-1.9,1.3l-1.5,1.8l-1.2,2l-1.4,2l-1,2.5l-1.9,1.1l-1.5,1.6l-1.7,1.8l-1,2.2l-1.2,2l-0.8,2.7l-1.7,1.6l-0.8,2.5l-1.7,1.6
	l-1.5,1.8l-1.5,1.8l-1.4,1.8l-1.9,1.3l-1.7,1.6l-1.5,1.8l-1.7,1.3l-1.9,1.3l-1.4,1.8l-1.7,1.6l-1.5,1.8l-1.7,1.1l-1.5,1.8l-1.2,2.5
	l-2.1,0.9l-1.9,1.6l-1.5,1.6l-0.8,2.2l-1.5,2l-1,2.2l-2.5,0.5l-1,2.5l-1.9,1.3l-1.9,1.3l-1.9,1.1l-1.9,1.3l-2.1,1.1l-2.3,0.7
	l-1.5,1.6l-2.3,0.9l-2.3,0.7l-2.3,0.9l-2.5,0.7l-2.1,0.9l-1.4-1.8l-2.1,0.9l-1-2.2l-2.3,0.9h-2.9l-0.4-3.2l-1-2.2l-1.9,1.1l-2.5,0.5
	l0.4-2.9l-1.7,1.3l-1.5,1.8l-1.7,1.6l-1.2,2l-1.5,1.6l-1.5,1.8l-2.5-0.4l-2.7,0.2l0.8,2.5l-1.2,2.2l-1.9-0.2l-2.1,1.1l-1.9,1.3
	l-1.7,1.6l-1.2,1.8l-1.4,2l-1.7,1.6l-0.6,2.9l1.2,2.2l-0.6,2.7l0.2,3.4l-2.3,0.9l-2.1,0.9l-2.1,1.1l-1,2.2l-2.1,1.1l-1.7,1.3
	l-1.7,1.8l-1.7,1.3l-2.3,0.9l-2.5,0.7l-2.5,0.5l-1.7,1.3l-2.1,1.1l-1.5,1.8l0.4,3.2l-1.7,1.6l1.2,2.2l1.9,1.1l2.1,1.1l1.5,1.8
	l1.9,1.3l1.7,1.4l1.5,1.6l0.6,1.1l1.2,2.2l1.2,2.2l1.2,2.2l1.2,1.8l1.5,1.8l1.5,1.8l1.2,2l1.2,2.2l1.4,1.8l0.8,2.5l0.4,3.2l0.2,3.4
	v3.4l-0.6,2.7l0.2,3.4l1.7,1.6l-0.6,2.7l-0.6,2.9l-1.2,2.2l-1.4,1.8l-1.5,1.8l-2.7-0.2h-1.4l-2.5-0.4l-1.2,2l-2.3,0.9l-2.9,0.2
	l-1.9-1.3l-2.5,0.5l-1.5,1.6l2.1,0.9l-2.3,0.7l-2.5-0.7l0.4,3.2l-1,2.2l-1.4-2l1.2-2l-2.3,0.7l-1.7,1.6l-1.2,2.2l-1.5-1.8l-1.4,1.8
	l-1.7,1.6l0.4-3.1l-2.1-1.1l2.1-1.1l-1.9-1.4l1.9-1.3l-2.1,0.9l-0.8-2.5l1.2-2.2v-3.4l1-2.2l2.3-0.9l-2.5-0.7l1.7-1.3l1.9-1.3
	l-0.8-2.5l1.9-1.1l-2.5,0.2l-1.5-1.6l0.6-2.9l-0.8-2.5l-0.8-2.9l-2.1,1.1l-1.7-1.8l2.3-0.7l1-2.5l1,2.2l0.4-2.9l2.3,0.9l2.3,0.7
	l-0.4-3.2l-2.3-0.9l2.3-0.7l-1.5-1.8l-1-2.5l-0.6-2.7l1.7,1.6l-0.8-2.7l-2.5,0.2l-2.7-0.4l-2.5,0.7l-2.1-1.1l-1.5-1.8l-1.5,1.8
	l-1.7,1.3l-1.9,1.3l1-2.5l-2.9-0.2l-1.5-1.4l1.5-1.6l-2.9-0.2l-1.9-1.1l2.3-0.7l-1-2.2l1.4-1.8l1.4-2l2.7-0.5h2.9l-1.7-1.3l-2.5,0.7
	l-1-2.2l1.2-2.2l1-2.5l0.8-2.7l-1.4-1.8l-2.1-1.1l-2.3-0.7l-2.1-1.1l-1.7,1.6l-0.6-2.9l-2.3-0.7v-3.4l-0.2,1.3l-1.7,1.6l-2.1,0.9
	h-2.9l-2.3-0.9l-1.7,1.6l-2.7,0.2l-2.1,1.1l-1.9,1.1l-2.3,0.9l-1.9,1.1l-2.3,0.9l-1.9,1.3l-1.5,1.6l-1.4,2l-1.7,1.6l-1.9,0.9
	l-2.3,0.9l-2.7,0.5L756,221l-0.6-2.9l2.3-0.7l2.3-0.7l2.3-0.9l0.6-2.9l1.7-1.4l-2.7,0.2l-1.9-1.4l-1.2-2l1-2.2l1.7-1.8l2.3-0.7
	l1.4-2l1.5-1.8l1.4-1.8l1.5-1.8l-1-2.2l-1.4-2l-2.1-0.9l-1-2.5l-1.4,1.8l-2.5-0.7l-2.9-0.2h-1.4l-1,0.7l-1,2.2l-2.3,0.9l-1.5,1.8
	l-1.5,1.6l-1,2.5l-2.1,0.9l-2.1,0.9l-2.3,0.9l-2.1,1.3l-2.3,0.7l-1.5,1.6l-1.7,1.6l-0.8,2.5l-1,2.2l-1.5,1.8l-2.7,0.7h-2.9l-1.9,1.3
	l-2.5,0.4l-1.4-1.8l-2.9-0.2l-1.9,1.3l-0.8,2.5l-1.4,2v3.4l1,2.2l1.5,1.8l2.1,0.9l2.1,1.1l2.9,0.2l2.3,0.9l2.1-1.1l1.9,1.3l1.5,1.6
	l0.8,2.7l-1.2,2.2l-0.4,2.9l1.4,2l1.9,1.3l2.5,0.4h2.9l1.5-0.4l0.6-0.5l1-2.5l2.1-1.1l1.9-1.3l1-2.2l2.3-0.9l2.3-0.7l2.7-0.5
	l1.7,1.8l1.4,1.6l2.9,0.2l1.5,1.8h3.1l2.7-0.2l2.1-1.1l1.5,1.6l2.7,0.2l2.5,0.7l-1.2,2l-1.9,1.3l-0.2,3.2l-1.9,1.3l-1.5-1.8
	l-2.7,0.5l-2.1,0.9l-1.5,1.8l-2.1-1.1l-1.7,1.6l-2.3,0.9l-2.7,0.2l-2.1,1.1l2.5,0.7l-2.3,0.7l-1.2,2.2l-0.8,2.7l-2.3,0.9l-1.4-1.8
	l-1.9,1.4l1.5,1.8l-2.1,0.9l-1.2,2.2l-2.1,1.1l-2.1,0.9l-1.2,2.2l-1.5,1.8l-0.8,2.5l-1.9,1.1l-0.6,2.9l1.5,1.6l2.1,1.1l1.5,1.6
	l1,0.4l2.1,1.1l2.3,0.7l2.1,1.1l1.4,2l0.8,2.5l0.8,2.7l0.6,2.7l1.4,2l0.8,2.5l1.4,2.2l1,2l0.8,2.7l-0.2,3.4l1.9,0.9l2.1,1.1l2.1,1.1
	l0.2,3.2l2.1,1.1l1.9,1.3l1.4,1.8l-0.8,2.7l-2.3-0.9l-1.9-1.1l-2.9-0.2l-2.7,0.2l-1.4-1.8l-1.9-1.6l-2.3-0.4l-2.1,1.1l-1.9,1.1
	l-2.3-0.7l-1.4-2l-0.8-2.5l-2.5-0.4l1.5,1.8l1.4,1.8l1.4,1.8l2.5,0.7l2.3-0.7l2.3-0.9l2.1,1.1l1,2.5l2.5,0.7l1.9,1.1l1.5,1.8
	l1.9,1.3l1.9,1.1l1.7,1.6l1,2.5l0.6,2.7l-2.9,0.2l-2.3,0.7l-1.5,1.6l-2.3,1.1l-2.1,1.1l-0.8,2.5l-2.7-0.2h-3.1l-1.9,1.4l-1.7,1.6
	l2.3-0.4l2.9-0.2l1.5,1.8l2.5-0.7l1.9-1.3l2.3-0.9l2.3,1.1l1.4,1.8l1.5,1.8l2.3,0.9l1.7,1.4l-1.7,1.6l-1.5,1.8l-1.7,1.6l2.1-1.1
	l2.9-0.2l-1,2.5l1,2.2l-1.9,1.1l-0.4-2.9l-0.8,2.7l-2.1-1.1l-1.5,1.6l1.5,1.6l1.9,1.3l-2.5,0.7l1.9,1.1l-1.7,1.8l-2.7-0.2l-1.9-1.3
	l1.4,2l2.7,0.2l1,2.5l1,2.5l-2.9,0.2l-1.7,1.3l-1.9-1.3l-1.4,2.2l-1,2.2l-2.5-0.7l-1.7-0.9l1.7,1.3l0.6,2.9l-1.2,2.2l-0.4,2.9
	l-1.2,2l-1.7,1.6l-1.4-1.8L745,388l-0.4,3.2l-1.9,1.1l0.8,2.7l-2.9,0.2l1-2.5l-1.4,2l-1.4-1.8l-2.5,0.4l1.4,2l1.7,1.6l-1.7,1.3
	l2.1,1.1l-1.9,1.4l-1.5,1.8l-1.4,1.8l-2.3-1.1l-1.9-1.1l1.5,1.8l2.1,0.9l0.6-0.4l1.2-0.9l1.9,1.3l-1,2.5l-0.4,2.9v3.4l-1.7-1.3
	l-2.3-0.9l-1,2.2l1,2.5l-2.7,0.5l-1.5-1.6l-0.6,2.9l1.7,1.6l-2.3,0.7l-2.5,0.9l1.2,2l-1.5,1.8l-2.9-0.2h-2.9l-1.2,2l-2.7-0.5
	l-0.2,0.2l2.1,0.9l1.2,2.2l-1.7,1.8l-1.9,1.1l-1.5,1.8l-0.6,2.7l-1.2-2.2l-1.7,1.6l-1.7,1.6l-2.7,0.2l-1.5,1.8l-1.2,2.2l-2.7,0.2
	l1.2,2.2l-1.4,1.8l-1.5,1.8l-2.7,0.4l-2.1,0.9l-2.7,0.4l-2.3-0.9l-2.5-0.7l2.3,0.9l-0.6,2.9l-1.5-1.6l-2.3-0.9l-2.3,0.7l-1.4,2
	l-2.5,0.7l-0.8-2.5l-1.4,2l-0.8,2.5l-1-2l-2.5,0.7l-0.6,1.6l2.5,0.5l-1.4,1.8l-2.1-1.1l-2.5-0.7l1.7-1.6h-1l-0.6,0.7l-1.2-2.2
	l-1.5-1.8l-1.2-2l0.4-3.1l-1.5,1.6l-1.5,1.8l1.2,2.2l1.2,2.2l0.6,2.9l-0.8,2.5l-2.1-0.9l-1.4-2l-1.4-1.8l1.2,2l0.6,2.9l-1.4,1.6
	l-1.5-1.6l-0.8,2.7l-2.5,0.7l-1.7,1.3l-2.7,0.2l-1-2.5l0.6,2.9l-2.3,0.9l-2.3-0.9l-1.5-1.8l-0.4,3.2l-2.3-0.9l1.2,2.2l-2.5,0.7
	l-2.3,0.7l-2.5,0.4l-2.3,0.7l-2.5,0.4l-1.9,1.4l1.5-1.8l-1.9,1.3l-1.4,1.8l-1.4-2l-0.2,3.2l-2.1,0.9l-0.2,3.6l1.7,1.3l1.2,2.2
	l0.6,2.7l-1.5,1.6l-2.5,0.7l-2.9-0.4l-0.2-3.2l-1.2-2l-0.8-2.7l-0.6-2.7l0.8-2.5l0.8-2.7l1.7-1.3l-1.7-0.2l-1.7-1.4l-1.9-1.3
	l-0.8,2.5l-2.3,0.7l-1.5-1.6l-2.3-0.9l-1.4-1.8l-1.4,1.8l-1.4-1.8l-1.9-1.3l1,2.2l-1.5,1.8l-1.4-2.2l-1.5,1.8l-2.5,0.5l-0.2,0.9
	l-2.5,0.5l-1.7,1.6l-2.3,0.9l-0.8,2.5l-1.5,1.6l-2.9,0.2l-2.1,0.9l-2.1-0.9l0.8,2.7l-1,2.5l-1.2,2.2l-0.8,2.5l0.4,0.9l-2.1,0.9
	l-1.5,1.8l-1.9,1.1l-1.7,1.6l-1,2.2l-0.6,2.7v3.6l-1,2.5l-1.5,1.8l1.2,2l1.2,2.2l1,2.2l1.5,1.8l1.2,2l2.3,0.9l1.7,1.3l0.6,2.7
	l-1,2.5l1.7,1.4l1.2,2.2l1.4,1.8l1.7,1.6l1.7,1.3l1.2,2h0.2l1.4,1.8l1.5,1.6l1.4,2.2l1.9,1.1l1.7,1.3l1.2,2.2l2.3,0.7l1.4,2l1.5,1.8
	l1.5,1.6l1,2.5l1.2,2l1.5,1.6l1.9,1.3l0.4,3.2l0.6,2.7l1.2,2.2l0.6,2.7l0.6,2.9l1,2.2l0.6,2.9l0.8,2.5l-1,2.5v3.4l1,2.5l0.2,3.2
	l0.4,0.4l0.2,3.2l0.4,3.2l-1.5-1.6l-0.6,2.7l0.8,2.7l-1.7-1.6l0.6,2.9v3.4l-1,2.2l1.2,2l-1.2,2l-1.4,2l-1.7,1.6l-1.5,1.6l-2.3,0.7
	l-1.5,1.8l-1.5,1.6l-2.7,0.5l-1,2.2l-2.3,0.7l-1.9,1.4l-1.7,1.3l-2.3,0.9l-2.7-0.2l-2.3-0.9l-2.5-0.5l-1.9,1.1l0.2,0.9l2.5,0.4
	l-1.7,1.6l-2.7-0.2l2.1,0.9l1,2.2l-2.3,0.7l-1.5-1.6l1.4,1.8l1,2.5l-1.7-1.6l-1.5-1.6l-1.5-1.8l1.4,2l1.4,1.8l1.5,1.6l0.6,2.9
	l-2.7,0.5l-1.9-1.3l-1.5-1.8l-1.7-1.6l1.5,1.8l1.2,2.2l0.4,3.2l-0.2,0.7l-2.1,0.9l-2.1,0.9l-2.3,1.1l-1.7,1.1l-1.2,2.2l-1.2,2.2
	l-1.7,1.3l-1.9,1.1l-2.3-0.9l1.2-2l-1.2-2.2v-3.4v-0.2l0.2-3.4l0.4-3.2l0.8-2.5l2.3-0.7l-0.8-2.5l-2.1-1.1l-2.9-0.2l-1-2l-1.4-2
	l-0.2-0.2l-1.9-1.3l-2.7-0.5l-2.9,0.2l-2.7,0.5l-0.2-3.2l1.5-1.6l-0.6-2.7l-2.7-0.4l-0.8,2.7h-2.7l-0.8-2.5l-0.4-3.2l0.4-2.9
	l-1.5-1.6l1.2-2l-2.1,1.1l-0.6-2.5l-1.2-2.2l-1.2-2l-2.5-0.7l-2.3-0.7l-1.2-2.2l-1.2-2l-2.3-0.9l-1.4-1.8l-2.5,0.4l-2.1,0.9
	l-2.1-0.9l-1.4-0.2l-2.1,1.1l-0.8-2.7l0.2-3.2l0.2-3.2l0.4-3.2l-2.3-0.7l-2.5-0.5l-2.5,0.5l-2.7,0.4l-1.9,1.1l0.2,0.2l-0.8,1.4
	l1.5,1.8l-0.4,2.9l-1,2.7l0.2,3.4v3.4l-0.4,3.2l-1.4,1.8l-0.6,2.9l-1.4,2l-1,2.5l-0.4,2.9l-0.8,2.5l-0.8,2.5l-1,2.5l-1.2,2.2
	l-0.8,2.7l-0.6,2.7l-0.2,3.4l0.2,3.4l0.8,2.5v3.6l1.7,1.3h0.8l2.1-1.1l2.5-0.7l0.8,2.5l0.6,2.9l0.4,3.2l0.8,2.5l2.1,0.9l1,2.5
	l0.4,2.9l0.6,2.9l0.6,2.9l0.4,2.9v3.4l-0.2-3.1l-1-2.2l-1.5-1.8l-0.4,2.9l1,2.2l1.5,1.6l1.2,2.2l2.5,0.7l1.4,1.8l2.1,1.1l2.7,0.5
	l1.9-1.1l2.1,1.1l1.5,1.8l1.2,2.2l1.4,1.8l1.5,1.6l1.7,1.6l1.9,0.4l1.7,1.3l1,2.5l1.5,1.6l1.4,2l1.7,1.3l1.9,1.3l1.5,1.8l1.2,2.2
	l1,2.2l1.2,2.2l0.6,2.7l0.2,3.4l0.4,3.2l-1.2,2l-0.2,3.4l-0.2,3.4l1.2,2.2l0.2,0.4l-0.4,3.2v3.4l0.6,2.7l1.5,1.8l1.9,1.1l1,2.5
	l1.4,1.8l0.8,2.7l1.2,2.2l0.8,2.5l1,2.5l0.4,2.9l-2.1,0.9l-1.4-2l-2.3,0.7l-2.1,1.1l-1.7,1.6l-1-2.2l-1.4-1.8l-2.1-1.1l-1.9-1.3
	l-1.7-1.6l-2.1-0.9l-1.4-1.8v-0.2l-1.5-0.9l-2.1-1.1l-1.9-1.1l-1.5-1.8l-1.7-1.3l-1.7-1.6l-2.1-1.1l-1.4-1.8l-1.5-1.8l0.2-3.2
	l-0.8-2.5l-1.5-1.8l-1-2.5l-1.5-1.6l-1.5-1.8l-0.4-3.2l-1.7-1.3l-0.6-2.7l0.2-3.4l0.2-3.2l-1.5-1.8l-1.4-1.8l0.6-2.9l-0.4-2.9
	l-0.2-3.4l-0.2-3.4l-0.8-2.5l-1.2-2.2l-1-2.5v-0.4l-1.5-1.8l-1.4-2l-1.5-1.6l-1-2.5l-1.4-2l-1.2-2l-1.7-1.6l-0.6-2.7l-1.4-2
	l-1.9-1.1l-1-2.5l-2.3-0.9l-0.4-2.9l-1.2-2l-2.3,0.7l-0.8,2.7l-1.4-1.6l-0.8-2.9l0.2-3.2l0.6-2.9l0.8-2.7l0.2-2.9l1-2.7l0.8-2.5
	l0.2-3.2l1.2-2.2l1-2.2l0.6-2.5l-1,2.5l-1.7,1.6v-3.4l-0.2-3.4l-0.2-3.2l1.2-2l1.4-1.8l0.6-2.9l-0.4-2.9l0.4-2.9l0.6-2.7l-1.9,1.1
	l-0.8-2.7l1.2-2.2l-0.2-3.6l0.2-3.2l-0.2-3.2l-0.4-3.2l-0.4-3.1l-1.4-1.8l-0.6-2.5l-1.4-2.2l-0.8-2.5l-0.8-2.7l-0.2,3.4l-0.6,2.7
	l-0.2-3.2l-0.6-2.9l-0.2-3.4l-0.8-2.5l-1-2.5l0.8-2.7l-1.9-1.1l-0.2-3.4l-0.8-2.7l0.4-2.9l-0.4-2.9l-0.4-3.2l-1.5-1.8l0.6-2.7v-3.4
	l1.4-1.8l-2.7,0.5l-2.1-0.9l-1.2-2.2l-0.8-2.7l1-2.2l-1.9-1.4l-1.5-1.8l-1.4-2v0.7l-0.4,3.1l0.8,2.5l-0.8,2.7l-1.2,2l-1.5,1.8
	L450,541l-1.9-1.1l-1.2-2.2l0.8,2.7l-0.6,2.7l-2.1,1.3l-2.1,0.9l-1.7,1.6l-1,2.5l-1.4,1.6l-1.9,1.6l-0.6-2.9l0.2-3.4l-1,2.2
	l-0.6,2.9l-1.2-2l0.4-2.9l-1,2l-0.8,2.7l-2.1-0.9l0.4-3.1l1.2-2l-1.5,1.6l-1.5,1.6l1-2.2l-1,1.8l-1.9,1.3l1.2-2l0.4-3.2l-0.2-3.4
	l-0.8,2.7l-1.2,2l-1.4,2l-2.1,0.9v-3.4l0.4-2.9l1-2.5l0.8-2.5l0.6-2.7l0.8-2.9l0.8-2.5l0.4-2.9l-0.8-2.7l-0.8-2.5l-0.4-3.2l-0.6-2.9
	l-1.4-1.8l-0.8-2.7l-1-2.5l-1.4-1.8l-0.2-3.4v-0.4l-1,2.5l-1.9,1.3l-1.5-1.6l-1.2-2.2l-0.2-3.2l1.4,1.8l1.7,0.2l0.8,0.2l1.4-2
	l-1.5-1.6l-1.2-2.2l-2.1-1.1l1.2-2.2l-2.5-0.9l-1.7-1.6l-2.7-0.2l-0.2,3.4l-1-2.2l-0.4-3.4l0.4-3.2l-0.6,2.9l-2.5,0.4l1.9-1.3
	l-1.4-1.8l-1.4-1.8l-0.8,2.7l-1.4-1.8l-1.2-2.2l-1.4-1.8l-0.8-2.5l-0.4-0.7l0.4,2.9l-1.2-2.2l-1.2-2l-0.8-2.7l-1-2.2v-3.6l-0.6-2.7
	l-0.6-2.9l-1-2.2l-0.8-2.7l-1.2-2.2l-1.4-1.8l-0.8-2.7l-1.5,1.6l-2.7-0.5l-2.5-0.7l-2.3-0.7l-1.5-1.8l0.6-2.9l-0.6-2.7l-0.4-0.7H377
	l-2.3,0.4l-2.1-1.1l-1.7-1.6l-1.9-1.1l-1.4-1.8l-1.2-2.2l-0.8,2.7l-2.3-0.7l-2.5-0.7l2.5,0.9l2.3,0.7l2.3,0.9l1.4,1.8l2.5,0.7
	l1.4,1.8l2.5,0.9l1,2.2v3.4l1.4,2l-2.9,0.4l1.4,2l1,2.5l0.2,3.2l-1.4,1.8l-1.5,1.6h-0.2l-1,2.2l-1.9,1.3l-0.4-3.1l-2.1-0.9v-3.4
	l1-2.2l-0.6,0.7l-1.2,2.2l-0.6,2.9l0.6,2.9l-1.7,1.3l-2.1-1.1l0.6-2.7v-3.6l-1,2.5l-0.2,3.2l-2.1,1.1l-1,2.5l-1.2-2l-1.4-2l-1.5-0.2
	l1.4,1.8l-0.4,2.9l-1.7-1.6l-1,2.5l-1-2.5l0.4-3.1l-1.2-2l-0.6,2.9l-0.8,2.7l-0.4-3.2l-0.2,3.4l-1.9,0.9l-0.6-2.7l-0.2,3.4l-0.6-2.9
	l-0.8-2.5l0.8-2.7l-1.5-1.6l-0.6,0.2l-1.4-2l1.2,2.2l0.8,2.7l-1.2,2.2l-1.5,1.6l-1.9,1.3l-2.5,0.7l-2.3,0.7l-2.5,0.7l-1.5,1.6
	l-1.4,2l-0.2,3.4l1,2.5v3.4l-1.7,1.4l-0.6,2.9l-1.7,1.3l-1.5,1.8l-1.4,1.8l-2.1-0.9l1.7,1.3l-2.1,1.1l-2.3,0.7l-2.3,0.9l-2.9,0.2
	l-1.2-2.2l-1.7,1.6l-1.5,1.8L310,498l2.1-1.1l-1.7,1.3l-1.5,1.8l-1.7,1.3l-1.4,1.8l-1.2,2.2l-1.5,1.8l-1.4,2l-1.4,1.8l-1.5,1.8
	l-1.4,1.8l-1,0.9l-2.1,1.1l-1.9,1.1l-1.7,1.6l-1.5,1.8l-1.2,2l-1.7,1.4l-1.5,1.8l-1.9,1.1l-2.1,1.1l-2.1,1.1l-1.7,1.3l-1.5,1.8
	l-1,2.2l1.4,1.8l-1,2.2l-1.5,2l-1.9,1.1l-2.3,0.9h-2.9l-2.5-0.4l-1.7,1.8l-0.8,2.5l-1,2.2l-1.9,1.3l-0.8-2.7l-0.8,2.5l-2.7-0.5
	l-1.9,0.9l-1.7,1.6l-1,2.2l-1.2,2.2l-0.6,2.7l-0.2,3.4l0.6,2.9l0.4,2.9l0.6,0.4l-0.4,2.9l-0.2,3.4l0.8,2.7l0.2,3.2l0.8,2.7l-2.5-0.7
	l2.1,1.1l1.2,2l-0.4,2.7l-0.6,2.9l-0.4,3.2l-0.8,2.7l-1,2.2l-1.2,2.2l-1.2,2l-1,2.5l-0.6,2.9l-0.2,3.4l0.8,2.5l0.4,3.4l-0.2,3.4v3.4
	l0.2,3.4l-1.9,1.3l-2.1-1.1l-2.3,0.9l-1.4,1.8l0.2,0.7l-1,2.5l-1.2,2.2l-1.2,2l-1,2.5l1.4,2l2.3,0.7l1.9,1.1l-2.1-0.9h-2.9l-2.3,0.9
	l-1.9,0.9l-2.5,0.7l-1.7,1.6l-1.2,2.2l-0.8,2.5l0.4,1.1l-0.8,2.5l-1.7,1.6l-1.9,1.3l-2.1,0.9l-2.5,0.7l-2.1-1.1l-1.5-1.6l-1.7-1.6
	l-1.2-2l-1.5-1.8l-1.2-2l-1.2-2.2l-1.2-2l-1-2.5l-0.8-2.5l-0.4-3.2l0.4-2.9l0.8,2.7l0.8,2.5l-0.4-2.5l-0.4-2.2l-1.4-2l-1.2-2
	l-0.8-2.7l-0.8-2.5l-1-2.2l-1-2.5l-0.6-2.9l-1-2.5l-0.6-2.7l-1.5-1.8l-0.8-2.5l-1.4-2l-1.2-2l-1.9-1.4l-0.8-2.7l-1-2.2l-1.2-2.2
	l-0.8-2.5l-1-2.5l-0.4-2.9l-0.6-2.7l-0.6-3.2l-0.6-2.9l-0.6-2.7l-1.2-2l0.2-3.4l-1.4-0.9l-0.4-3.2l-1.4-2l-0.4-2.9l-2.5-0.7l-1.2-2
	l-0.4-3.2l-1-2.5l-0.4-2.9l-1.9-1.1l-0.8-2.5l-1.4-2l-0.8-2.7l-0.8-2.7l-0.4-2.9l-0.4-2.9v-3.6l-0.4-2.9l-1-2.5l-0.6-2.9l-0.6-2.7
	l-1-2.5l1-2.7l-1.5-1.8v-3.4l-1.2-2l1.4-1.8l-0.2-3.1l-1.7,1.6l-0.4-3.2l1.4-2l1.9,1.1l-0.2-0.4l-2.1-1.3l-0.8-2.5l-1.2-2.2
	l-0.6-2.7l0.6-2.9l0.6-2.9l1-2.2l0.8-2.7l0.4-2.9l-1-2.2l-1.7-1.6l-0.8-2.7l-0.2-3.2l1.9-1.3l1.9-1.1l1.9-1.3l-2.3,0.9l-2.9,0.2
	l-1.4-1.8l-0.8-2.7l0.8-2.7l2.3-0.9l-2.9-0.2l-2.5,0.4l-0.6,2.9l-1.2,2l-1.9,1.4l2.5,0.9l0.6,2.7l-1.4,2.2l-0.6,2.7l-2.3,0.9
	l-0.8,0.4l-1.9,1.1l-2.3,0.9l-1.7,1.3l-2.3,1.1l-2.3,0.7l-2.7,0.2l-2.3-0.9l-1.9-1.1l-1.7-1.6l-1.7-1.3l-1.5-1.8l-1.5-1.8l-1.2-2
	l-1.7-1.6l-1.5-1.6l-1.7-1.8l-1.5-1.6l-1.5-1.8l-1.4-1.8l-1.4-2l1.9-1.3l1.5,1.6l1.2-0.2l2.3-0.9l2.3-0.7l2.3-0.9l1.9-1.1l2.1-0.9
	l1.4-2l1-2.2l0.8-2.7l-1,2.2l-2.9,0.2l-2.5,0.7l-2.1,0.9l-2.7,0.5l-2.5-0.7l-2.5-0.7l-1.7-1.4l-2.1-1.1l-1.9-1.3l-1.4-1.8l-1.4-2
	l-0.2-3.2l1.7-1.6l1.7-1.6l-2.1,1.1l-1.9,1.1l-1.7,1.6l-0.6-2.9l-0.6-1.3l-1.2,2l-0.6-2.9l-0.2,2l-1.7-1.6l-1,1.4l-1.7-1.6l-0.8,0.7
	l-0.6-2.7h-1.4l-1.5-1.8l-0.2-3.4l-1.2-2l0.4-2.9l-2.5-0.7l-2.7-0.5l-1.4-1.8l0.6-2.9l-1.4-1.8l-1-2.2l-1.4-2l-1.9-0.2l-1.5,1.8
	l2.1-1.1l1.5,2l-2.7-0.7l-2.5,0.5l-2.7,0.4l-2.3,0.9l-2.5-0.4l-2.7,0.4l-2.7,0.4h-2.9l-2.3,0.7l-2.7-0.2l-2.5-0.7l-1.4-1.8l-1.7,1.6
	l-2.5-0.4l-2.3,0.9l-1.9,1.4l-2.5-0.5l-2.7,0.2l-2.5-0.4l-2.9,0.2l-2.1,1.1l-2.7-0.4l-2.1,1.3l-2.3,0.4l-1.5-1.8h-1.4l-1.5,1.6
	l-2.1-0.9l-2.5-0.7L8.4,415l-2.1-0.9l-1.5-1.8l-1.4,1.8L0.5,413.8z M740.7,328.3l0.4,1.8l1.4,2l2.1,1.1l2.3-0.7l1.4-2l-2.3,0.9
	l0.6-2.9l-0.4-2.9l-2.3-0.7l-1.9,1.3L740.7,328.3z M728.2,302.7l2.7,0.2l2.5-0.5l-0.6,2.9l-1.5,1.1l1.9,0.7l1.4-2l-0.8-2.7l-1.5-1.8
	l-1.4,1.8L728.2,302.7z M723.1,301.8l-1.5,1.8L720,302l-0.4-0.5l0.8,2.2l-2.1-0.7l-1.4,1.6l1-0.4h2.9l2.3-0.7l1-2.5l2.7-0.4l0.6-2.9
	l-1.9-1.1l-2.3-0.9l-1,2.5l-2.5,0.7l1.4,1.8L723.1,301.8z M715.2,303.2l1.5-1.6l2.7-0.2l-0.8-1.1l-2.5,0.5L715.2,303.2z
	 M890.6,129.9l1.4,1.8l-0.6,2.7l2.1,1.1l2.1,0.9l2.1-1.1l0.8-2.5l1.7-1.8l0.2-2.9l-1.7-1.6l-2.5-0.7h-3.1l-2.1,0.9L890.6,129.9z
	 M705.7,76.6l0.6,2.7l2.3-0.7l1.2-2.2l1.7-1.3l1.7-1.6l2.3-0.9l1.7-1.3l-2.7-0.5l-1.4-1.8l-0.2,0.2v-1.3l-1.7,1.3l-1.5,1.8l-1.5,1.8
	l-1.9,0.9L705.7,76.6z M548.1,27.1l1.7,1.4l1.9,1.3l-1.5-1.8l-1.5-1.6h-0.2L548.1,27.1z M496.6,52.1l2.1-0.9l1-2.7l1-2.2l1.7-1.3
	l0.6-2.9l0.8-2.7l-1.4-2l-1.4-1.8l-1.5,1.3V39l-2.1,1.1l0.6,2.9l-0.8,2.7v3.4L496.6,52.1z M492,246.4l-1.9,1.1l1.4,2l2.1,1.1
	l2.5,0.5l2.9-0.2l2.1,1.1l2.1-1.1l-0.4-3.1l-2.1-0.9l-1.4-2l-1.4-1.6h-0.2l-1.9-0.2l-2.7-0.2L491,244L492,246.4z M464.7,274.6
	l0.8,2.7l1.4-1.8l-1.4-1.8L464.7,274.6z M398.1,53.2l1,2.5l1.4,2l2.1,1.1l2.7-0.5l1.9-1.3l1.4-1.8l2.1-1.1l-1.9-1.1l-1.5-1.6
	l-0.8-2.7h-0.2l-1.7,1.6l-2.5,0.4l-2.3,0.9L398.1,53.2z M388,318.4l1.4,0.5l-0.6-2.9L388,318.4z M283.7,84.2l1.9,1.3l1.9,1.1
	l2.7,0.5l2.3,0.7l1.9,1.6l2.3,0.7l1.7,1.4l1.9-1.4l1.2-2l-2.1-1.1l-2.7-0.5l-1.9-1.1l-2.1-0.9l-1.2-2l2.1-1.1l-2.9-0.2l-0.8-2.7
	l-0.2-3.2l1.7-1.3l2.3-0.9l2.1-0.9l2.5-0.4l1.9-1.6l-2.3-0.7l-1.9-1.3l-1.7-1.6l-2.1-0.9l1.5-1.8l1.9-1.3l-2.1,1.1l-2.1,0.9h-3.1
	l2.1,1.1l2.1,1.1l2.1,0.9l1.9,1.4l1.2,2l-2.1,0.9l-2.5,0.5l-2.1,1.1l-2.1,1.1v3.4l-0.4,3.1l2.1,0.9l-1.7,1.6l-2.9,0.2L283.7,84.2z
	 M225.2,165l-2.5-0.2l1.5-1.8l-2.5,0.5H219l-2.5,0.7h-2.9l-2.7,0.5l-2.5,0.4l-2.5,0.4l-2.3,1.1l-2.7,0.2l-1,2.2l2.9,0.2l2.3,0.7
	l2.3,0.9l2.5,0.7l2.7-0.2h3.1l2.1-0.9l1.5-1.6l1.7-1.6l1.7-1.6L225.2,165z M164.8,121.8l2.1,1.3l1.4,1.8l1.5,1.8l1.9,1.1l0.6,2.9
	l1.5-1.8l-0.4-3.2l-0.4-2.9l2.1-1.1l0.6-2.7l0.4-3.2h2.9l2.1-1.1l1.2-2.2l1.2-2l2.9-0.5l2.5-0.4l1.4-2l1.5,1.6l2.7-0.4l2.9-0.4
	l2.5-0.5l2.5,0.7h3.1l2.1,0.9l2.9,0.2l2.7-0.5l2.3,0.7l2.1,0.9l2.7-0.2l1.9,1.1l2.5-0.7l2.3,1.1l1.9-1.3l2.9,0.2l2.1-1.1l1-2.2
	l1.4-2l-2.9-0.2l-2.3,0.7l-2.9-0.2l-2.5,0.7l-1.5,1.8l-2.3-0.7l-2.5-0.9l-2.7,0.2l-2.9,0.2l-2.3,1.1l-1.9-1.4l-2.5,0.7l-2.1-0.9
	h-2.9l-1.5-1.3l-2.7-0.7l-2.7-0.2l-2.7,0.5l-2.5,0.7l-2.9-0.2l-2.1-0.7l-2.7,0.5l-2.5,0.4l-1.4,2l-1.9,1.3l-1.9,1.1h-1.5l-0.4,2.9
	l-2.5,0.7l-2.3,0.9l-0.4,3.2l-1,2.2L164.8,121.8z M375,461.3l-0.4-0.2l-0.6,2.7L375,461.3z M416.1,496.9l0.2,2l1.2,2l0.6-2.9
	L416.1,496.9z M243.2,647.4l-0.4,0.4l2.3,0.9L243.2,647.4z M427.9,544.8l-1.5,1.6l-0.8,2.9l1.7-1.8L427.9,544.8z M416.5,674.8
	l-1.2,2.2l1.5,1.8l1.5,1.8l0.6-3.1l-1-2.5L416.5,674.8z M1173.6,65.3l-2.1,1.1l-1,2.2l2.7-0.2L1173.6,65.3z M415.3,506.6l-1.4,1.6
	l2.7,0.2L415.3,506.6z M1126.4,819.3l1.9,1.1l1.9,1.3l1.5,1.8l2.1,1.1l1.4,1.8l1.7,1.3l2.3,0.9l2.1,1.1l1.4,1.8l1.4,2l1.4,1.8l1,2.5
	l0.6,2.7l-0.2,3.4l1.4,2l2.3,0.7l1.2-2l0.6-2.9l-0.6-2.7l-1.4-2l-1.5-1.6l-1.9-1.3l-1.5-1.6l-1.7-1.3l-1.4-2l-1.7-1.6l-1.4-1.8
	l-2.1-1.1l-2.1-1.1l-1.5-1.6l-1.9-1.3l-2.5-0.7l-1.5-1.6l-1.9-1.3l-1.5-1.6h-0.2l0.2,3.2L1126.4,819.3z M1139.7,102l1.7-1.8
	l-0.6-0.2l-1.7,1.3l-1.7,1.6l-2.3,0.9l2.9-0.2L1139.7,102z M1150.9,1144.7l-0.4,2.9l0.8,2.5l0.4-1.6l0.8-2.7l1-2.5l1-2.2v-3.6
	l-0.2-3.1l-0.8,2.7l-0.6,2.9l-1.7,1.3L1150.9,1144.7z M413.6,663.4l0.4-2.9l-0.2-0.2L413.6,663.4z M381.8,453.7l1.2-1.4l-2.3-0.7
	L381.8,453.7z M387.8,455.5l1.2-1.3l-1.4-1.8L387.8,455.5z M412.6,491.2l-0.4,0.2l1.4,2L412.6,491.2z M379.3,450.7l-1-0.4l-1,2.5
	l1.2,2l-0.2,3.4l1,2.5l1.2-2.2l0.6-2.7l-0.8-2.5L379.3,450.7z M383.2,458.6l0.6,0.9l1-2.7l-1.5-1.6V458.6z M406.4,489.4l-0.2,0.2
	l1.4,2L406.4,489.4z M406.4,584.6l-1,2.5l-0.2,3.2l-0.4,3.2l-0.4,2.9l-0.6,2.9l1,2.5l-1.7,1.6l-0.4,2.9l-0.8,2.7l1.9,1.3l1-2.5
	l-0.6-2.9v-0.2l1.5-1.8l0.2-3.2l1.2-2.2l-0.2-3.1l-0.4-2.9l1.4-1.8l-0.4-3.1l0.6-2.7L406.4,584.6z M940.3,790.7l-1.7-1.8l-2.5-0.5
	l-2.5-0.4l-0.6,1.6l1.9,1.1l2.5,0.5l0.6,2.9l1.9,1.3l2.5,0.5l1.2-2.2l-1.9-1.1L940.3,790.7z M811.2,638.8l-1.7-1.6l-0.6,2l0.6,2.7
	l0.8,2.7l0.4,3.2l-1.9,1.3L806,649l-0.8,2.5l-1.5-1.6l-2.1-1.1l-0.4,3.2l-0.2,3.2l-2.5,0.7l-2.5-0.4l-0.8,2.5l-1,2.7l-2.7,0.2
	l-1.7,1.3l-2.1,0.9l1.7-1.4l0.6-2.9l-0.8-2.5l-1.4-2l-2.3-0.7l-1.9,1.1l-2.1,1.1l-1.9,1.1l-0.2,3.4l-1.9,1.1l-2.7,0.5l-2.3,0.7
	l-2.3,0.9l-1.4,2l-0.4,2.9l-0.8,2.5l-0.6,2.9l-1.5,1.8l0.6,2.7l2.3,0.9l1-2.2l0.8-2.5l1.4-2l1.2-2.2l0.8-2.5l2.1-1.1l1.2,2l0.8,2.7
	l2.1-1.1l1.4-2l0.6,2.9l2.5-0.5l1.2-2.2l0.6-2.7l2.5,0.9l1.7,1.3l2.1,0.9l1.2,2.2l1,2.2l-1.4,2l-1.4,2l-0.4,2.9l1,2.2v3.4l1.4,2
	l1.5,1.8l1.9,1.1l1.9,1.4l2.1,0.9l2.1,1.1l2.1-1.1l0.8-2.5l1.2,2.5l0.2,3.2l2.1,0.9l1.2-2l1.4-2l0.6-2.7l-0.8-2.5l-0.6-2.7l-1.9-1.3
	l-0.6-2.9l1.2-2l1.5-1.8l0.6-2.7l1.7-1.6l1,2.5l1.2,2l0.8,2.5l0.6,2.9l0.6,2.9l1,2.2l0.2-3.4l0.4-2.9l0.8-2.9l1.7-1.1l1.2-2.2
	l0.4-3.2l-0.2-3.2l-1.2-2.2l-1-2.5l1-2.5l-1.5-1.6l0.6-2.9l-1.5-1.8l-1.7-1.3l1.7-1.6l0.4-2.9l-1.4-1.8l-1.2-2.2l-1.4-2l-1.2-2
	l-2.3-0.9L811.2,638.8z M748.7,864.5l-0.6-2.7l-0.4-0.2l-0.4,3.2v3.4l0.8,2.7l0.4-3.1L748.7,864.5z M767.3,854.2l-0.8-2.5h-0.2
	l-1.7,1.4l0.6,2.9l1.7,1.3L767.3,854.2z M734.3,919.7l2.7-0.2l1.7,1.3l1.9,1.1l1.5,2l1.4,1.8l2.5,0.5l2.7-0.2l2.3-0.9v-3.4l-1.5-1.8
	l-1.5-1.6l-2.5-0.7l-1-2.2l-2.1-1.1l-1.9-1.3l-2.5,0.7l-2.9-0.2l-2.7,0.5l-2.5,0.7v3.2l1.9,1.3L734.3,919.7z M735.1,900.1l-0.4,0.2
	l0.2,2.9l1.7-1.6L735.1,900.1z M771.7,855.7l2.5,0.4v-3.4l1.2-2l0.6-2.9l-0.6-2.7l-1,0.2l-1.9,1.3l-1.7,1.6l0.8,2.5l-1,2.5
	L771.7,855.7z M785.1,799.7l0.8-2.2l-1.5-0.7l-2.3-0.9l-2.7-0.5l-2.1,1.1l-0.4,2.9l2.1,0.9l2.3-0.9l1.2,2.5l0.4-2.9L785.1,799.7z
	 M780,898.1h0.4l-0.2-0.2L780,898.1z M779.1,838.4l2.1,0.9l0.8-2.7l-2.3-0.7L779.1,838.4z M781.4,899.6l1.4-2.2l-2.3,0.7
	L781.4,899.6z M731.6,904.1l-1.7-1.3l-0.2-3.2l-1.5-1.8l-2.1,1.4l-0.8,2.5v-3.6l-2.7-0.5l-1.7,1.3l-1.4-1.8l-1.5-1.8l-2.9,0.2
	l-1.5,1.6l1.5,1.8l1.7,1.6l2.3,0.7l1.5,1.8l-2.7,0.4l-2.5,0.7l-1.5-1.8l-1.9-1.3l-2.5-0.7l-1.9-0.9l-1.4,0.4l-1.7,1.1l-2.1,1.3
	l0.4,3.2l-1,2.7l2.1,0.9l2.7,0.5l2.3-0.7l2.7-0.4l1.9-1.3l2.9-0.2l2.3-0.4l1.7-1.6l2.1-1.1l1,2.5l2.3-0.7h2.9l-1.9-1.3l2.5,0.7
	L731.6,904.1z M834.4,790.5l2.5,0.4l1.2-2.2l-1.9-1.3l0.6-2.7l-1.5-1.6l-1.9,0.2l-1,2.5l1.5,1.8L834.4,790.5z M835.8,767.8l-0.6,2.9
	l1,2.2l1.2,2.2l-0.2,3.2l-0.4,3.4l1,1.3l1.9,1.4l1,2.5l1.2,2l2.1,1.1l2.1,1.1l-1.7-1.6l-1.2-2l-1.4-2.2l-0.8-2.5l-0.8-2.7l-0.6-2.7
	l-0.2-3.4l1.2-2.2l2.5,0.5l2.5,0.7l1.9,0.9l2.5,0.7l2.1,1.1l-0.2-0.5l-1.9-1.3l-0.6-2.7l-2.1-1.1l-2.3-0.9l-0.6-2.9l2.1-1.1l1.7-1.3
	l1.4-2l0.6-2.7l-0.4-2.9l-2.5,0.5l-2.3,1.1l-1.7,1.3l-0.2,3.2l-2.3,0.9l-0.8,2.7l-2.3,0.7l-0.6-2.7l1.5-1.6l1.7-1.6l0.8-2.7l0.2-1.3
	l-0.4-3.2l-1.9-1.3l1.2-2l0.8-2.7l-1.9,1.1l-1.5,2l-1.2,2l-1,2.5l-0.4,3.2l-1,2.2l-0.6,2.9l1.4,2.2L835.8,767.8z M808.7,912l2.3-0.9
	l2.3-0.7l2.5-0.7l1.7-1.3l2.5-0.5l2.3-0.9l1.5-1.8l2.5-0.4l1.9-1.1l1.7-1.6l1.7-1.6l-1.7-1.6h-2.9l-2.3,0.9l-2.7,0.5l-2.5,0.4
	l-2.5,0.7l-2.5-0.7l-2.3,0.7l-2.5,0.7l-2.5,0.5l-2.1,1.1l-1.2,2.2l-1.4,1.8l-1.9,1.3l-1.7,1.4l-1.7,0.4l-2.5,0.7l-1.9,1.1l-2.1,1.3
	l-1.5,1.6l-1.7,1.6v3.4l-1.2,2.2l2.3,0.7l-1.9,1.3l-1.4,2l2.1,0.9l2.7-0.4l1.9-1.1l2.1-1.1l2.7-0.2l1.4-2l1.9-1.4l1.4-1.8l1.5-1.8
	l1-2.2l1-0.7l1.9-1.4L808.7,912z M764.9,928.9l-1.7,1.6l0.6,0.7L764.9,928.9z M805,989.2l0.8-2.7l-1,2.5L805,989.2z M767.6,904.6
	l2.7-0.2l2.7-0.2l2.1-1.1l2.1-1.1l0.6-2.7l1-2.5l-2.7-0.7l1.5,1.8l-1.9,1.1l-2.1,1.1l-1,2.5l-2.5,0.4l-1.9-1.3l-1.7-1.6l-2.3,0.9
	l-2.3,0.7l-2.5,0.7l-1.5-1.8l-2.3-0.7l-2.1-1.1l-2.7-0.4l-2.3-0.7h-2.9l-1.7,1.6l-2.1,0.9l-1.7,1.6v3.4l2.7,0.4l2.7,0.2l2.7-0.2
	l2.5,0.5l2.5,0.7l2.5,0.5h2.9l1.9-1.4l2.5,0.5l2.7-0.5L767.6,904.6z M826.5,719.2l1.2-2.2l-0.6-2.7l-1.5-1.1l-0.6,2.9l1,2.5l-1,2.5
	L826.5,719.2z M831.7,782.4l-0.4-0.2l-1.4,2l1.7,1.6V782.4z M830.9,788l1.5,1.8l-1-2.5L830.9,788z M816,810.3l-0.4-3.2l-1.2,1.1
	l0.8,2.7l1.7,1.6L816,810.3z M814.7,893.3l2.1-1.1l2.7,0.5h2.9l1.4-1.8l1.2-2l-2.3-0.9l-1.9,1.1l-2.5,0.7l-2.3-0.9l-0.8,1.4
	L814.7,893.3z M839.1,399.4l1.2-1.8l2.1-1.3l1.7-1.4l0.4-3.1l-0.6,0.7l-1.5,1.8l-2.7,0.2l-0.8,2.7l-1.2,2.2l0.8,2.9L839.1,399.4z
	 M764.9,583.7v3.4l2.3,0.9v-3.6l-1.9-0.9L764.9,583.7z M820.5,823.1l-2.7,0.4H817l-0.6,2.9l1.2,2.2l1.4,1.8l1.9,1.3l2.1,1.1l2.3,0.7
	l2.3-0.7l1.9-1.3l1.9-1.4v-3.4l-1.5-1.6l-1.5-1.6l-2.1-0.9l-3.1-0.2L820.5,823.1z M765.9,600.4l1.4,1.8l0.8-2.9l0.4-2.9l-1.9,1.1
	L765.9,600.4z M786.6,900.1l1.7-1.3l1.7-1.8H787l-1.2,2.2l-1.7-1.6l-0.8,2.2l-1.4,1.8h2.9L786.6,900.1z M777.1,848.1l-0.6,2.9
	l-0.2,3.2l-1.5,1.6l-1,2.5l1,2.2l2.3-0.7l0.6-2.9l2.5-0.4l1.2-2.2l-1.5-1.6l-1.2-2.2l0.8-2.5l2.3-0.9l-0.6-2.9l-1.2-2l-1.5,0.4
	l-1.2,2.2L777.1,848.1z M793.6,898.1l-2.3,0.7l0.4,1.3l1.7,1.4L793.6,898.1z M780.4,934.5l1.9-1.3l1.9-1.3l-1.4-2l-1.7,1.3l-1.5,1.8
	l-2.3,0.7l-0.6,0.7l1.7,1.3L780.4,934.5z M808.9,804.2l-0.8,0.7l1.5,1.6l2.9-0.2h2.9l2.5-0.4l2.1-0.9l-2.7-0.2l-2.9-0.2l-2.9,0.2
	l-2.5-0.5H808.9z M804.2,803.6l-2.3-0.7l-2.5-0.7l-2.7,0.2l-0.6,0.4l-0.6,2.9l1.7,1.8l2.5-0.7l1.9-1.1h3.1l1.7-1.4L804.2,803.6z
	 M812,729.1l-1.2-2l-1.7-1.4l1.2,2l1.7,1.6V729.1z M799.8,896.2l-2.5-0.4l-0.2,2l-0.8,2.5l2.7-0.5l2.7-0.2l2.7-0.4l1-2.2l-2.5-0.7
	H799.8z M858.8,282l0.4-2.9l-1.4,0.7l-1,2.5l1,2.5L858.8,282z M1074.7,146.8l-1.4,2l1.5-1.8L1074.7,146.8z M1124.6,922.3l1.5,1.8
	l2.7,0.4l0.4-3.2l-2.9,0.2l-1.5-1.6l-1.7-1.6l0.6,1.6L1124.6,922.3z M1127.5,900.1l-1.5,1.6l1.4,1.8L1127.5,900.1z M844.5,749.6
	l1.2-0.5l2.3-0.9l1-2.5l0.4-3.2l-1.4-1.8l-1.9,1.3l-1.4,1.8l-0.8,2.7L844.5,749.6z M1079.5,136.2l1.7-1.6l1.9-1.3l1.2-2.2h2.9
	l1.7-1.6l1.9-1.3l2.1-0.9l2.3-0.9l2.7-0.2l0.6-2.9h-0.8l-2.1,0.9l-1.7,1.6l-2.1,1.1h-2.9l-1.2-2l-0.8,2.9l-1.9,1.1l-2.5,0.7l-1.2,2
	l-2.1,1.3l-1,2.2l-2.1,0.9l-0.4,3.2l1.5-1.8L1079.5,136.2z M1004.4,127h-0.2l-0.4,0.7l2.3,0.7L1004.4,127z M1059.6,146.6l1.9-1.1
	l1.5-2l1.7-1.3l2.1-0.9l1.9-1.3l1.9-1.4l-2.7,0.5l-2.1-1.3v0.2l-1.4,1.3l-1.4,2l-1.5,1.6l-1.5,1.8l-1.7,1.6l-1.5,1.6l1.7,1.3
	L1059.6,146.6z M1012.3,33.6l1.4,1.8l1.5,1.8l1.2,2.2l1,2.2l-0.4,3.2l-1.4,2l-0.4,2.9l0.6,2.7l0.6,2.7v3.6v3.4l-0.2,3.1l-0.8,2.5
	l-0.6,3.1l-0.4,2.9l-1.4,2l0.4,2.9l1.4,2l1.4,2l0.4,2.9l-0.4,3.1l-1.4,2l-0.8,2.5l0.2,3.2l0.8,2.7l-0.4,2.9l-1.2,2.2l-1,2.5
	l-0.2,3.2l1,2.5l0.2,3.2l1.5,1.6l1.7-1.4l0.8-2.7l0.8-2.5l1.2-2.5l1.4-1.8l2.1-0.9l1.4,2l2.9,0.2l2.7,0.5l1.2,2l1,2.5l1.9-1.1
	l-0.4-3.2l-0.4-3.2l-2.5-0.7l-2.7-0.2l-0.4-3.2l-0.6-2.9l-1.4-1.8l-2.1-0.9l-1.4-2.2l-1-2.2v-3.6l0.8-2.7l1-2.2l1-2.7l1-2.2l1.2-2.2
	l0.4-2.9l1.2-2l1.9-1.1l2.5-0.7l3.1-0.2l-2.9-0.2l-2.3-0.7l2.7,0.2l2.7,0.4l2.5,0.7l2.3,0.7l1.9,1.3l1.5,1.8l1.9,1.1l1.4,2l1,2.2
	l-0.2-3.4l-1.9-1.1l-1.7-1.6l-1.2-2.2l-0.8-2.5l-0.8-2.7l-0.6-2.7l-1.2-2.2l-1-2.5l-1.4-1.8l-1-2.5l-0.8-2.5l-0.4-2.9l-1-2.7
	l-0.4-2.7l-1.4-2.2l-0.2-3.2l-2.5-0.7l1-2.2l-1-2.5l-1.2-2l0.2-2.9l0.4-3.2l1.7-1.8v-3.1l-0.2-3.4l-0.8-2.7l-0.8-2.5l-1-2.5
	l-1.7-1.6l-0.6-2.7l0.8-2.7l-1-2.5l-1.4-1.8l-2.1,1.3l-2.9-0.2l1.4,2l1.5,1.6l0.8,2.7l1.4,1.8l-2.7,0.4l1.4,2l-1.9,1.3l-2.1,1.1
	l-1.4-1.8l-2.7,0.2l-2.1,1.1l-0.4,3.2v0.2l1.2,2.2l-0.6,2.9l-0.8,2.7l-0.8,2.5l-1,2.5l-0.4,3.2l0.8,2.7L1012.3,33.6z M1075.1,810.1
	l2.7-0.2l1.9-1.1l1.5-2l-1.7,0.9l-2.5-0.7h-3.1l-2.3,0.7l-0.4,2.9l1.7-1.6L1075.1,810.1z M1061.5,558.7l-0.8,2.5l1-2.2L1061.5,558.7
	z M1050.3,582.2l-1.4,1.8l-1.7,1.6l1.4,1.8l1-2.5L1050.3,582.2z M967,640.4l-1,2.2l1.2-2L967,640.4z M1118,913.1l-1.5-1.8l-0.6-0.2
	l-0.6,2.7l1.5,1.6L1118,913.1z M1125.2,917.4l-1.4-2.2l-2.1-0.7l-1.9-1.3l-0.8,1.6l0.8,2.5l2.5,0.4L1125.2,917.4z M1078,853.3
	l-1.5,1.8l2.9,0.5L1078,853.3z M1089.6,861.6l-0.6-2.7l-2.1-1.1l-1,1.1l1.2,2L1089.6,861.6z M990.7,172.9l0.8,2.5l-1.2,2.2l-0.8,2.5
	l1.2,2l2.3-0.7l2.1-1.1l1.2-2.2l1.5-1.8l2.1,0.9l2.5,0.7l2.1-1.1l-2.1-1.1l-1.7-1.6l-1.5-1.6l-2.9-0.2l-1.7-1.3l-1.4-2l1.2-2.2
	l2.1-1.1l2.5,0.5l1.7,1.6l1.5,1.6l1.7-1.4l2.1-1.1l1.9-1.1l2.7-0.4l2.3,0.7l1.9,1.3l2.1,0.9l1.9,1.3l2.1,0.9l2.1,1.1l2.3,0.9
	l2.1,0.9l2.7,0.5l0.4-3.2l1-2.2l1.4-2l1.4-1.6l1.9-1.6l1.5-1.6l2.1-1.1l2.3-0.7l2.3,0.7l3.1,0.2l1.5-1.8l2.3,0.9l1.4-2l2.5-0.7
	l2.7-0.5l1-2.2l-1.5,1.8l-1.9-1.3l-1-2.2l-1.4-2l-0.8-2.7l0.8-2.5l1.4-2l0.6-2.7l-1.5,1.8l-1.9,1.1l-1.5,1.8l-2.1,1.1l-2.7-0.2
	l-2.3-0.9l-2.7-0.4l-1.7-1.6l-2.9,0.2l-1.5-1.8l-2.1-0.9l-1.9-1.6l-1.9-1.1l-1.7-1.3l-1.7-1.6l-1.5-1.8l-1.5-1.8l-1.4-1.8l-1.7-1.6
	l-1.5-1.8l-1.9-1.4l-1.4-1.6l-0.2-0.2l-1.7,1.3l-1.9,1.3l-0.4,2.9l1.2,2.2l1,2.5v3.4l-0.8,2.7l-0.8,2.7l-0.2,3.4l-1.4,1.6l-2.1,1.3
	v3.4l1,2.5l-1.4,1.8l-2.1,1.1l-2.1-1.1H999l-1.9-1.3h-2.9l0.8,2.5l1.2,2.2l-1.7,1.3l-1.9,1.4l-1.9,1.3l-2.3,0.7l-0.4,3.2l-0.8,2.7
	l1.5,1.6L990.7,172.9z M841,895.8l-2.5-0.5l0.2,1.3L841,895.8z M843.7,829.7l-2.3,0.7l-0.8,2.7l2.5-0.7L843.7,829.7z M842.6,801.1
	l-1.9-1.1l-2.3-1.1l-2.1-0.9l-1.7,1.3h-0.2h-0.4l-0.2,3.4l2.3,0.9l2.5-0.5l2.9,0.2L842.6,801.1z M861.1,893.1l1.9,1.1l0.8-2.9
	l-2.7-0.5V893.1z M853.6,379l-1.2-2l-0.4,0.5L853.6,379z M849.9,275.5l-1.2-0.2l-1.5,1.6l1.9,1.1L849.9,275.5z M849.1,819.5
	l-2.9,0.2h-2.9l-1.2,2l-1.5,1.6l-1,2.2l0.8,2.7l1.2-2.2l1.9-1.4l1.5,1.6l1.4,2l2.9-0.2l1.2-2l2.5-0.7l1.9,1.6l2.3,0.9l2.3,0.7l1-2.2
	l2.9,0.2l1.7,1.3l1.9,1.3l2.1,1.1l2.1,0.9l1.7,1.6h2.9l0.4-2.9l-1.2-2.2l-1.7-1.3l-0.6-2.7l-1.9-1.3l-2.5-0.4l-2.9-0.2l-2.3-0.9
	l-1.9-1.3l-2.5-0.5l-1.7,1.3l-2.7,0.5l-2.3-0.9L849.1,819.5z M849.9,309.2l2.1-0.9l-1.2-2l-1.7,1.6L849.9,309.2z M878.8,288.5
	l1.9,1.3l2.5-0.7l2.3-0.7l2.3,0.9l2.3,0.7l1.4,2l1-2.5l1-2.5l0.8-2.7l2.3-0.7l1,2.5l2.5-0.7l1.9-1.1l2.3,0.7l2.1-0.7l1.7-1.8
	l2.3-0.7l2.7,0.2l1.5-1.8l2.7-0.2l1.7-1.3l2.3-0.7l3.1-0.2l1.9,1.4l2.5,0.7l2.1-1.1l2.1,1.1l-1,2.2l-1.7,1.6l-1.5,1.6l0.4,2.9
	l0.4,3.1l1.9,1.4l1,2.2l2.1,1.1l2.7,0.4l1.7-1.3l1.2-2.2l1-2.2l1.9-1.3l0.6-2.7l2.3-0.9l1.9-1.3h2.9l-1-2.5l-1.9-1.1l-1.7-1.6
	l1.2-2.2l1-2.5l2.7-0.4l-0.6,2.7l1,2.2l0.6-2.9l1.4,2l2.3,0.9l-1.7,1.6l2.3-0.9l2.7-0.2l2.7,0.2h2.9l2.7-0.7l1.5-1.6l1.4-2l1.4-1.8
	l2.3-0.9l1.9,1.6l-1.5,1.8l-0.4,2.9l2.3,0.7l1.4-1.6l1.2-2.2l0.2-3.4l1.2-2l3.1-0.2l2.5,0.4l-0.4-2.9l1.2-2.2l2.5-0.4l1.2,2
	l-1.7,1.3l-0.6,2.9l-0.6,2.7l1.5,1.6l1.5-1.8l2.1-0.9l1.9-1.3l0.2-3.4l1.2-2l1.9-1.3l2.3-0.9l-1.4-2l-1.4-2l-0.8-2.5l0.6-2.7
	l0.6-2.9l0.8-2.5l1.2-2.2l1.7-1.3l0.4-3.2l0.4-2.9l-0.2-3.4l-0.8-2.5l-0.4-3.2l1-2.5l1.9-1.3l1.9-1.3l2.9,0.2l-0.8-2.7l0.6-2.9
	l1.7-1.3l1.2-2l1.4-2l0.6-2.7l1.5-1.8l-1-2v-3.4l-0.8-2.5l-1.2-2.2l-0.8-2.7l-1.4-1.8l-2.1-1.1l-0.6-2.7l-0.2-3.4l0.2-3.2l0.4-2.9
	l-2.1,0.9l-1.7-1.3l-0.6-0.4l-2.1-0.9l-1.2,2.2v3.4l2.7-0.5h2.9l-0.8,2.9l-1.9,1.1l-2.5-0.7l-1.5,1.6l-1-2.5l-0.4-2.9l-2.7-0.2
	l-1.7,1.6l0.4,2.9l-1.4,2l-2.3,0.7l-1.2,2.2l0.8,2.7l0.2,3.4l-1.2,2.2l-1.9,1.3l2.9,0.2l1.2,2.2v3.4l-1,2.5l-1,2.2l-1,2.7l-0.8,2.5
	l-1.5,1.8l-1.2,2l-1.2,2.5l-0.4,2.9l-1.5,1.8l-2.1,1.1l-2.1,0.9l-1.7,1.6l-0.8,2.7l-1.5,1.6l-1.4,2l-1.9,1.4l-1.9,1.3l-2.3,0.7
	l-2.1,1.1l-2.3,0.7l-2.5,0.7l-1.2,2.2l-2.7,0.2l-1.7-1.6l0.6-2.7l-2.1-1.1l2.3-0.9l1.9-1.1l0.2-3.4l-2.1,1.1l-2.3,0.7l-1.7,1.6
	l-0.2,3.4l0.4,2.9l-1,2.2l-1.4,2l-1.5,1.8l-1.7,1.6l-1.9,1.1l-1.4,2l-0.4,2.9l1.2,2.2l-1.5,1.8l-1.9,1.3l-2.7,0.2l-2.5,0.4l-2.3-0.7
	l-0.2-3.6l-1.9,1.1l-2.5,0.7h-2.9l-2.5,0.5l-2.1,1.1l-2.9,0.2l-2.7,0.4l-2.5-0.4l-2.1,0.9l-1.7-1.6l-2.7,0.5l-2.5,0.7l-2.1,0.9
	l-1,2.2l-1.9,1.3l-1.5,1.8l-1.9,1.3l-1.5,1.6l-1.7,1.6l-2.1,0.9l-1.9,1.3l-1.5,1.8l-2.1,1.1l-2.5-0.4l-1.9,1.1l-0.4,3.2l0.8,2.7
	L878.8,288.5z M863.7,302.7l1.4,1.8l-1.9-1.1l-1.4,1.8l1.7,1.8l-0.8,2.5l1.9-1.1l1.7-1.6l1.4,2l2.3-0.7l-0.6-2.9l-1.4-1.8l0.8-2.7
	l1.9,1.3l0.8,2.7l1.5,1.6v1.6l-0.6,2.9l-1.2,2l-1.2,2.2l-1.9,1.1v3.4l0.8,2.5l0.8,2.7l-1.9,1.6l1,2.2l2.9,0.2l0.4-2.9l1-2.5l1.7-1.3
	l-1.5,1.6l1.4,2l1,2.2l-0.8,2.5l2.9-0.2l1.5-1.6l0.4-3.1l1.9,1.1l1.2-2l1.2-2.2v-3.6l0.8-2.5l0.8-2.7l0.8-2.2l1.2-2.2l1.5-1.6l1.4-2
	l0.2-3.2l-2.1-0.9l-1.5-1.6l-2.5-0.9l1.7-1.6l1.2-2l-1.5-1.6l-1.9,1.4l-2.9-0.2l-2.1-1.1l-0.8-2.5l-2.1-1.1l-2.5,0.7l-1.9,1.1
	l-1.4,2l-2.3,0.9l-1.4,1.8l-2.1-0.9l-0.4,3.2l-2.5-0.7l0.6,3.2L863.7,302.7z M857.7,370.2l-0.8,2.7l1.9-1.3l1.7-1.4l1.4-2l-0.2-0.2
	l-1.7,1.4L857.7,370.2z M971.3,232.3l-1-2.5l1-2.5l-0.6-0.4l-1.5,1.6l-0.6,2.9l1,2.5L971.3,232.3z M939.4,802.2l-2.9-0.2l-2.5-0.4
	l-0.2,1.3l2.7,0.2l2.3,0.9l2.1,1.1l2.1,0.9l2.9-0.2l2.5-0.5l1.7-1.6l-2.9-0.2l-2.9-0.2l-2.1-0.9L939.4,802.2z M857.5,285.6l-1.5-0.9
	l0.4,3.2L857.5,285.6z M860,298.9l-0.4-0.4l-1,2.5L860,298.9z M854.6,301.8v3.6l0.4-2.9L854.6,301.8z"/>
<linearGradient id="SVGID_2_" gradientUnits="userSpaceOnUse" x1="0" y1="661.0888" x2="1539.8125" y2="661.0888">
	<stop  offset="0" style="stop-color:#4891DC"/>
	<stop  offset="0" style="stop-color:#FFFFFF;stop-opacity:0"/>
	<stop  offset="0.5273" style="stop-color:#FFFFFF;stop-opacity:0.6"/>
</linearGradient>
<rect y="-11.2" class="st1" width="1539.8" height="1344.6"/>
</svg>
