<svg id="Layer_1" data-name="Layer 1" xmlns="http://www.w3.org/2000/svg" viewBox="0 0 500 200"><title>primary-logotype-black</title><path d="M19.63,24.06V24A11.37,11.37,0,0,1,31.35,12.71c6.7,0,11.66,5,11.66,11.22V24A11.37,11.37,0,0,1,31.29,35.29C24.59,35.29,19.63,30.29,19.63,24.06Zm17.21,0V24a5.6,5.6,0,0,0-5.55-5.86,5.54,5.54,0,0,0-5.52,5.8V24a5.64,5.64,0,0,0,5.58,5.86A5.53,5.53,0,0,0,36.84,24.06Z"/><path d="M72.09,13.15,65,23.72,72.4,34.85H65.48l-4.16-6.57-4.19,6.57H50.38l7.44-11L50.69,13.15h6.91l3.81,6.11,3.91-6.11Z"/><path d="M82.16,13.15H99.52v5.27H88.17v3.69H98.44v5H88.17v7.75h-6Z"/><path d="M109.07,24.06V24a11.37,11.37,0,0,1,11.72-11.29c6.7,0,11.66,5,11.66,11.22V24a11.37,11.37,0,0,1-11.72,11.29C114,35.29,109.07,30.29,109.07,24.06Zm17.21,0V24a5.6,5.6,0,0,0-5.55-5.86,5.54,5.54,0,0,0-5.52,5.8V24a5.64,5.64,0,0,0,5.58,5.86A5.53,5.53,0,0,0,126.27,24.06Z"/><path d="M143,13.15h10.26c3.32,0,5.61.87,7.07,2.33a6.78,6.78,0,0,1,1.92,5.05v.06a6.88,6.88,0,0,1-4.46,6.7L163,34.85H156.1l-4.37-6.57h-2.67v6.57h-6Zm10,10.42c2,0,3.22-1,3.22-2.57v-.06c0-1.74-1.27-2.6-3.26-2.6h-4v5.24Z"/><path d="M172.83,13.15h8.4c7.72,0,12.22,4.46,12.22,10.73v.06c0,6.26-4.56,10.91-12.34,10.91h-8.28Zm6,5.3V29.52h2.45c3.63,0,6-2,6-5.49V24c0-3.47-2.39-5.52-6-5.52Z"/><path d="M219.92,25.33V13.15H226V25.21c0,3.13,1.58,4.62,4,4.62s4-1.43,4-4.46V13.15h6.08v12c0,7-4,10.08-10.17,10.08S219.92,32.12,219.92,25.33Z"/><path d="M251.17,13.15h5.61l8.93,11.47V13.15h6v21.7h-5.24l-9.3-11.91V34.85h-6Z"/><path d="M283.16,13.15h6v21.7h-6Z"/><path d="M298.94,13.15h6.7l4.93,13.74,5-13.74h6.57L313.29,35h-5.58Z"/><path d="M331.71,13.15h17.46v5.08h-11.5v3.32h10.42v4.74H337.66v3.44h11.66v5.12H331.71Z"/><path d="M359.92,13.15h10.26c3.32,0,5.61.87,7.07,2.33a6.78,6.78,0,0,1,1.92,5.05v.06a6.88,6.88,0,0,1-4.46,6.7l5.18,7.57H373l-4.37-6.57h-2.67v6.57h-6Zm10,10.42c2,0,3.22-1,3.22-2.57v-.06c0-1.74-1.27-2.6-3.26-2.6h-4v5.24Z"/><path d="M388.06,31.63l3.35-4a11.24,11.24,0,0,0,7,2.6c1.64,0,2.51-.56,2.51-1.49v-.06c0-.93-.71-1.4-3.69-2.11-4.62-1.05-8.19-2.36-8.19-6.79v-.06c0-4,3.19-6.95,8.4-6.95a13.66,13.66,0,0,1,8.93,2.88l-3,4.25a10.65,10.65,0,0,0-6.08-2.14c-1.46,0-2.17.59-2.17,1.4v.06c0,1,.74,1.43,3.78,2.11,5,1.08,8.06,2.7,8.06,6.76v.06c0,4.43-3.5,7.07-8.77,7.07A15.22,15.22,0,0,1,388.06,31.63Z"/><path d="M417.58,13.15h6v21.7h-6Z"/><path d="M440.36,18.42h-6.48V13.15h19v5.27h-6.51V34.85h-6Z"/><path d="M469.32,26.73,461,13.15h6.85l4.46,7.91,4.5-7.91h6.73l-8.25,13.49v8.22h-6Z"/><path d="M62.81,140.85H49.39l-2.3-15.36H30.76l-2.3,15.36H16.25L29.8,56.2H49.27ZM32.46,114H45.28L38.87,71.2Z"/><path d="M86.87,55.24c12.94,0,19.59,7.74,19.59,21.28v3.27H93.89V75.67c0-6-2.42-8.34-6.65-8.34s-6.65,2.3-6.65,8.34c0,17.41,26,20.68,26,44.86,0,13.54-6.77,21.28-19.83,21.28s-19.83-7.74-19.83-21.28v-5.8H79.5v6.65c0,6,2.66,8.22,6.89,8.22s6.89-2.18,6.89-8.22c0-17.41-26-20.68-26-44.86C67.28,63,73.94,55.24,86.87,55.24Z"/><path d="M114.2,56.2h13.3v84.65H114.2Z"/><path d="M180.23,140.85H166.8l-2.3-15.36H148.18l-2.3,15.36H133.67L147.21,56.2h19.47ZM149.87,114h12.82L156.28,71.2Z"/><path d="M184.58,92.48h24.19v12.09H184.58Z"/><path d="M257.26,77.12v11c0,13.54-6.53,20.92-19.83,20.92h-6.29v31.8h-13.3V56.2h19.59C250.73,56.2,257.26,63.58,257.26,77.12ZM231.14,68.3V97h6.29C241.66,97,244,95,244,89V76.28c0-6-2.3-8-6.53-8Z"/><path d="M304.9,140.85H291.48l-2.3-15.36H272.86l-2.3,15.36H258.35L271.89,56.2h19.47ZM274.55,114h12.82L281,71.2Z"/><path d="M349.52,109.29v11.25c0,13.54-6.77,21.28-19.83,21.28s-19.83-7.74-19.83-21.28v-44c0-13.54,6.77-21.28,19.83-21.28S349.52,63,349.52,76.52v8.22H336.95V75.67c0-6-2.66-8.34-6.89-8.34s-6.89,2.3-6.89,8.34v45.71c0,6,2.66,8.22,6.89,8.22s6.89-2.18,6.89-8.22V109.29Z"/><path d="M357.63,56.2h13.3v84.65h-13.3Z"/><path d="M393.9,93.81h17.17V105.9H393.9v34.95H380.6V56.2h35.19V68.3H393.9Z"/><path d="M422.2,56.2h13.3v84.65H422.2Z"/><path d="M483.75,109.29v11.25c0,13.54-6.77,21.28-19.83,21.28s-19.83-7.74-19.83-21.28v-44c0-13.54,6.77-21.28,19.83-21.28S483.75,63,483.75,76.52v8.22H471.17V75.67c0-6-2.66-8.34-6.89-8.34s-6.89,2.3-6.89,8.34v45.71c0,6,2.66,8.22,6.89,8.22s6.89-2.18,6.89-8.22V109.29Z"/><path d="M156.82,183.63l3.35-4a11.24,11.24,0,0,0,7,2.6c1.64,0,2.51-.56,2.51-1.49v-.06c0-.93-.71-1.4-3.69-2.11-4.62-1.05-8.19-2.36-8.19-6.79v-.06c0-4,3.19-6.95,8.4-6.95a13.66,13.66,0,0,1,8.93,2.88l-3,4.25a10.65,10.65,0,0,0-6.08-2.14c-1.46,0-2.17.59-2.17,1.4v.06c0,1,.74,1.43,3.78,2.11,5,1.08,8.06,2.7,8.06,6.76v.06c0,4.43-3.5,7.07-8.77,7.07A15.22,15.22,0,0,1,156.82,183.63Z"/><path d="M185.71,176.06V176a11.37,11.37,0,0,1,11.72-11.29c6.7,0,11.66,5,11.66,11.22V176a11.37,11.37,0,0,1-11.72,11.29C190.67,187.29,185.71,182.29,185.71,176.06Zm17.21,0V176a5.6,5.6,0,0,0-5.55-5.86,5.54,5.54,0,0,0-5.52,5.8V176a5.64,5.64,0,0,0,5.58,5.86A5.53,5.53,0,0,0,202.92,176.06Z"/><path d="M219.22,176.06V176a11.12,11.12,0,0,1,11.41-11.29,10.68,10.68,0,0,1,9.21,4.5l-4.53,3.5a5.89,5.89,0,0,0-4.74-2.54c-3,0-5.18,2.6-5.18,5.77V176c0,3.26,2.14,5.8,5.18,5.8,2.26,0,3.6-1.05,4.9-2.64l4.53,3.22a11.41,11.41,0,0,1-20.77-6.33Z"/><path d="M250.5,165.15h6v21.7h-6Z"/><path d="M268.24,165.15h17.46v5.08h-11.5v3.32h10.42v4.74H274.19v3.44h11.66v5.12H268.24Z"/><path d="M302,170.42h-6.48v-5.27h19v5.27H308v16.43h-6Z"/><path d="M331.2,178.73l-8.28-13.58h6.85l4.46,7.91,4.5-7.91h6.73l-8.25,13.49v8.22h-6Z"/></svg>