<svg id="Layer_1" data-name="Layer 1" xmlns="http://www.w3.org/2000/svg" viewBox="0 0 500 550"><title>primary-logo-black</title><circle cx="235.65" cy="258.17" r="3.22"/><circle cx="268.28" cy="263.52" r="3.22"/><path d="M384,142.7C384,68.92,323.9,8.89,250,8.89s-134,60-134,133.81a133.69,133.69,0,0,0,58.48,110.53,31.5,31.5,0,0,0,41.86,21.17,134,134,0,0,0,15,4,63.2,63.2,0,0,1-5.48,11.25l.11,0a.42.42,0,0,0-.11.07l2.79,2.79a4.91,4.91,0,0,1,2.38-.63,5,5,0,0,1,0,10,7.11,7.11,0,0,1-5.63-3.2,20.79,20.79,0,0,0-.65,5.22c0,9.61,10.47,20.59,25,25.22,14.53-4.52,25-15.58,25-25.2a18,18,0,0,0-.65-5.24c-1.12,1.35-2.93,3.2-5.67,3.2a5,5,0,1,1,2.63-9.25l2.71-2.7.1,0a65.42,65.42,0,0,1-3.41-10.26c24.1-3.25,44.43-13.45,60.6-30.44v0A132.73,132.73,0,0,0,384,142.7ZM204.91,272.79a27.68,27.68,0,0,1-24.24-40.88c1.42,1.29,2.94,2.63,4.52,4a21.78,21.78,0,0,0-2.11,9.33c0,8.3,4.18,15.15,12.1,19.83a104.19,104.19,0,0,0,15.15,7.21A27.89,27.89,0,0,1,204.91,272.79Zm106.9-65c-2.23-3.11-8.55-10.8-20.67-17.7,6,9.16,6.16,23-.13,32.5q-3.54,1.82-7.24,3.33h0c5.83-19.37,4.76-37.94-10.79-50.67,7.89,21.71-9.84,46-24.44,57.25-1.93,0-3.85-.13-5.76-.29,7.93-16.09,29.15-38.17,26.71-58.1A62,62,0,0,1,269,165a29.32,29.32,0,0,1,7.92-1,30.13,30.13,0,0,1,6.1.62c7.59,1.6,10.59,5.41,10.59,5.41s1.2-3.21,4.18-10,2-11,2-11-4.19,4.79-10.58,4.19-19.6-1.56-18.81-10.95,9.52-7.82,9.52-7.82.5,2.4,4.9,3.59a42.26,42.26,0,0,0,7.38,1.41l.47,7a.59.59,0,0,0,1,.35l6.33-7.31s6.59,1.39,11.58-3a9.5,9.5,0,0,0,3.2-9.79c-3.72-.19-6.55-2-9.68-4.49a.59.59,0,0,1,.29-1.05,24.36,24.36,0,0,1,9.39.15s-1.4-3.4-6.8-7.4-14.58-7.18-14.58-7.18a35.32,35.32,0,0,0-11.18-10.79c-7-4-21.77-5.79-37.35-6s-22-2.6-22-2.6-8.18,5-8.78,13.58,3.33,14.59,2.73,14.39c-.07,0-.37.21-.86.71a16.69,16.69,0,0,0-4.36,15c2.22,10.84,4.21,20.36,18,27.23,11,5.52,16.49,25.59,18.21,40.59-7.43-16.33-11.44-30.46-21.93-33.88-16.66-5.52-23-19.4-21.75-33.08l-.16.26a38.76,38.76,0,0,0-3.09,35.8c3,6.92,8.12,13.12,17.57,18.23,10.67,5.63,13.59,25.15,15.6,40.18-9.41-13.75-13-30.74-23.48-34.69-14.88-5.62-21.34-15.34-22.11-28.31-.6,1.59-10.62,27.8-9.9,33.45a2.93,2.93,0,0,0,.05.29A89.79,89.79,0,1,1,311.81,207.8Zm-70.3,28.1a10,10,0,0,0-2.71,3c-3.39-1.64-7.66-3.77-10.44-5.33A114.23,114.23,0,0,0,241.51,235.9Zm8.49.39a94,94,0,0,0,20-2.16c-2.69,3.84-4.3,9.18-4.77,14.59a138.57,138.57,0,0,1-22.94-8.2C243.55,238,247.21,236.29,250,236.29ZM231.58,117.93c4.29,8.76-.21,13.22,10.62,18.6,6.63,3.26,13.34,11.5,13.94,18.86-5.49-6.33-10.49-11.22-15.3-12.78C224,137.11,228.26,127.39,231.58,117.93Zm-4.54-12c-2.4,0-5-1.2-3.8-6.59s17-2.8,17-2.8S229.44,105.88,227,105.88Zm26.47-2.29s29,0,27.71,9.93-15.42,0-15.42,0ZM196.82,218.67c.52-.16,1.05-.31,1.58-.44a27.53,27.53,0,0,1,5.48-.76l1,0A27.67,27.67,0,0,1,225,226.22a27.2,27.2,0,0,1,2.84,3.56,89.14,89.14,0,0,1-13.06-4.4v0l-.14-.08a22,22,0,0,0-7.95-2.06c-.51,0-1-.05-1.52-.05a22.12,22.12,0,0,0-17.91,9.14c-1.7-.94-3.39-1.93-5-3A27.68,27.68,0,0,1,196.82,218.67ZM268.48,288a8.65,8.65,0,0,0-9,8.86,8.76,8.76,0,0,0,9,8.87,8.46,8.46,0,0,0,2.15-.31c-1,7.43-9.69,15.75-20.85,19.49-11.08-3.7-19.73-12.09-20.88-19.48a8.35,8.35,0,0,0,2.13.3,8.57,8.57,0,0,0,9-8.87,8.82,8.82,0,0,0-8.8-8.84,55.43,55.43,0,0,0,4-8.86,105,105,0,0,0,17.82,1.65,134.17,134.17,0,0,0,13.47-.69A64.69,64.69,0,0,0,269,288C268.83,288,268.66,288,268.48,288ZM253.08,277c-18,0-40.4-6.11-55.81-15.2C192.6,259.1,187,254,187,245.22a18.19,18.19,0,0,1,1.28-6.7c5.75,4.76,11.7,9.21,15.43,11.26a4.17,4.17,0,0,0,2.35.69,4.34,4.34,0,0,0,4.33-4.35,4.28,4.28,0,0,0-2.64-4c-3.18-1.4-9.86-4.15-17-7.88a18.08,18.08,0,0,1,22.16-5.51l4.92,2.87c15.66,9.57,56,34.1,104.6,20.62C304,268.84,281.22,277,253.08,277Zm75.45-30.7a106,106,0,0,1-59.43,3.3c.57-7.74,3.77-16,8.67-17.55a93.78,93.78,0,0,0,66-89.4c0-51.6-42.06-93.59-93.76-93.59s-93.77,42-93.77,93.59a93.88,93.88,0,0,0,36,73.66A31.8,31.8,0,0,0,179,227.27c-1.72-1.16-3.36-2.37-4.89-3.62l-.85.85a61.44,61.44,0,0,0,4.5,4.68,31.09,31.09,0,0,0-4.38,15.94c0,.91.06,1.8.13,2.69A130,130,0,0,1,119.94,142.7c0-71.71,58.35-130,130.06-130S380.06,71,380.06,142.7A129,129,0,0,1,328.53,246.35Z"/><path d="M150.9,195.62l0,0a9.88,9.88,0,0,0,10.85,16.51l0,0a9.88,9.88,0,0,0-10.85-16.51Zm11,4.59a6.45,6.45,0,0,1-2.09,9l0,0a6.38,6.38,0,0,1-9.07-1.69,6.48,6.48,0,0,1,2.11-9.06l0,0A6.36,6.36,0,0,1,161.89,200.21Z"/><polygon points="153.04 176.25 151.58 172.61 145.17 182.58 134.14 179.91 135.56 183.44 143.69 185.27 139.07 192.18 140.53 195.82 146.71 186.27 158.17 189.03 156.75 185.49 148.21 183.57 153.04 176.25"/><polygon points="150.05 165.61 142.5 167.1 140.66 157.75 137.69 158.34 139.54 167.69 134.48 168.69 132.39 158.15 129.43 158.73 132.15 172.53 150.7 168.87 150.05 165.61"/><path d="M138,152.13h.05a9.88,9.88,0,0,0,0-19.76h-.05a9.88,9.88,0,0,0,0,19.76Zm.08-16.28h.05a6.36,6.36,0,0,1,6.61,6.41,6.45,6.45,0,0,1-6.73,6.39H138a6.38,6.38,0,0,1-6.64-6.4A6.48,6.48,0,0,1,138.1,135.85Z"/><path d="M149,125l-6.44-1.39.88-4.07,7.42-3.16.83-3.85L143.62,116a5.67,5.67,0,0,0-4.65-5.58h-.05a5.71,5.71,0,0,0-4.32.67,7.61,7.61,0,0,0-3,4.93l-1.77,8.24,18.48,4Zm-8.29-6.76-1,4.75-6.2-1.33,1-4.72c.52-2.4,1.91-3.6,3.88-3.17h.05C140.31,114.13,141.21,115.87,140.71,118.2Z"/><path d="M151.1,89.5l0,0c-4.87-2.14-10.25,0-12.64,5.42l-2.83,6.45,17.31,7.59,2.83-6.45C158.11,97.05,156,91.64,151.1,89.5ZM153,101.28l-1.5,3.41-11.77-5.16,1.5-3.41a6.2,6.2,0,0,1,8.52-3.43l0,0A6.16,6.16,0,0,1,153,101.28Z"/><path d="M164.69,56.18l7.18,19.48,2.45-2.35-1.76-4.64L179,62.48l4.54,2L186.09,62l-19.17-8Zm11.41,5-4.69,4.51L168.51,58Z"/><path d="M197.14,48.38c-1.71-2.62-4.21-2.71-8.09-1.34-3.53,1.27-4.6,1.19-5.4,0l0,0c-.68-1-.27-2.5,1.36-3.56a8.57,8.57,0,0,1,5.36-1.17l.12-3.08a10.48,10.48,0,0,0-7,1.75c-3.14,2-4.18,5.4-2.42,8.11l0,0c1.9,2.92,4.45,2.68,8.35,1.3,3.38-1.24,4.42-1,5.15.09l0,0c.77,1.18.21,2.7-1.51,3.82a8.75,8.75,0,0,1-6.34,1.2l-.38,3.08a11.65,11.65,0,0,0,8.26-1.77c3.33-2.17,4.51-5.45,2.58-8.41Z"/><rect x="200.4" y="32.11" width="3.32" height="18.9" transform="translate(1.71 90.69) rotate(-25.4)"/><path d="M213.75,26.69l-2.51,20.62,3.26-1,.55-4.93,8.56-2.56,3.15,3.82,3.36-1L216.7,25.81Zm1.63,11.55.93-8.17,5.3,6.3Z"/><path d="M268.08,28.81c.34-3.79-2.18-6.54-6.59-6.93l-7.42-.66L252.39,40l3.31.29.54-6,3.74.33c4.14.37,7.72-1.54,8.1-5.76Zm-3.37-.16c-.17,2-1.86,3.22-4.36,3l-3.85-.34.6-6.78,3.85.34c2.47.22,4,1.52,3.76,3.72Z"/><path d="M280.42,25l-13,16.2,3.28.89,3.07-3.9,8.63,2.34.66,4.91,3.39.92-3-20.55Zm-4.71,10.67,5.11-6.45L282,37.42Z"/><path d="M295.18,40.1a6.36,6.36,0,0,1,8.54-3.22,7.53,7.53,0,0,1,3.71,4.45l3-1.26a9.85,9.85,0,0,0-5.33-5.91A9.57,9.57,0,0,0,292,38.61l0,0a9.51,9.51,0,0,0,4.33,13,9.75,9.75,0,0,0,8.36.39l-1-2.88a7.38,7.38,0,0,1-5.94-.22c-3.25-1.6-4.27-5.45-2.63-8.76Z"/><rect x="304.18" y="48.95" width="18.9" height="3.32" transform="matrix(0.57, -0.82, 0.82, 0.57, 93.49, 279.65)"/><polygon points="331.16 63.55 324.14 57.11 327.62 53.3 335.54 60.57 337.58 58.34 327.22 48.83 314.45 62.76 316.89 65 322.1 59.34 329.12 65.78 331.16 63.55"/><rect x="326.63" y="69.52" width="18.9" height="3.32" transform="translate(32.07 231.16) rotate(-39.71)"/><path d="M345.46,92.49a7.38,7.38,0,0,1-4.9-3.37c-1.88-3.09-.69-6.88,2.47-8.81l0,0A6.36,6.36,0,0,1,352,82.14a7.51,7.51,0,0,1,.75,5.74l3.21.54a9.85,9.85,0,0,0-1.34-7.85,9.56,9.56,0,0,0-13.42-3.23l0,0a9.51,9.51,0,0,0-3.3,13.26,9.75,9.75,0,0,0,6.85,4.8Z"/><path d="M356.56,127.33h-.05c-1.38.25-2.57-.85-2.93-2.87a8.75,8.75,0,0,1,1.36-6.31l-2.69-1.54a11.64,11.64,0,0,0-1.57,8.3c.71,3.91,3.27,6.27,6.75,5.64h.05c3.08-.56,4.13-2.83,4.37-6.94.2-3.74.68-4.71,2.12-5H364c1.22-.22,2.41.72,2.75,2.63a8.57,8.57,0,0,1-1,5.39l2.79,1.31a10.48,10.48,0,0,0,1.12-7.17c-.67-3.69-3.35-6-6.54-5.37h-.05c-3.43.62-4.19,3.06-4.43,7.19C358.47,126.21,357.89,127.09,356.56,127.33Z"/><path d="M362.11,135h-.05a9.88,9.88,0,0,0-.36,19.76h.05a9.88,9.88,0,0,0,.36-19.76Zm-.34,16.28h-.05a6.36,6.36,0,0,1-6.51-6.51,6.45,6.45,0,0,1,6.83-6.29h.05a6.39,6.39,0,0,1,6.53,6.51A6.47,6.47,0,0,1,361.77,151.31Z"/><path d="M360.86,160.11h-.05a9.51,9.51,0,0,0-11.65,7.15,9.76,9.76,0,0,0,1.52,8.23l2.59-1.59a7.39,7.39,0,0,1-1.13-5.84c.82-3.52,4.34-5.39,7.94-4.55h.05a6.36,6.36,0,0,1,5.08,7.59,7.51,7.51,0,0,1-3.49,4.62l1.91,2.64a9.85,9.85,0,0,0,4.55-6.54A9.57,9.57,0,0,0,360.86,160.11Z"/><rect x="352.42" y="174.44" width="3.32" height="18.9" transform="translate(53.03 445.72) rotate(-68.46)"/><polygon points="335.5 199.72 338.08 201.18 343.42 191.76 347.83 194.26 343.16 202.51 345.75 203.97 350.42 195.72 354.69 198.14 349.43 207.45 352.01 208.91 358.91 196.72 342.47 187.41 335.5 199.72"/><polygon points="342.08 216.99 329.92 206.87 327.78 209.45 339.94 219.56 336.11 224.17 338.47 226.14 348.28 214.35 345.91 212.38 342.08 216.99"/><polygon points="316.86 220.36 314.29 222.5 319.11 228.29 320.6 241.83 323.53 239.39 322.3 229.56 331.69 232.61 334.72 230.09 321.63 226.09 316.86 220.36"/><circle cx="158.24" cy="78.37" r="3.22"/><circle cx="239.22" cy="31.34" r="3.22"/><circle cx="354.78" cy="103.59" r="3.22"/><path d="M19.63,377.89v-.06a11.37,11.37,0,0,1,11.72-11.29c6.7,0,11.66,5,11.66,11.22v.06a11.37,11.37,0,0,1-11.72,11.29C24.59,389.11,19.63,384.12,19.63,377.89Zm17.21,0v-.06A5.6,5.6,0,0,0,31.29,372a5.54,5.54,0,0,0-5.52,5.8v.06a5.64,5.64,0,0,0,5.58,5.86A5.53,5.53,0,0,0,36.84,377.89Z"/><path d="M72.09,367,65,377.55l7.44,11.13H65.48l-4.16-6.57-4.19,6.57H50.38l7.44-11L50.69,367h6.91l3.81,6.11L65.33,367Z"/><path d="M82.16,367H99.52v5.27H88.17v3.69H98.44v5H88.17v7.75h-6Z"/><path d="M109.07,377.89v-.06a11.37,11.37,0,0,1,11.72-11.29c6.7,0,11.66,5,11.66,11.22v.06a11.37,11.37,0,0,1-11.72,11.29C114,389.11,109.07,384.12,109.07,377.89Zm17.21,0v-.06a5.6,5.6,0,0,0-5.55-5.86,5.54,5.54,0,0,0-5.52,5.8v.06a5.64,5.64,0,0,0,5.58,5.86A5.53,5.53,0,0,0,126.27,377.89Z"/><path d="M143,367h10.26c3.32,0,5.61.87,7.07,2.33a6.78,6.78,0,0,1,1.92,5.05v.06a6.88,6.88,0,0,1-4.46,6.7l5.18,7.57H156.1l-4.37-6.57h-2.67v6.57h-6Zm10,10.42c2,0,3.22-1,3.22-2.57v-.06c0-1.74-1.27-2.6-3.26-2.6h-4v5.24Z"/><path d="M172.83,367h8.4c7.72,0,12.22,4.46,12.22,10.73v.06c0,6.26-4.56,10.91-12.34,10.91h-8.28Zm6,5.3v11.07h2.45c3.63,0,6-2,6-5.49v-.06c0-3.47-2.39-5.52-6-5.52Z"/><path d="M219.92,379.16V367H226V379c0,3.13,1.58,4.62,4,4.62s4-1.43,4-4.46V367h6.08v12c0,7-4,10.08-10.17,10.08S219.92,385.95,219.92,379.16Z"/><path d="M251.17,367h5.61l8.93,11.47V367h6v21.7h-5.24l-9.3-11.91v11.91h-6Z"/><path d="M283.16,367h6v21.7h-6Z"/><path d="M298.94,367h6.7l4.93,13.74,5-13.74h6.57l-8.81,21.86h-5.58Z"/><path d="M331.71,367h17.46v5.08h-11.5v3.32h10.42v4.74H337.66v3.44h11.66v5.12H331.71Z"/><path d="M359.92,367h10.26c3.32,0,5.61.87,7.07,2.33a6.78,6.78,0,0,1,1.92,5.05v.06a6.88,6.88,0,0,1-4.46,6.7l5.18,7.57H373l-4.37-6.57h-2.67v6.57h-6Zm10,10.42c2,0,3.22-1,3.22-2.57v-.06c0-1.74-1.27-2.6-3.26-2.6h-4v5.24Z"/><path d="M388.06,385.45l3.35-4a11.24,11.24,0,0,0,7,2.6c1.64,0,2.51-.56,2.51-1.49v-.06c0-.93-.71-1.4-3.69-2.11-4.62-1.05-8.19-2.36-8.19-6.79v-.06c0-4,3.19-6.95,8.4-6.95a13.66,13.66,0,0,1,8.93,2.88l-3,4.25a10.65,10.65,0,0,0-6.08-2.14c-1.46,0-2.17.59-2.17,1.4v.06c0,1,.74,1.43,3.78,2.11,5,1.08,8.06,2.7,8.06,6.76V382c0,4.43-3.5,7.07-8.77,7.07A15.22,15.22,0,0,1,388.06,385.45Z"/><path d="M417.58,367h6v21.7h-6Z"/><path d="M440.36,372.25h-6.48V367h19v5.27h-6.51v16.43h-6Z"/><path d="M469.32,380.55,461,367h6.85l4.46,7.91,4.5-7.91h6.73l-8.25,13.49v8.22h-6Z"/><path d="M62.81,494.68H49.39l-2.3-15.36H30.76l-2.3,15.36H16.25L29.8,410H49.27ZM32.46,467.83H45.28L38.87,425Z"/><path d="M86.87,409.06c12.94,0,19.59,7.74,19.59,21.28v3.27H93.89V429.5c0-6-2.42-8.34-6.65-8.34s-6.65,2.3-6.65,8.34c0,17.41,26,20.68,26,44.86,0,13.54-6.77,21.28-19.83,21.28s-19.83-7.74-19.83-21.28v-5.8H79.5v6.65c0,6,2.66,8.22,6.89,8.22s6.89-2.18,6.89-8.22c0-17.41-26-20.68-26-44.86C67.28,416.8,73.94,409.06,86.87,409.06Z"/><path d="M114.2,410h13.3v84.65H114.2Z"/><path d="M180.23,494.68H166.8l-2.3-15.36H148.18l-2.3,15.36H133.67L147.21,410h19.47Zm-30.35-26.85h12.82L156.28,425Z"/><path d="M184.58,446.31h24.19V458.4H184.58Z"/><path d="M257.26,431v11c0,13.54-6.53,20.92-19.83,20.92h-6.29v31.8h-13.3V410h19.59C250.73,410,257.26,417.41,257.26,431Zm-26.12-8.83v28.66h6.29c4.23,0,6.53-1.93,6.53-8V430.1c0-6-2.3-8-6.53-8Z"/><path d="M304.9,494.68H291.48l-2.3-15.36H272.86l-2.3,15.36H258.35L271.89,410h19.47Zm-30.35-26.85h12.82L281,425Z"/><path d="M349.52,463.12v11.25c0,13.54-6.77,21.28-19.83,21.28s-19.83-7.74-19.83-21.28v-44c0-13.54,6.77-21.28,19.83-21.28s19.83,7.74,19.83,21.28v8.22H336.95V429.5c0-6-2.66-8.34-6.89-8.34s-6.89,2.3-6.89,8.34v45.71c0,6,2.66,8.22,6.89,8.22s6.89-2.18,6.89-8.22V463.12Z"/><path d="M357.63,410h13.3v84.65h-13.3Z"/><path d="M393.9,447.64h17.17v12.09H393.9v34.95H380.6V410h35.19v12.09H393.9Z"/><path d="M422.2,410h13.3v84.65H422.2Z"/><path d="M483.75,463.12v11.25c0,13.54-6.77,21.28-19.83,21.28s-19.83-7.74-19.83-21.28v-44c0-13.54,6.77-21.28,19.83-21.28s19.83,7.74,19.83,21.28v8.22H471.17V429.5c0-6-2.66-8.34-6.89-8.34s-6.89,2.3-6.89,8.34v45.71c0,6,2.66,8.22,6.89,8.22s6.89-2.18,6.89-8.22V463.12Z"/><path d="M156.82,537.45l3.35-4a11.24,11.24,0,0,0,7,2.6c1.64,0,2.51-.56,2.51-1.49v-.06c0-.93-.71-1.4-3.69-2.11-4.62-1.05-8.19-2.36-8.19-6.79v-.06c0-4,3.19-6.95,8.4-6.95a13.66,13.66,0,0,1,8.93,2.88l-3,4.25a10.65,10.65,0,0,0-6.08-2.14c-1.46,0-2.17.59-2.17,1.4v.06c0,1,.74,1.43,3.78,2.11,5,1.08,8.06,2.7,8.06,6.76V534c0,4.43-3.5,7.07-8.77,7.07A15.22,15.22,0,0,1,156.82,537.45Z"/><path d="M185.71,529.89v-.06a11.37,11.37,0,0,1,11.72-11.29c6.7,0,11.66,5,11.66,11.22v.06a11.37,11.37,0,0,1-11.72,11.29C190.67,541.11,185.71,536.12,185.71,529.89Zm17.21,0v-.06a5.6,5.6,0,0,0-5.55-5.86,5.54,5.54,0,0,0-5.52,5.8v.06a5.64,5.64,0,0,0,5.58,5.86A5.53,5.53,0,0,0,202.92,529.89Z"/><path d="M219.22,529.89v-.06a11.12,11.12,0,0,1,11.41-11.29,10.68,10.68,0,0,1,9.21,4.5l-4.53,3.5a5.89,5.89,0,0,0-4.74-2.54c-3,0-5.18,2.6-5.18,5.77v.06c0,3.26,2.14,5.8,5.18,5.8,2.26,0,3.6-1.05,4.9-2.64l4.53,3.22a11.41,11.41,0,0,1-20.77-6.33Z"/><path d="M250.5,519h6v21.7h-6Z"/><path d="M268.24,519h17.46v5.08h-11.5v3.32h10.42v4.74H274.19v3.44h11.66v5.12H268.24Z"/><path d="M302,524.25h-6.48V519h19v5.27H308v16.43h-6Z"/><path d="M331.2,532.55,322.92,519h6.85l4.46,7.91,4.5-7.91h6.73l-8.25,13.49v8.22h-6Z"/></svg>