<svg id="Layer_1" data-name="Layer 1" xmlns="http://www.w3.org/2000/svg" viewBox="0 0 800 350"><defs><style>.cls-1{fill:#fff;}</style></defs><title>primary-logo-horizontal-white</title><circle class="cls-1" cx="126.22" cy="264.17" r="3.22"/><circle class="cls-1" cx="158.85" cy="269.52" r="3.22"/><path class="cls-1" d="M274.59,148.7c0-73.78-60.12-133.81-134-133.81s-134,60-134,133.81A133.69,133.69,0,0,0,65,259.23a31.5,31.5,0,0,0,41.86,21.17,134,134,0,0,0,15,4,63.2,63.2,0,0,1-5.48,11.25l.11,0a.42.42,0,0,0-.11.07l2.79,2.79a4.91,4.91,0,0,1,2.38-.63,5,5,0,0,1,0,10,7.11,7.11,0,0,1-5.63-3.2,20.79,20.79,0,0,0-.65,5.22c0,9.61,10.47,20.59,25,25.22,14.53-4.52,25-15.58,25-25.2a18,18,0,0,0-.65-5.24c-1.12,1.35-2.93,3.2-5.67,3.2a5,5,0,1,1,2.63-9.25l2.71-2.7.1,0a65.42,65.42,0,0,1-3.41-10.26c24.1-3.25,44.43-13.45,60.6-30.44v0A132.73,132.73,0,0,0,274.59,148.7ZM95.48,278.79a27.68,27.68,0,0,1-24.24-40.88c1.42,1.29,2.94,2.63,4.52,4a21.78,21.78,0,0,0-2.11,9.33c0,8.3,4.18,15.15,12.1,19.83a104.19,104.19,0,0,0,15.15,7.21A27.89,27.89,0,0,1,95.48,278.79Zm106.9-65c-2.23-3.11-8.55-10.8-20.67-17.7,6,9.16,6.16,23-.13,32.5q-3.54,1.82-7.24,3.33h0c5.83-19.37,4.76-37.94-10.79-50.67,7.89,21.71-9.84,46-24.44,57.25-1.93,0-3.85-.13-5.76-.29,7.93-16.09,29.15-38.17,26.71-58.1a62,62,0,0,1-.54-9.13,29.32,29.32,0,0,1,7.92-1,30.13,30.13,0,0,1,6.1.62c7.59,1.6,10.59,5.41,10.59,5.41s1.2-3.21,4.18-10,2-11,2-11-4.19,4.79-10.58,4.19-19.6-1.56-18.81-10.95,9.52-7.82,9.52-7.82.5,2.4,4.9,3.59a42.26,42.26,0,0,0,7.38,1.41l.47,7a.59.59,0,0,0,1,.35l6.33-7.31s6.59,1.39,11.58-3a9.5,9.5,0,0,0,3.2-9.79c-3.72-.19-6.55-2-9.68-4.49a.59.59,0,0,1,.29-1.05,24.36,24.36,0,0,1,9.39.15s-1.4-3.4-6.8-7.4-14.58-7.18-14.58-7.18a35.32,35.32,0,0,0-11.18-10.79c-7-4-21.77-5.79-37.35-6s-22-2.6-22-2.6-8.18,5-8.78,13.58,3.33,14.59,2.73,14.39c-.07,0-.37.21-.86.71a16.69,16.69,0,0,0-4.36,15c2.22,10.84,4.21,20.36,18,27.23,11,5.52,16.49,25.59,18.21,40.59-7.43-16.33-11.44-30.46-21.93-33.88-16.66-5.52-23-19.4-21.75-33.08l-.16.26a38.76,38.76,0,0,0-3.09,35.8c3,6.92,8.12,13.12,17.57,18.23,10.67,5.63,13.59,25.15,15.6,40.18-9.41-13.75-13-30.74-23.48-34.69C86.25,192,79.79,182.32,79,169.35c-.6,1.59-10.62,27.8-9.9,33.45a2.93,2.93,0,0,0,.05.29A89.79,89.79,0,1,1,202.38,213.8Zm-70.3,28.1a10,10,0,0,0-2.71,3c-3.39-1.64-7.66-3.77-10.44-5.33A114.23,114.23,0,0,0,132.08,241.9Zm8.49.39a94,94,0,0,0,20-2.16c-2.69,3.84-4.3,9.18-4.77,14.59a138.57,138.57,0,0,1-22.94-8.2C134.12,244,137.78,242.29,140.57,242.29ZM122.15,123.93c4.29,8.76-.21,13.22,10.62,18.6,6.63,3.26,13.34,11.5,13.94,18.86-5.49-6.33-10.49-11.22-15.3-12.78C114.52,143.11,118.83,133.39,122.15,123.93Zm-4.54-12c-2.4,0-5-1.2-3.8-6.59s17-2.8,17-2.8S120,111.88,117.61,111.88Zm26.47-2.29s29,0,27.71,9.93-15.42,0-15.42,0ZM87.39,224.67c.52-.16,1.05-.31,1.58-.44a27.53,27.53,0,0,1,5.48-.76l1,0a27.67,27.67,0,0,1,20.13,8.77,27.2,27.2,0,0,1,2.84,3.56,89.14,89.14,0,0,1-13.06-4.4v0l-.14-.08a22,22,0,0,0-7.95-2.06c-.51,0-1-.05-1.52-.05a22.12,22.12,0,0,0-17.91,9.14c-1.7-.94-3.39-1.93-5-3A27.68,27.68,0,0,1,87.39,224.67ZM159,294a8.65,8.65,0,0,0-9,8.86,8.76,8.76,0,0,0,9,8.87,8.46,8.46,0,0,0,2.15-.31c-1,7.43-9.69,15.75-20.85,19.49-11.08-3.7-19.73-12.09-20.88-19.48a8.35,8.35,0,0,0,2.13.3,8.57,8.57,0,0,0,9-8.87,8.82,8.82,0,0,0-8.8-8.84,55.43,55.43,0,0,0,4-8.86,105,105,0,0,0,17.82,1.65,134.17,134.17,0,0,0,13.47-.69,64.69,64.69,0,0,0,2.46,7.92C159.4,294,159.23,294,159,294ZM143.65,283c-18,0-40.4-6.11-55.81-15.2-4.67-2.75-10.23-7.87-10.23-16.63a18.19,18.19,0,0,1,1.28-6.7c5.75,4.76,11.7,9.21,15.43,11.26a4.17,4.17,0,0,0,2.35.69,4.34,4.34,0,0,0,4.33-4.35,4.28,4.28,0,0,0-2.64-4c-3.18-1.4-9.86-4.15-17-7.88a18.08,18.08,0,0,1,22.16-5.51l4.92,2.87c15.66,9.57,56,34.1,104.6,20.62C194.53,274.84,171.79,283,143.65,283Zm75.45-30.7a106,106,0,0,1-59.43,3.3c.57-7.74,3.77-16,8.67-17.55a93.78,93.78,0,0,0,66-89.4c0-51.6-42.06-93.59-93.76-93.59S46.8,97.1,46.8,148.7a93.88,93.88,0,0,0,36,73.66,31.8,31.8,0,0,0-13.23,10.91c-1.72-1.16-3.36-2.37-4.89-3.62l-.85.85a61.44,61.44,0,0,0,4.5,4.68,31.09,31.09,0,0,0-4.38,15.94c0,.91.06,1.8.13,2.69A130,130,0,0,1,10.51,148.7c0-71.71,58.35-130,130.06-130S270.63,77,270.63,148.7A129,129,0,0,1,219.1,252.35Z"/><path class="cls-1" d="M41.47,201.62l0,0a9.88,9.88,0,0,0,10.85,16.51l0,0a9.88,9.88,0,0,0-10.85-16.51Zm11,4.59a6.45,6.45,0,0,1-2.09,9l0,0a6.38,6.38,0,0,1-9.07-1.69,6.48,6.48,0,0,1,2.11-9.06l0,0A6.36,6.36,0,0,1,52.46,206.21Z"/><polygon class="cls-1" points="43.61 182.25 42.15 178.62 35.74 188.58 24.71 185.91 26.13 189.44 34.26 191.27 29.64 198.19 31.1 201.82 37.28 192.27 48.74 195.03 47.32 191.5 38.78 189.57 43.61 182.25"/><polygon class="cls-1" points="40.62 171.62 33.07 173.11 31.23 163.76 28.26 164.34 30.11 173.69 25.05 174.69 22.96 164.15 20 164.74 22.72 178.54 41.27 174.87 40.62 171.62"/><path class="cls-1" d="M28.59,158.13h.05a9.88,9.88,0,0,0,0-19.76h-.05a9.88,9.88,0,0,0,0,19.76Zm.08-16.28h.05a6.36,6.36,0,0,1,6.61,6.41,6.45,6.45,0,0,1-6.73,6.39h-.05a6.38,6.38,0,0,1-6.64-6.4A6.48,6.48,0,0,1,28.67,141.85Z"/><path class="cls-1" d="M39.57,131l-6.44-1.39L34,125.5l7.42-3.16.83-3.85L34.19,122a5.67,5.67,0,0,0-4.65-5.58h-.05a5.71,5.71,0,0,0-4.32.67,7.61,7.61,0,0,0-3,4.93l-1.77,8.24,18.48,4Zm-8.29-6.76-1,4.75-6.2-1.33,1-4.72c.52-2.4,1.91-3.6,3.88-3.17H29C30.88,120.14,31.78,121.88,31.28,124.2Z"/><path class="cls-1" d="M41.67,95.5l0,0c-4.87-2.14-10.25,0-12.64,5.42l-2.83,6.45,17.31,7.59,2.83-6.45C48.68,103.06,46.54,97.64,41.67,95.5Zm1.85,11.78L42,110.69l-11.77-5.16,1.5-3.41a6.2,6.2,0,0,1,8.52-3.43l0,0A6.16,6.16,0,0,1,43.52,107.28Z"/><path class="cls-1" d="M55.26,62.18l7.18,19.48,2.45-2.35-1.76-4.64,6.45-6.19,4.54,2L76.65,68,57.48,60Zm11.41,5L62,71.71,59.08,64Z"/><path class="cls-1" d="M87.71,54.38C86,51.75,83.5,51.67,79.62,53c-3.53,1.27-4.6,1.19-5.4,0l0,0c-.68-1-.27-2.5,1.36-3.56a8.57,8.57,0,0,1,5.36-1.17L81,45.16a10.48,10.48,0,0,0-7,1.75c-3.14,2-4.18,5.4-2.42,8.11l0,0c1.9,2.92,4.45,2.68,8.35,1.3,3.38-1.24,4.42-1,5.15.09l0,0c.77,1.18.21,2.7-1.51,3.82a8.75,8.75,0,0,1-6.34,1.2L76.9,64.6a11.65,11.65,0,0,0,8.26-1.77c3.33-2.17,4.51-5.45,2.58-8.41Z"/><rect class="cls-1" x="90.97" y="38.11" width="3.32" height="18.9" transform="translate(-11.45 44.33) rotate(-25.4)"/><path class="cls-1" d="M104.32,32.7l-2.51,20.62,3.26-1,.55-4.93,8.56-2.56,3.15,3.82,3.36-1L107.27,31.81Zm1.63,11.55.93-8.17,5.3,6.3Z"/><path class="cls-1" d="M158.65,34.81c.34-3.79-2.18-6.54-6.59-6.93l-7.42-.66L143,46l3.31.29.54-6,3.74.33c4.14.37,7.72-1.54,8.1-5.76Zm-3.37-.16c-.17,2-1.86,3.22-4.36,3l-3.85-.34.6-6.78,3.85.34c2.47.22,4,1.52,3.76,3.72Z"/><path class="cls-1" d="M171,31.05l-13,16.2,3.28.89,3.07-3.9L173,46.58l.66,4.91,3.39.92-3-20.55Zm-4.71,10.67,5.11-6.45,1.18,8.15Z"/><path class="cls-1" d="M185.75,46.1a6.36,6.36,0,0,1,8.54-3.22A7.53,7.53,0,0,1,198,47.33l3-1.26a9.85,9.85,0,0,0-5.33-5.91,9.57,9.57,0,0,0-13.07,4.46l0,0a9.51,9.51,0,0,0,4.33,13,9.75,9.75,0,0,0,8.36.39l-1-2.88a7.38,7.38,0,0,1-5.94-.22c-3.25-1.6-4.27-5.45-2.63-8.76Z"/><rect class="cls-1" x="194.75" y="54.95" width="18.9" height="3.32" transform="matrix(0.57, -0.82, 0.82, 0.57, 41.41, 192.27)"/><polygon class="cls-1" points="221.73 69.55 214.71 63.11 218.19 59.31 226.11 66.57 228.15 64.34 217.79 54.84 205.01 68.76 207.46 71.01 212.66 65.34 219.69 71.78 221.73 69.55"/><rect class="cls-1" x="217.2" y="75.52" width="18.9" height="3.32" transform="translate(2.99 162.63) rotate(-39.71)"/><path class="cls-1" d="M236,98.49a7.38,7.38,0,0,1-4.9-3.37c-1.88-3.09-.69-6.88,2.47-8.81l0,0a6.36,6.36,0,0,1,8.94,1.85,7.51,7.51,0,0,1,.75,5.74l3.21.54a9.85,9.85,0,0,0-1.34-7.85,9.56,9.56,0,0,0-13.42-3.23l0,0a9.51,9.51,0,0,0-3.3,13.26,9.75,9.75,0,0,0,6.85,4.8Z"/><path class="cls-1" d="M247.13,133.33h-.05c-1.38.25-2.57-.85-2.93-2.87a8.75,8.75,0,0,1,1.36-6.31l-2.69-1.54a11.64,11.64,0,0,0-1.57,8.3c.71,3.91,3.27,6.27,6.75,5.64H248c3.08-.56,4.13-2.83,4.37-6.94.2-3.74.68-4.71,2.12-5h.05c1.22-.22,2.41.72,2.75,2.63a8.57,8.57,0,0,1-1,5.39l2.79,1.31a10.48,10.48,0,0,0,1.12-7.17c-.67-3.69-3.35-6-6.54-5.37h-.05c-3.43.62-4.19,3.06-4.43,7.19C249,132.22,248.46,133.09,247.13,133.33Z"/><path class="cls-1" d="M252.68,141h-.05a9.88,9.88,0,0,0-.36,19.76h.05a9.88,9.88,0,0,0,.36-19.76Zm-.34,16.28h-.05a6.36,6.36,0,0,1-6.51-6.51,6.45,6.45,0,0,1,6.83-6.29h.05a6.39,6.39,0,0,1,6.53,6.51A6.47,6.47,0,0,1,252.34,157.32Z"/><path class="cls-1" d="M251.43,166.12h-.05a9.51,9.51,0,0,0-11.65,7.15,9.76,9.76,0,0,0,1.52,8.23l2.59-1.59a7.39,7.39,0,0,1-1.13-5.84c.82-3.52,4.34-5.39,7.94-4.55h.05a6.36,6.36,0,0,1,5.08,7.59,7.51,7.51,0,0,1-3.49,4.62l1.91,2.64a9.85,9.85,0,0,0,4.55-6.54A9.57,9.57,0,0,0,251.43,166.12Z"/><rect class="cls-1" x="242.99" y="180.44" width="3.32" height="18.9" transform="translate(-21.81 347.73) rotate(-68.46)"/><polygon class="cls-1" points="226.07 205.72 228.65 207.19 233.98 197.77 238.4 200.27 233.73 208.51 236.32 209.97 240.98 201.73 245.26 204.15 239.99 213.45 242.58 214.91 249.48 202.72 233.03 193.41 226.07 205.72"/><polygon class="cls-1" points="232.65 222.99 220.49 212.88 218.34 215.45 230.51 225.57 226.67 230.18 229.04 232.14 238.85 220.36 236.48 218.39 232.65 222.99"/><polygon class="cls-1" points="207.43 226.36 204.86 228.5 209.67 234.29 211.17 247.83 214.1 245.4 212.87 235.57 222.25 238.61 225.28 236.09 212.19 232.09 207.43 226.36"/><circle class="cls-1" cx="48.81" cy="84.38" r="3.22"/><circle class="cls-1" cx="129.79" cy="37.35" r="3.22"/><circle class="cls-1" cx="245.35" cy="109.59" r="3.22"/><path class="cls-1" d="M329.34,96.06V96a11.37,11.37,0,0,1,11.72-11.29c6.7,0,11.66,5,11.66,11.22V96A11.37,11.37,0,0,1,341,107.29C334.3,107.29,329.34,102.29,329.34,96.06Zm17.21,0V96A5.6,5.6,0,0,0,341,90.14a5.54,5.54,0,0,0-5.52,5.8V96a5.64,5.64,0,0,0,5.58,5.86A5.53,5.53,0,0,0,346.54,96.06Z"/><path class="cls-1" d="M381.79,85.15l-7.13,10.57,7.44,11.13h-6.91L371,100.28l-4.19,6.57h-6.76l7.44-11L360.4,85.15h6.91l3.81,6.11L375,85.15Z"/><path class="cls-1" d="M391.86,85.15h17.36v5.27H397.88v3.69h10.26v5H397.88v7.75h-6Z"/><path class="cls-1" d="M418.77,96.06V96a11.37,11.37,0,0,1,11.72-11.29c6.7,0,11.66,5,11.66,11.22V96a11.37,11.37,0,0,1-11.72,11.29C423.73,107.29,418.77,102.29,418.77,96.06Zm17.21,0V96a5.6,5.6,0,0,0-5.55-5.86,5.54,5.54,0,0,0-5.52,5.8V96a5.64,5.64,0,0,0,5.58,5.86A5.53,5.53,0,0,0,436,96.06Z"/><path class="cls-1" d="M452.75,85.15H463c3.32,0,5.61.87,7.07,2.33A6.78,6.78,0,0,1,472,92.53v.06a6.88,6.88,0,0,1-4.46,6.7l5.18,7.57H465.8l-4.37-6.57h-2.67v6.57h-6Zm10,10.42c2,0,3.22-1,3.22-2.57v-.06c0-1.74-1.27-2.6-3.26-2.6h-4v5.24Z"/><path class="cls-1" d="M482.54,85.15h8.4c7.72,0,12.22,4.46,12.22,10.73v.06c0,6.26-4.56,10.91-12.34,10.91h-8.28Zm6,5.3v11.07H491c3.63,0,6-2,6-5.49V96c0-3.47-2.39-5.52-6-5.52Z"/><path class="cls-1" d="M529.63,97.33V85.15h6.08V97.21c0,3.13,1.58,4.62,4,4.62s4-1.43,4-4.46V85.15h6.08v12c0,7-4,10.08-10.17,10.08S529.63,104.12,529.63,97.33Z"/><path class="cls-1" d="M560.87,85.15h5.61l8.93,11.47V85.15h6v21.7h-5.24l-9.3-11.91v11.91h-6Z"/><path class="cls-1" d="M592.87,85.15h6v21.7h-6Z"/><path class="cls-1" d="M608.64,85.15h6.7l4.93,13.74,5-13.74h6.57L623,107h-5.58Z"/><path class="cls-1" d="M641.41,85.15h17.46v5.08h-11.5v3.32h10.42v4.74H647.36v3.44H659v5.12H641.41Z"/><path class="cls-1" d="M669.62,85.15h10.26c3.32,0,5.61.87,7.07,2.33a6.78,6.78,0,0,1,1.92,5.05v.06a6.88,6.88,0,0,1-4.46,6.7l5.18,7.57h-6.92l-4.37-6.57h-2.67v6.57h-6Zm10,10.42c2,0,3.22-1,3.22-2.57v-.06c0-1.74-1.27-2.6-3.26-2.6h-4v5.24Z"/><path class="cls-1" d="M697.77,103.63l3.35-4a11.24,11.24,0,0,0,7,2.6c1.64,0,2.51-.56,2.51-1.49v-.06c0-.93-.71-1.4-3.69-2.11-4.62-1.05-8.19-2.36-8.19-6.79v-.06c0-4,3.19-6.95,8.4-6.95a13.66,13.66,0,0,1,8.93,2.88l-3,4.25A10.65,10.65,0,0,0,707,89.77c-1.46,0-2.17.59-2.17,1.4v.06c0,1,.74,1.43,3.78,2.11,5,1.08,8.06,2.7,8.06,6.76v.06c0,4.43-3.5,7.07-8.77,7.07A15.22,15.22,0,0,1,697.77,103.63Z"/><path class="cls-1" d="M727.28,85.15h6v21.7h-6Z"/><path class="cls-1" d="M750.07,90.42h-6.48V85.15h19v5.27h-6.51v16.43h-6Z"/><path class="cls-1" d="M779,98.73l-8.28-13.58h6.85l4.46,7.91,4.5-7.91h6.73L785,98.63v8.22h-6Z"/><path class="cls-1" d="M372.52,212.85H359.09l-2.3-15.36H340.47l-2.3,15.36H326L339.5,128.2H359ZM342.16,186H355l-6.41-42.81Z"/><path class="cls-1" d="M396.58,127.24c12.94,0,19.59,7.74,19.59,21.28v3.27H403.59v-4.11c0-6-2.42-8.34-6.65-8.34s-6.65,2.3-6.65,8.34c0,17.41,26,20.68,26,44.86,0,13.54-6.77,21.28-19.83,21.28s-19.83-7.74-19.83-21.28v-5.8H389.2v6.65c0,6,2.66,8.22,6.89,8.22s6.89-2.18,6.89-8.22c0-17.41-26-20.68-26-44.86C377,135,383.64,127.24,396.58,127.24Z"/><path class="cls-1" d="M423.91,128.2h13.3v84.65h-13.3Z"/><path class="cls-1" d="M489.93,212.85H476.51l-2.3-15.36H457.89l-2.3,15.36H443.38l13.54-84.65h19.47ZM459.58,186H472.4L466,143.2Z"/><path class="cls-1" d="M494.29,164.48h24.19v12.09H494.29Z"/><path class="cls-1" d="M567,149.12v11c0,13.54-6.53,20.92-19.83,20.92h-6.29v31.8h-13.3V128.2h19.59C560.43,128.2,567,135.58,567,149.12Zm-26.12-8.83V169h6.29c4.23,0,6.53-1.93,6.53-8v-12.7c0-6-2.3-8-6.53-8Z"/><path class="cls-1" d="M614.61,212.85H601.18l-2.3-15.36H582.56l-2.3,15.36H568.05l13.54-84.65h19.47ZM584.25,186h12.82l-6.41-42.81Z"/><path class="cls-1" d="M659.23,181.29v11.25c0,13.54-6.77,21.28-19.83,21.28s-19.83-7.74-19.83-21.28v-44c0-13.54,6.77-21.28,19.83-21.28s19.83,7.74,19.83,21.28v8.22H646.65v-9.07c0-6-2.66-8.34-6.89-8.34s-6.89,2.3-6.89,8.34v45.71c0,6,2.66,8.22,6.89,8.22s6.89-2.18,6.89-8.22V181.29Z"/><path class="cls-1" d="M667.33,128.2h13.3v84.65h-13.3Z"/><path class="cls-1" d="M703.61,165.81h17.17V177.9H703.61v34.95H690.3V128.2h35.19V140.3H703.61Z"/><path class="cls-1" d="M731.9,128.2h13.3v84.65H731.9Z"/><path class="cls-1" d="M793.45,181.29v11.25c0,13.54-6.77,21.28-19.83,21.28s-19.83-7.74-19.83-21.28v-44c0-13.54,6.77-21.28,19.83-21.28s19.83,7.74,19.83,21.28v8.22H780.88v-9.07c0-6-2.66-8.34-6.89-8.34s-6.89,2.3-6.89,8.34v45.71c0,6,2.66,8.22,6.89,8.22s6.89-2.18,6.89-8.22V181.29Z"/><path class="cls-1" d="M466.53,255.63l3.35-4a11.24,11.24,0,0,0,7,2.6c1.64,0,2.51-.56,2.51-1.49v-.06c0-.93-.71-1.4-3.69-2.11-4.62-1.05-8.19-2.36-8.19-6.79v-.06c0-4,3.19-6.95,8.4-6.95a13.66,13.66,0,0,1,8.93,2.88l-3,4.25a10.65,10.65,0,0,0-6.08-2.14c-1.46,0-2.17.59-2.17,1.4v.06c0,1,.74,1.43,3.78,2.11,5,1.08,8.06,2.7,8.06,6.76v.06c0,4.43-3.5,7.07-8.77,7.07A15.22,15.22,0,0,1,466.53,255.63Z"/><path class="cls-1" d="M495.42,248.06V248a11.37,11.37,0,0,1,11.72-11.29c6.7,0,11.66,5,11.66,11.22V248a11.37,11.37,0,0,1-11.72,11.29C500.38,259.29,495.42,254.29,495.42,248.06Zm17.21,0V248a5.6,5.6,0,0,0-5.55-5.86,5.54,5.54,0,0,0-5.52,5.8V248a5.64,5.64,0,0,0,5.58,5.86A5.53,5.53,0,0,0,512.63,248.06Z"/><path class="cls-1" d="M528.93,248.06V248a11.12,11.12,0,0,1,11.41-11.29,10.68,10.68,0,0,1,9.21,4.5l-4.53,3.5a5.89,5.89,0,0,0-4.74-2.54c-3,0-5.18,2.6-5.18,5.77V248c0,3.26,2.14,5.8,5.18,5.8,2.26,0,3.6-1.05,4.9-2.64l4.53,3.22a11.41,11.41,0,0,1-20.77-6.33Z"/><path class="cls-1" d="M560.21,237.15h6v21.7h-6Z"/><path class="cls-1" d="M577.94,237.15H595.4v5.08h-11.5v3.32h10.42v4.74H583.89v3.44h11.66v5.12H577.94Z"/><path class="cls-1" d="M611.7,242.42h-6.48v-5.27h19v5.27h-6.51v16.43h-6Z"/><path class="cls-1" d="M640.9,250.73l-8.28-13.58h6.85l4.46,7.91,4.5-7.91h6.73l-8.25,13.49v8.22h-6Z"/></svg>