<svg id="Layer_1" data-name="Layer 1" xmlns="http://www.w3.org/2000/svg" viewBox="0 0 250 100"><defs><style>.cls-1{fill:#fff;}</style></defs><title>secondary-logotype-white</title><path class="cls-1" d="M10.24,27.93c0-13.54,7.13-21.28,20.19-21.28s20.19,7.74,20.19,21.28v44c0,13.54-7.13,21.28-20.19,21.28S10.24,85.49,10.24,71.95Zm13.3,44.86c0,6,2.66,8.34,6.89,8.34s6.89-2.3,6.89-8.34V27.08c0-6-2.66-8.34-6.89-8.34s-6.89,2.3-6.89,8.34Z"/><path class="cls-1" d="M71.91,7.62v65.3c0,6,2.66,8.22,6.89,8.22S85.7,79,85.7,72.92V7.62H98.28V72.07c0,13.54-6.77,21.28-19.83,21.28S58.61,85.61,58.61,72.07V7.62Z"/><path class="cls-1" d="M150.39,92.26H137l-2.3-15.36H118.35l-2.3,15.36H103.84L117.38,7.62h19.47ZM120,65.42h12.82l-6.41-42.81Z"/><path class="cls-1" d="M196,28.54v11c0,13.54-6.53,20.92-19.83,20.92h-6.29v31.8h-13.3V7.62h19.59C189.45,7.62,196,15,196,28.54Zm-26.12-8.83V48.37h6.29c4.23,0,6.53-1.93,6.53-8V27.69c0-6-2.3-8-6.53-8Z"/><path class="cls-1" d="M220,6.65c12.94,0,19.59,7.74,19.59,21.28V31.2H227.06V27.08c0-6-2.42-8.34-6.65-8.34s-6.65,2.3-6.65,8.34c0,17.41,26,20.68,26,44.86,0,13.54-6.77,21.28-19.83,21.28s-19.83-7.74-19.83-21.28v-5.8h12.58v6.65c0,6,2.66,8.22,6.89,8.22s6.89-2.18,6.89-8.22c0-17.41-26-20.68-26-44.86C200.46,14.39,207.11,6.65,220,6.65Z"/></svg>