<svg id="Layer_1" data-name="Layer 1" xmlns="http://www.w3.org/2000/svg" viewBox="0 0 420 150"><defs><style>.cls-1{fill:#002147;}</style></defs><title>secondary-logo-blue</title><path class="cls-1" d="M185.68,58.65c0-13.54,7.13-21.28,20.19-21.28s20.19,7.74,20.19,21.28v44c0,13.54-7.13,21.28-20.19,21.28s-20.19-7.74-20.19-21.28ZM199,103.51c0,6,2.66,8.34,6.89,8.34s6.89-2.3,6.89-8.34V57.8c0-6-2.66-8.34-6.89-8.34S199,51.76,199,57.8Z"/><path class="cls-1" d="M247.36,38.33v65.3c0,6,2.66,8.22,6.89,8.22s6.89-2.18,6.89-8.22V38.33h12.58v64.45c0,13.54-6.77,21.28-19.83,21.28s-19.83-7.74-19.83-21.28V38.33Z"/><path class="cls-1" d="M325.84,123H312.41l-2.3-15.36H293.79L291.49,123H279.28l13.54-84.65h19.47ZM295.48,96.14H308.3l-6.41-42.81Z"/><path class="cls-1" d="M371.43,59.26v11c0,13.54-6.53,20.92-19.83,20.92h-6.29V123H332V38.33h19.59C364.9,38.33,371.43,45.71,371.43,59.26Zm-26.12-8.83V79.09h6.29c4.23,0,6.53-1.93,6.53-8V58.41c0-6-2.3-8-6.53-8Z"/><path class="cls-1" d="M395.49,37.37c12.94,0,19.59,7.74,19.59,21.28v3.27H402.5V57.8c0-6-2.42-8.34-6.65-8.34s-6.65,2.3-6.65,8.34c0,17.41,26,20.68,26,44.86,0,13.54-6.77,21.28-19.83,21.28s-19.83-7.74-19.83-21.28v-5.8h12.58v6.65c0,6,2.66,8.22,6.89,8.22s6.89-2.18,6.89-8.22c0-17.41-26-20.68-26-44.86C375.9,45.11,382.55,37.37,395.49,37.37Z"/><path class="cls-1" d="M95.78,88.21a62,62,0,0,1-.54-9.13,29.33,29.33,0,0,1,7.92-1,30.12,30.12,0,0,1,6.1.62c7.59,1.6,10.59,5.41,10.59,5.41s1.2-3.21,4.18-10,2-11,2-11-4.19,4.79-10.58,4.19-19.6-1.56-18.81-11,9.52-7.82,9.52-7.82.5,2.4,4.9,3.59a42.24,42.24,0,0,0,7.38,1.41l.47,7a.59.59,0,0,0,1,.35l6.33-7.31s6.59,1.39,11.58-3a9.5,9.5,0,0,0,3.2-9.79c-3.72-.19-6.55-2-9.68-4.49a.59.59,0,0,1,.29-1.05,24.36,24.36,0,0,1,9.39.15s-1.4-3.4-6.8-7.4-14.58-7.18-14.58-7.18A35.32,35.32,0,0,0,108.46,10c-7-4-21.77-5.79-37.35-6s-22-2.6-22-2.6-8.18,5-8.78,13.58,3.33,14.59,2.73,14.39c-.07,0-.37.21-.86.71a16.69,16.69,0,0,0-4.36,15c2.22,10.84,4.21,20.36,18,27.23,11,5.52,16.49,25.59,18.21,40.59C66.66,96.59,62.65,82.46,52.16,79,35.5,73.52,29.12,59.64,30.41,46l-.16.26A38.76,38.76,0,0,0,27.16,82c3,6.92,8.12,13.12,17.57,18.23,10.67,5.63,13.59,25.15,15.6,40.18-9.41-13.75-13-30.74-23.48-34.69C22,100.12,15.51,90.4,14.74,77.43c-.6,1.59-10.62,27.8-9.9,33.45a2.93,2.93,0,0,0,.05.29c2.24,15.54,47,35.94,63.11,37.45C75.29,131.84,98.32,109,95.78,88.21ZM49.53,13.37c1.2-5.4,17-2.8,17-2.8S55.73,20,53.33,20,48.33,18.76,49.53,13.37Zm17.6,43.32C50.24,51.19,54.55,41.47,57.87,32c4.29,8.76-.21,13.22,10.62,18.6,6.63,3.26,13.34,11.5,13.94,18.86C76.94,63.14,71.94,58.25,67.13,56.69Zm12.67-39s29,0,27.71,9.93-15.42,0-15.42,0Z"/><path class="cls-1" d="M117.43,104.18c6.64,10.21,6.16,26.18-2.52,35.61,10-5.05,13.37-8.71,24.15-16.48C139.05,123.31,133.07,113.08,117.43,104.18Z"/><path class="cls-1" d="M99.26,89.35c8.4,23.11-8.62,49.09-23.59,59.27,6.87-.58,27.34-4.17,33.65-6.26C116,122.14,115.43,102.59,99.26,89.35Z"/></svg>