<svg id="Layer_1" data-name="Layer 1" xmlns="http://www.w3.org/2000/svg" viewBox="0 0 350 350"><defs><style>.cls-1{fill:#fff;}</style></defs><title>tiger-seal-white</title><circle class="cls-1" cx="160.65" cy="264.17" r="3.22"/><circle class="cls-1" cx="193.28" cy="269.52" r="3.22"/><path class="cls-1" d="M309,148.7C309,74.92,248.9,14.89,175,14.89S41,74.92,41,148.7A133.69,133.69,0,0,0,99.46,259.23a31.5,31.5,0,0,0,41.86,21.17,134,134,0,0,0,15,4,63.2,63.2,0,0,1-5.48,11.25l.11,0a.42.42,0,0,0-.11.07l2.79,2.79a4.91,4.91,0,0,1,2.38-.63,5,5,0,0,1,0,10,7.11,7.11,0,0,1-5.63-3.2,20.79,20.79,0,0,0-.65,5.22c0,9.61,10.47,20.59,25,25.22,14.53-4.52,25-15.58,25-25.2a18,18,0,0,0-.65-5.24c-1.12,1.35-2.93,3.2-5.67,3.2a5,5,0,1,1,2.63-9.25l2.71-2.7.1,0a65.42,65.42,0,0,1-3.41-10.26c24.1-3.25,44.43-13.45,60.6-30.44v0A132.73,132.73,0,0,0,309,148.7ZM129.91,278.79a27.68,27.68,0,0,1-24.24-40.88c1.42,1.29,2.94,2.63,4.52,4a21.78,21.78,0,0,0-2.11,9.33c0,8.3,4.18,15.15,12.1,19.83a104.19,104.19,0,0,0,15.15,7.21A27.89,27.89,0,0,1,129.91,278.79Zm106.9-65c-2.23-3.11-8.55-10.8-20.67-17.7,6,9.16,6.16,23-.13,32.5q-3.54,1.82-7.24,3.33h0c5.83-19.37,4.76-37.94-10.79-50.67,7.89,21.71-9.84,46-24.44,57.25-1.93,0-3.85-.13-5.76-.29,7.93-16.09,29.15-38.17,26.71-58.1A62,62,0,0,1,194,171a29.32,29.32,0,0,1,7.92-1,30.13,30.13,0,0,1,6.1.62c7.59,1.6,10.59,5.41,10.59,5.41s1.2-3.21,4.18-10,2-11,2-11-4.19,4.79-10.58,4.19-19.6-1.56-18.81-10.95,9.52-7.82,9.52-7.82.5,2.4,4.9,3.59a42.26,42.26,0,0,0,7.38,1.41l.47,7a.59.59,0,0,0,1,.35l6.33-7.31s6.59,1.39,11.58-3a9.5,9.5,0,0,0,3.2-9.79c-3.72-.19-6.55-2-9.68-4.49a.59.59,0,0,1,.29-1.05,24.36,24.36,0,0,1,9.39.15s-1.4-3.4-6.8-7.4-14.58-7.18-14.58-7.18a35.32,35.32,0,0,0-11.18-10.79c-7-4-21.77-5.79-37.35-6s-22-2.6-22-2.6-8.18,5-8.78,13.58,3.33,14.59,2.73,14.39c-.07,0-.37.21-.86.71a16.69,16.69,0,0,0-4.36,15c2.22,10.84,4.21,20.36,18,27.23,11,5.52,16.49,25.59,18.21,40.59-7.43-16.33-11.44-30.46-21.93-33.88-16.66-5.52-23-19.4-21.75-33.08l-.16.26a38.76,38.76,0,0,0-3.09,35.8c3,6.92,8.12,13.12,17.57,18.23,10.67,5.63,13.59,25.15,15.6,40.18-9.41-13.75-13-30.74-23.48-34.69-14.88-5.62-21.34-15.34-22.11-28.31-.6,1.59-10.62,27.8-9.9,33.45a2.93,2.93,0,0,0,.05.29A89.79,89.79,0,1,1,236.81,213.8Zm-70.3,28.1a10,10,0,0,0-2.71,3c-3.39-1.64-7.66-3.77-10.44-5.33A114.23,114.23,0,0,0,166.51,241.9Zm8.49.39a94,94,0,0,0,20-2.16c-2.69,3.84-4.3,9.18-4.77,14.59a138.57,138.57,0,0,1-22.94-8.2C168.55,244,172.21,242.29,175,242.29ZM156.58,123.93c4.29,8.76-.21,13.22,10.62,18.6,6.63,3.26,13.34,11.5,13.94,18.86-5.49-6.33-10.49-11.22-15.3-12.78C149,143.11,153.26,133.39,156.58,123.93Zm-4.54-12c-2.4,0-5-1.2-3.8-6.59s17-2.8,17-2.8S154.44,111.88,152,111.88Zm26.47-2.29s29,0,27.71,9.93-15.42,0-15.42,0ZM121.82,224.67c.52-.16,1.05-.31,1.58-.44a27.53,27.53,0,0,1,5.48-.76l1,0A27.67,27.67,0,0,1,150,232.22a27.2,27.2,0,0,1,2.84,3.56,89.14,89.14,0,0,1-13.06-4.4v0l-.14-.08a22,22,0,0,0-7.95-2.06c-.51,0-1-.05-1.52-.05a22.12,22.12,0,0,0-17.91,9.14c-1.7-.94-3.39-1.93-5-3A27.68,27.68,0,0,1,121.82,224.67ZM193.48,294a8.65,8.65,0,0,0-9,8.86,8.76,8.76,0,0,0,9,8.87,8.46,8.46,0,0,0,2.15-.31c-1,7.43-9.69,15.75-20.85,19.49-11.08-3.7-19.73-12.09-20.88-19.48a8.35,8.35,0,0,0,2.13.3,8.57,8.57,0,0,0,9-8.87,8.82,8.82,0,0,0-8.8-8.84,55.43,55.43,0,0,0,4-8.86,105,105,0,0,0,17.82,1.65,134.17,134.17,0,0,0,13.47-.69A64.69,64.69,0,0,0,194,294C193.83,294,193.66,294,193.48,294ZM178.08,283c-18,0-40.4-6.11-55.81-15.2C117.6,265.1,112,260,112,251.22a18.19,18.19,0,0,1,1.28-6.7c5.75,4.76,11.7,9.21,15.43,11.26a4.17,4.17,0,0,0,2.35.69,4.34,4.34,0,0,0,4.33-4.35,4.28,4.28,0,0,0-2.64-4c-3.18-1.4-9.86-4.15-17-7.88a18.08,18.08,0,0,1,22.16-5.51l4.92,2.87c15.66,9.57,56,34.1,104.6,20.62C229,274.84,206.22,283,178.08,283Zm75.45-30.7a106,106,0,0,1-59.43,3.3c.57-7.74,3.77-16,8.67-17.55a93.78,93.78,0,0,0,66-89.4c0-51.6-42.06-93.59-93.76-93.59s-93.77,42-93.77,93.59a93.88,93.88,0,0,0,36,73.66A31.8,31.8,0,0,0,104,233.27c-1.72-1.16-3.36-2.37-4.89-3.62l-.85.85a61.44,61.44,0,0,0,4.5,4.68,31.09,31.09,0,0,0-4.38,15.94c0,.91.06,1.8.13,2.69A130,130,0,0,1,44.94,148.7c0-71.71,58.35-130,130.06-130S305.06,77,305.06,148.7A129,129,0,0,1,253.53,252.35Z"/><path class="cls-1" d="M75.9,201.62l0,0a9.88,9.88,0,0,0,10.85,16.51l0,0A9.88,9.88,0,0,0,75.9,201.62Zm11,4.59a6.45,6.45,0,0,1-2.09,9l0,0a6.38,6.38,0,0,1-9.07-1.69,6.48,6.48,0,0,1,2.11-9.06l0,0A6.36,6.36,0,0,1,86.89,206.21Z"/><polygon class="cls-1" points="78.04 182.25 76.58 178.62 70.17 188.58 59.14 185.91 60.56 189.44 68.69 191.27 64.07 198.19 65.53 201.82 71.71 192.27 83.17 195.03 81.75 191.5 73.21 189.57 78.04 182.25"/><polygon class="cls-1" points="75.05 171.62 67.5 173.11 65.66 163.76 62.69 164.34 64.54 173.69 59.48 174.69 57.39 164.15 54.43 164.74 57.15 178.54 75.7 174.87 75.05 171.62"/><path class="cls-1" d="M63,158.13h.05a9.88,9.88,0,0,0,0-19.76h-.05a9.88,9.88,0,0,0,0,19.76Zm.08-16.28h.05a6.36,6.36,0,0,1,6.61,6.41A6.45,6.45,0,0,1,63,154.65H63a6.38,6.38,0,0,1-6.64-6.4A6.48,6.48,0,0,1,63.1,141.85Z"/><path class="cls-1" d="M74,131l-6.44-1.39.88-4.07,7.42-3.16.83-3.85L68.62,122A5.67,5.67,0,0,0,64,116.4h-.05a5.71,5.71,0,0,0-4.32.67,7.61,7.61,0,0,0-3,4.93l-1.77,8.24,18.48,4Zm-8.29-6.76-1,4.75-6.2-1.33,1-4.72c.52-2.4,1.91-3.6,3.88-3.17h.05C65.31,120.14,66.21,121.88,65.71,124.2Z"/><path class="cls-1" d="M76.1,95.5l0,0c-4.87-2.14-10.25,0-12.64,5.42l-2.83,6.45,17.31,7.59,2.83-6.45C83.11,103.06,81,97.64,76.1,95.5ZM78,107.28l-1.5,3.41-11.77-5.16,1.5-3.41a6.2,6.2,0,0,1,8.52-3.43l0,0A6.16,6.16,0,0,1,78,107.28Z"/><path class="cls-1" d="M89.69,62.18l7.18,19.48,2.45-2.35-1.76-4.64L104,68.48l4.54,2L111.09,68,91.91,60Zm11.41,5-4.69,4.51L93.51,64Z"/><path class="cls-1" d="M122.14,54.38c-1.71-2.62-4.21-2.71-8.09-1.34-3.53,1.27-4.6,1.19-5.4,0l0,0c-.68-1-.27-2.5,1.36-3.56a8.57,8.57,0,0,1,5.36-1.17l.12-3.08a10.48,10.48,0,0,0-7,1.75c-3.14,2-4.18,5.4-2.42,8.11l0,0c1.9,2.92,4.45,2.68,8.35,1.3,3.38-1.24,4.42-1,5.15.09l0,0c.77,1.18.21,2.7-1.51,3.82a8.75,8.75,0,0,1-6.34,1.2l-.38,3.08a11.65,11.65,0,0,0,8.26-1.77c3.33-2.17,4.51-5.45,2.58-8.41Z"/><rect class="cls-1" x="125.4" y="38.11" width="3.32" height="18.9" transform="translate(-8.12 59.1) rotate(-25.4)"/><path class="cls-1" d="M138.75,32.7l-2.51,20.62,3.26-1,.55-4.93,8.56-2.56,3.15,3.82,3.36-1L141.7,31.81Zm1.63,11.55.93-8.17,5.3,6.3Z"/><path class="cls-1" d="M193.08,34.81c.34-3.79-2.18-6.54-6.59-6.93l-7.42-.66L177.39,46l3.31.29.54-6,3.74.33c4.14.37,7.72-1.54,8.1-5.76Zm-3.37-.16c-.17,2-1.86,3.22-4.36,3l-3.85-.34.6-6.78,3.85.34c2.47.22,4,1.52,3.76,3.72Z"/><path class="cls-1" d="M205.42,31.05l-13,16.2,3.28.89,3.07-3.9,8.63,2.34.66,4.91,3.39.92-3-20.55Zm-4.71,10.67,5.11-6.45L207,43.42Z"/><path class="cls-1" d="M220.18,46.1a6.36,6.36,0,0,1,8.54-3.22,7.53,7.53,0,0,1,3.71,4.45l3-1.26a9.85,9.85,0,0,0-5.33-5.91A9.57,9.57,0,0,0,217,44.61l0,0a9.51,9.51,0,0,0,4.33,13,9.75,9.75,0,0,0,8.36.39l-1-2.88a7.38,7.38,0,0,1-5.94-.22c-3.25-1.6-4.27-5.45-2.63-8.76Z"/><rect class="cls-1" x="229.18" y="54.95" width="18.9" height="3.32" transform="matrix(0.57, -0.82, 0.82, 0.57, 56.25, 220.58)"/><polygon class="cls-1" points="256.16 69.55 249.14 63.11 252.62 59.31 260.54 66.57 262.58 64.34 252.22 54.84 239.45 68.76 241.89 71.01 247.09 65.34 254.12 71.78 256.16 69.55"/><rect class="cls-1" x="251.63" y="75.52" width="18.9" height="3.32" transform="translate(10.93 184.63) rotate(-39.71)"/><path class="cls-1" d="M270.46,98.49a7.38,7.38,0,0,1-4.9-3.37c-1.88-3.09-.69-6.88,2.47-8.81l0,0A6.36,6.36,0,0,1,277,88.14a7.51,7.51,0,0,1,.75,5.74l3.21.54a9.85,9.85,0,0,0-1.34-7.85,9.56,9.56,0,0,0-13.42-3.23l0,0a9.51,9.51,0,0,0-3.3,13.26,9.75,9.75,0,0,0,6.85,4.8Z"/><path class="cls-1" d="M281.56,133.33h-.05c-1.38.25-2.57-.85-2.93-2.87a8.75,8.75,0,0,1,1.36-6.31l-2.69-1.54a11.64,11.64,0,0,0-1.57,8.3c.71,3.91,3.27,6.27,6.75,5.64h.05c3.08-.56,4.13-2.83,4.37-6.94.2-3.74.68-4.71,2.12-5H289c1.22-.22,2.41.72,2.75,2.63a8.57,8.57,0,0,1-1,5.39l2.79,1.31a10.48,10.48,0,0,0,1.12-7.17c-.67-3.69-3.35-6-6.54-5.37h-.05c-3.43.62-4.19,3.06-4.43,7.19C283.47,132.22,282.89,133.09,281.56,133.33Z"/><path class="cls-1" d="M287.11,141h-.05a9.88,9.88,0,0,0-.36,19.76h.05a9.88,9.88,0,0,0,.36-19.76Zm-.34,16.28h-.05a6.36,6.36,0,0,1-6.51-6.51,6.45,6.45,0,0,1,6.83-6.29h.05a6.39,6.39,0,0,1,6.53,6.51A6.47,6.47,0,0,1,286.77,157.32Z"/><path class="cls-1" d="M285.86,166.12h-.05a9.51,9.51,0,0,0-11.65,7.15,9.76,9.76,0,0,0,1.52,8.23l2.59-1.59a7.39,7.39,0,0,1-1.13-5.84c.82-3.52,4.34-5.39,7.94-4.55h.05a6.36,6.36,0,0,1,5.08,7.59,7.51,7.51,0,0,1-3.49,4.62l1.91,2.64a9.85,9.85,0,0,0,4.55-6.54A9.57,9.57,0,0,0,285.86,166.12Z"/><rect class="cls-1" x="277.42" y="180.44" width="3.32" height="18.9" transform="translate(-0.02 379.76) rotate(-68.46)"/><polygon class="cls-1" points="260.5 205.72 263.08 207.19 268.42 197.77 272.83 200.27 268.16 208.51 270.75 209.97 275.42 201.73 279.69 204.15 274.43 213.45 277.01 214.91 283.91 202.72 267.47 193.41 260.5 205.72"/><polygon class="cls-1" points="267.08 222.99 254.92 212.88 252.78 215.45 264.94 225.57 261.11 230.18 263.47 232.14 273.28 220.36 270.91 218.39 267.08 222.99"/><polygon class="cls-1" points="241.86 226.36 239.29 228.5 244.1 234.29 245.6 247.83 248.53 245.4 247.3 235.57 256.69 238.61 259.72 236.09 246.63 232.09 241.86 226.36"/><circle class="cls-1" cx="83.24" cy="84.38" r="3.22"/><circle class="cls-1" cx="164.22" cy="37.35" r="3.22"/><circle class="cls-1" cx="279.78" cy="109.59" r="3.22"/></svg>