<svg id="Layer_1" data-name="Layer 1" xmlns="http://www.w3.org/2000/svg" viewBox="0 0 136.53 147.24"><title>tiger-icon-black</title><path d="M91,86.83a62,62,0,0,1-.54-9.13,29.33,29.33,0,0,1,7.92-1,30.12,30.12,0,0,1,6.1.62C112,78.9,115,82.71,115,82.71s1.2-3.21,4.18-10,2-11,2-11-4.19,4.79-10.58,4.19S91,64.35,91.84,55s9.52-7.82,9.52-7.82.5,2.4,4.9,3.59a42.24,42.24,0,0,0,7.38,1.41l.47,7a.59.59,0,0,0,1,.35l6.33-7.31s6.59,1.39,11.58-3a9.5,9.5,0,0,0,3.2-9.79c-3.72-.19-6.55-2-9.68-4.49a.59.59,0,0,1,.29-1.05,24.36,24.36,0,0,1,9.39.15s-1.4-3.4-6.8-7.4-14.58-7.18-14.58-7.18A35.32,35.32,0,0,0,103.66,8.59c-7-4-21.77-5.79-37.35-6s-22-2.6-22-2.6-8.18,5-8.78,13.58S38.88,28.17,38.28,28c-.07,0-.37.21-.86.71a16.69,16.69,0,0,0-4.36,15c2.22,10.84,4.21,20.36,18,27.23,11,5.52,16.49,25.59,18.21,40.59C61.86,95.21,57.85,81.08,47.36,77.66c-16.66-5.52-23-19.4-21.75-33.08l-.16.26a38.76,38.76,0,0,0-3.09,35.8c3,6.92,8.12,13.12,17.57,18.23C50.6,104.5,53.52,124,55.53,139.05c-9.41-13.75-13-30.74-23.48-34.69C17.17,98.74,10.71,89,9.94,76.05,9.34,77.64-.68,103.85,0,109.5a2.93,2.93,0,0,0,.05.29c2.24,15.54,47,35.94,63.11,37.45C70.49,130.46,93.52,107.59,91,86.83ZM44.73,12c1.2-5.4,17-2.8,17-2.8s-10.78,9.39-13.18,9.39S43.53,17.38,44.73,12Zm17.6,43.32c-16.89-5.5-12.58-15.22-9.26-24.68,4.29,8.76-.21,13.22,10.62,18.6C70.32,52.49,77,60.73,77.63,68.09,72.14,61.76,67.14,56.87,62.33,55.31ZM75,16.29s29,0,27.71,9.93-15.42,0-15.42,0Z"/><path d="M112.63,102.8c6.64,10.21,6.16,26.18-2.52,35.61,10-5.05,13.37-8.71,24.15-16.48C134.25,121.93,128.27,111.7,112.63,102.8Z"/><path d="M94.46,88c8.4,23.11-8.62,49.09-23.59,59.27,6.87-.58,27.34-4.17,33.65-6.26C111.15,120.76,110.63,101.21,94.46,88Z"/></svg>