<?xml version="1.0" encoding="utf-8"?>
<!-- Generator: Adobe Illustrator 21.1.0, SVG Export Plug-In . SVG Version: 6.00 Build 0)  -->
<svg version="1.1" id="Layer_1" xmlns="http://www.w3.org/2000/svg" xmlns:xlink="http://www.w3.org/1999/xlink" x="0px" y="0px"
	 viewBox="0 0 136.5 147.2" style="enable-background:new 0 0 136.5 147.2;" xml:space="preserve">
<style type="text/css">
	.st0{fill:#002147;}
</style>
<title>tiger-icon-blue</title>
<path class="st0" d="M91,86.8c-0.4-3-0.6-6.1-0.5-9.1c2.6-0.7,5.2-1,7.9-1c2,0,4.1,0.2,6.1,0.6c7.5,1.6,10.5,5.4,10.5,5.4
	s1.2-3.2,4.2-10s2-11,2-11s-4.2,4.8-10.6,4.2S91,64.3,91.8,55s9.5-7.8,9.5-7.8s0.5,2.4,4.9,3.6c2.4,0.7,4.9,1.2,7.4,1.4l0.5,7
	c0,0.3,0.3,0.6,0.7,0.5c0.1,0,0.3-0.1,0.3-0.2l6.3-7.3c0,0,6.6,1.4,11.6-3c2.9-2.4,4.1-6.2,3.2-9.8c-3.7-0.2-6.6-2-9.7-4.5
	c-0.3-0.2-0.3-0.6-0.1-0.8c0.1-0.1,0.2-0.2,0.4-0.2c3.1-0.6,6.3-0.5,9.4,0.2c0,0-1.4-3.4-6.8-7.4s-14.6-7.2-14.6-7.2
	c-2.9-4.4-6.7-8.1-11.2-10.9c-7-4-21.8-5.8-37.3-6S44.3,0,44.3,0s-8.2,5-8.8,13.6s3.3,14.6,2.7,14.4c-0.1,0-0.4,0.2-0.9,0.7
	c-3.8,4-5.5,9.6-4.4,15c2.2,10.8,4.2,20.4,18,27.2c11,5.5,16.5,25.6,18.2,40.6c-7.4-16.3-11.4-30.4-21.9-33.9
	c-16.7-5.5-23-19.4-21.8-33.1l-0.2,0.3c-6.8,10.7-8,24.1-3.1,35.8c3,6.9,8.1,13.1,17.6,18.2c10.7,5.6,13.6,25.1,15.6,40.2
	c-9.4-13.8-13-30.7-23.5-34.7C17.2,98.7,10.7,89,9.9,76.1C9.3,77.6-0.7,103.8,0,109.5c0,0.1,0,0.2,0.1,0.3
	c2.2,15.5,47,35.9,63.1,37.5C70.5,130.5,93.5,107.6,91,86.8z M44.7,12c1.2-5.4,17-2.8,17-2.8S51,18.6,48.5,18.6S43.5,17.4,44.7,12z
	 M62.3,55.3c-16.9-5.5-12.6-15.2-9.3-24.7c4.3,8.8-0.2,13.2,10.6,18.6c6.6,3.3,13.3,11.5,13.9,18.8C72.1,61.8,67.1,56.9,62.3,55.3
	L62.3,55.3z M75,16.3c0,0,29,0,27.7,9.9s-15.4,0-15.4,0L75,16.3z"/>
<path class="st0" d="M112.6,102.8c6.6,10.2,6.2,26.2-2.5,35.6c10-5.1,13.4-8.7,24.1-16.5C134.2,121.9,128.3,111.7,112.6,102.8z"/>
<path class="st0" d="M94.5,88c8.4,23.1-8.6,49.1-23.6,59.3c6.9-0.6,27.3-4.2,33.7-6.3C111.2,120.8,110.6,101.2,94.5,88z"/>
</svg>
