<?xml version="1.0" encoding="utf-8"?>
<!-- Generator: Adobe Illustrator 21.1.0, SVG Export Plug-In . SVG Version: 6.00 Build 0)  -->
<svg version="1.1" id="Layer_1" xmlns="http://www.w3.org/2000/svg" xmlns:xlink="http://www.w3.org/1999/xlink" x="0px" y="0px"
	 viewBox="0 0 1500 260" style="enable-background:new 0 0 1500 260;" xml:space="preserve">
<style type="text/css">
	.st0{fill:#F4ABC0;}
	.st1{fill:#182D13;}
	.st2{fill:#271D2C;}
	.st3{fill:#F6EEE6;}
	.st4{fill:#F9E4E1;}
	.st5{fill:#FDD4D9;}
	.st6{opacity:3.000000e-02;}
	.st7{opacity:0.39;}
</style>
<g>
	<path class="st1" d="M187.4,211.1c11.7,3.3,23.4,3.6,35.1,0.8c11.8-2.8,22.1-8.5,31-17.1c8.9-8.6,15.1-18.7,18.4-30.3
		c3.3-11.7,3.6-23.4,0.8-35.1c-2.8-11.8-8.5-22.1-17.1-31.1c-8.5-8.9-18.5-15-30-18.2c-11.5-3.3-23.1-3.5-34.9-0.7
		c-11.8,2.8-22.3,8.5-31.6,17l-49.2,43c-3.1,2.6-6,4.9-8.9,6.8c-1.6,1-3.5,2.2-5.7,3.4c-0.3,0.2-0.4,0.3-0.2,0.4h0.5
		c0.8-0.2,1.6-0.4,2.5-0.4c2.5,0,4.7,0.9,6.5,2.7c1.8,1.8,2.8,4,2.8,6.5v1.1c-0.4,5.3-2.6,9.7-6.5,13.3s-8.6,5.4-13.9,5.4
		c-5.3,0-9.9-1.8-13.8-5.5c-3.9-3.7-6-8.1-6.4-13.4c-3,0.5-6,0.7-9.1,0.7c-12,0-23-3.4-33.1-10.2l-0.1-0.1l4.7-20.1l-2-1.9
		c-9.8-9.8-14.7-21.7-14.7-35.6c0-13.9,4.9-25.7,14.7-35.6C37.2,47,49,42.1,62.7,42.1c5,0,9.9,0.7,14.5,2.1c3.4,0.9,7.1,1,11.2,0.4
		s7.3-1.8,9.5-3.6h0.5v27.2h-0.5c0-3.6-0.6-6.8-1.9-9.7c-1.3-2.8-3.1-5.1-5.5-6.9c-2.4-1.8-4.7-3.2-7-4.3s-4.9-2-7.8-2.9
		c-2.8-0.7-5.8-1.2-8.9-1.5c-5.8-0.4-10.4,1-13.8,4.1s-5.6,6.8-6.6,11.1l-15.1,64.5c2.5,7.7,6.5,12.9,11.9,15.7
		c10.3,4.4,21,5.2,32.3,2.4c4-1.7,7.3-4.9,10-9.7c2.7-4.7,4.2-10,4.7-16v-2.1c0-13-1.6-19.8-4.7-20.3h-0.2H82V92h27.2v0.5h-2.4v39.2
		c0,5.4-1,9.3-3.1,11.8c1.8-1.3,3.7-2.8,5.8-4.6l49.2-43c6.8-6.2,14.4-10.9,22.8-14.2c8.5-3.3,17.3-4.8,26.4-4.7
		c18.9,0.4,34.9,7.4,47.9,21c6.4,6.6,11.2,14.1,14.4,22.5c3.3,8.4,4.8,17.2,4.7,26.4c-0.2,9.2-2.2,17.9-5.8,26.2
		c-3.6,8.3-8.8,15.6-15.4,22c-6.4,6.1-13.7,10.8-21.9,14.1c-8.2,3.3-16.7,4.9-25.5,4.9h-1.5c-9.2-0.2-17.9-2.2-26.2-5.8
		c-8.3-3.6-15.6-8.8-22-15.4c-3.1-3.1-5.9-7-8.4-11.7c-2.4-4.7-4.2-9.6-5.4-14.8c-1.1-5.2-0.9-10.3,0.7-15.4
		c1.6-5.1,4.7-9.3,9.4-12.5c2.1-1.5,4.4-2.3,6.8-2.5s4.7,0.1,6.7,0.9s3.9,2.1,5.5,3.7c1.6,1.6,2.8,3.5,3.5,5.5
		c0.7,2,0.9,4.3,0.4,6.7c-0.5,2.4-1.6,4.7-3.4,6.8c-7.4,8.5-11.9,14-13.7,16.6c-4.9,7.2-5.5,12.7-1.9,16.4
		C165.6,201.6,175.7,207.8,187.4,211.1z M66.7,158.1c0-3.5,0.9-6.8,2.6-9.9c1.7-3.1,4.1-5.6,7.2-7.4c-4.3,1.3-8.9,1.9-13.8,1.9
		c-12.6,0-23.7-4.2-33.2-12.5l-4.6,19.7c10,6.7,21,10,32.7,10c3.1,0,6.2-0.2,9.1-0.7V158.1z M31.1,121.6l16.2-69.9
		c0.3-1.4,0-2.7-0.9-3.9c-0.9-1.2-2.5-1.3-4.6-0.3c-3.7,2.2-6.6,5.7-8.8,10.5c-2.2,4.8-3.4,10.2-3.5,16.1v35.9
		C29.4,113.9,30,117.8,31.1,121.6z M103.1,143.6c1.1-1.2,1.9-2.6,2.4-4.1s0.7-2.7,0.8-3.7c0.1-1,0.1-2.4,0.1-4.2V130
		c0-7.4,0-11.1-0.1-11.3c-0.2-0.3-0.7,0.3-1.8,1.8c-4.5,6.4-9.8,11.3-15.9,15c-2.7,1.7-5.9,3.2-9.5,4.5c-3.6,1.6-6.5,4-8.7,7.3
		c-2.2,3.3-3.2,6.9-3.2,10.8v1.1c9.2-1.3,18.2-4.5,27.2-9.7c0.9-0.5,2.4-1.3,4.2-2.4C100.5,146,102,144.8,103.1,143.6z M91.6,165.2
		c-1.8-1.8-2.7-4-2.7-6.6v-0.8c0.2-2.6,1.2-4.7,2.9-6.5c-8.2,4.3-16.4,7.1-24.6,8.2c0.4,5.1,2.5,9.4,6.3,13
		c3.8,3.6,8.3,5.4,13.5,5.4c4.4,0,8.3-1.3,11.8-3.9c3.5-2.6,5.9-6,7.1-10.1c0.1-0.2,0.1-0.3,0-0.3c-0.1,0-0.2,0.1-0.2,0.3
		c-1.9,2.7-4.4,4-7.7,4C95.5,167.9,93.4,167,91.6,165.2z"/>
	<path class="st1" d="M130.3,63.5v-4.1c0-0.9,0-2.3-0.1-4.4c-0.1-2-0.2-3.6-0.5-4.8c-0.2-1.1-0.5-2.4-0.9-3.8
		c-0.4-1.4-0.8-2.4-1.4-3c-0.6-0.6-1.3-0.9-2.2-0.9v-0.1v-0.4H179h6.5h15.4v26.4h-0.5v-3.2c-0.3-6.8-2.7-12.3-7.2-16.5
		c-4.5-4.2-9.5-6.2-15-6.2h-26.4c-3,0.5-4.6,5.8-4.7,16.1V92h44.2v0.5H147v28.7v4.1c0,0.9,0,2.3,0.1,4.4c0.1,2,0.2,3.6,0.5,4.8
		c0.2,1.1,0.5,2.4,0.9,3.8c0.4,1.4,0.8,2.4,1.4,3s1.3,0.9,2.2,0.9h26c5.6,0,10.6-2.1,15.1-6.2c4.5-4.1,6.9-9.6,7.2-16.4v-3.3h0.5
		v26.4h-15.4H179h-53.7v-0.5c0.9,0,1.6-0.3,2.2-0.9c0.6-0.6,1.1-1.6,1.4-3c0.4-1.4,0.6-2.6,0.9-3.8c0.2-1.1,0.4-2.7,0.5-4.8
		c0.1-2,0.1-3.5,0.1-4.4v-4.1V63.5z"/>
	<path class="st1" d="M298.1,66.3c0-7-2.2-12.6-6.5-17c-4.3-4.3-9.3-6.6-15-6.8H272c-3,0.5-4.6,5.8-4.7,16.1v62.5
		c0,2.7,0,4.9,0.1,6.4s0.2,3.6,0.5,6.2c0.3,2.7,0.8,4.7,1.5,6.1c0.7,1.4,1.6,2.1,2.7,2.3h0.4v0.1v0.4h-26.8v-0.5h0.4
		c3-0.4,4.6-5.7,4.7-16V63.5v-4.1c0-0.9,0-2.3-0.1-4.4c-0.1-2-0.2-3.6-0.5-4.8c-0.2-1.1-0.5-2.4-0.9-3.8c-0.4-1.4-0.8-2.4-1.4-3
		s-1.3-0.9-2.2-0.9h-3.5c-5.6,0-10.6,2.1-15.1,6.2c-4.5,4.2-6.9,9.7-7.2,16.5v3.2h-0.5V42.1h79.4v26.4h-0.5V66.3z"/>
	<path class="st1" d="M454.4,66.3c0-7-2.2-12.6-6.5-17c-4.3-4.3-9.3-6.6-15-6.8h-4.7c-3,0.5-4.6,5.8-4.7,16.1v62.5
		c0,2.7,0,4.9,0.1,6.4s0.2,3.6,0.5,6.2c0.3,2.7,0.8,4.7,1.5,6.1c0.7,1.4,1.6,2.1,2.7,2.3h0.4v0.1v0.4h-26.8v-0.5h0.4
		c3-0.4,4.6-5.7,4.7-16V63.5v-4.1c0-0.9,0-2.3-0.1-4.4c-0.1-2-0.2-3.6-0.5-4.8c-0.2-1.1-0.5-2.4-0.9-3.8c-0.4-1.4-0.8-2.4-1.4-3
		s-1.3-0.9-2.2-0.9h-3.5c-5.6,0-10.6,2.1-15.1,6.2c-4.5,4.2-6.9,9.7-7.2,16.5v3.2h-0.5V42.1h79.4v26.4h-0.5V66.3z"/>
	<path class="st1" d="M476,58.7c-0.2-10.8-1.8-16.1-5.1-16.1v-0.1v-0.4h26.8v0.4v0.1h-0.4c-3,0.5-4.6,5.8-4.7,16.1v67.5
		c0.2,10.3,1.7,15.6,4.7,16h0.4v0.1v0.4H471v-0.5h0.4c3.1-0.4,4.7-7.4,4.7-21V58.7z"/>
	<path class="st1" d="M599.3,67c-0.2-3.4-0.9-6.4-2.2-9.1c-1.3-2.7-3.2-4.9-5.5-6.7c-2.4-1.8-4.7-3.2-6.9-4.2c-2.2-1-4.8-2-7.6-2.8
		c-11.3-2.9-22.3-2.1-32.8,2.5c-4.1,2.1-7.3,5.8-9.8,10.9c-2.4,5.2-3.7,10.9-3.7,17.2v35c0,6.4,1.3,12.2,3.8,17.4
		c2.6,5.3,5.9,8.9,10.1,10.9c10.8,4.5,21.8,5.1,33,2l3.1-0.9c2.3-0.8,4.6-1.8,6.9-3.1c7.5-4.2,11.3-10.4,11.7-18.5v-1.2h0.5v27.2
		h-0.5c-2.2-1.7-5.2-2.9-9.1-3.7c-3.9-0.7-7.5-0.7-10.8,0.1c-5.1,1.6-10.2,2.4-15.3,2.4c-13.9,0-25.7-4.9-35.6-14.7
		c-9.8-9.8-14.7-21.7-14.7-35.6c0-13.9,4.9-25.7,14.7-35.6c10-9.8,21.8-14.7,35.6-14.7c5,0,9.9,0.7,14.5,2.1c3.4,0.9,7.1,1,11.2,0.4
		c4.1-0.6,7.3-1.8,9.5-3.6h0.5v27.2h-0.5V67z"/>
	<path class="st1" d="M637.4,98.9l0.1,0.7l0.1-0.1L666.5,55c0.5-0.9,1-1.8,1.5-2.5c0.4-0.7,0.9-1.6,1.4-2.6c0.5-1,0.9-1.9,1.1-2.6
		c0.2-0.7,0.3-1.5,0.3-2.2c0-0.7-0.2-1.3-0.6-1.7c-0.4-0.4-1.1-0.7-1.9-0.8h-1.3v-0.5h30.3v0.5h-0.8c-2.7,0-8.4,6.2-17,18.6L671,74
		c-2.6,3.9-6.5,6.2-11.8,6.9l-0.2,0.1c0.1,0.2,0.4,0.3,1.1,0.1c1.4-0.2,2.9-0.4,4.6-0.4c5.9,0,11.3,1.8,16.2,5.3
		c3.8,2.7,6.7,6.1,8.7,10.1c1.9,4,2.9,7.9,2.9,11.8v18.1c0.2,10.7,1.8,16,5.1,16v0.5h-26.8v-0.5c3.2,0,4.9-5.3,5.1-16V90.7
		c0-2.7-0.4-4.8-1.3-6.2c-0.9-1.4-2.6-2.3-5.1-2.8c-1.3-0.3-2.9-0.5-4.7-0.5c-4.4,0-8.5,0.9-12.4,2.7c-3.9,1.8-6.8,4.4-8.8,7.7
		c-2.7,4.1-4.4,7-5.1,8.7s-0.9,4.1-0.9,7.4v13.5c0,2.7,0,4.9,0.1,6.4s0.2,3.6,0.5,6.2s0.8,4.7,1.5,6.1c0.7,1.4,1.6,2.1,2.7,2.3h0.4
		v0.1v0.4h-26.8v-0.5h0.4c3.1-0.4,4.7-7.4,4.7-21V58.7c-0.2-10.8-1.8-16.1-5.1-16.1v-0.1v-0.4h26.8v0.4v0.1c-0.9,0-1.6,0.3-2.2,0.9
		c-0.6,0.6-1.1,1.6-1.4,3c-0.4,1.4-0.6,2.6-0.9,3.8c-0.2,1.1-0.4,2.7-0.5,4.8c-0.1,2-0.1,3.5-0.1,4.4v4.1V98.9z"/>
	<path class="st1" d="M718.6,63.5v-4.1c0-0.9,0-2.3-0.1-4.4c-0.1-2-0.2-3.6-0.5-4.8c-0.2-1.1-0.5-2.4-0.9-3.8
		c-0.4-1.4-0.8-2.4-1.4-3c-0.6-0.6-1.3-0.9-2.2-0.9v-0.1v-0.4h53.7h6.5h15.4v26.4h-0.5v-3.2c-0.3-6.8-2.7-12.3-7.2-16.5
		c-4.5-4.2-9.5-6.2-15-6.2H740c-3,0.5-4.6,5.8-4.7,16.1V92h44.2v0.5h-44.2v28.7v4.1c0,0.9,0,2.3,0.1,4.4c0.1,2,0.2,3.6,0.5,4.8
		c0.2,1.1,0.5,2.4,0.9,3.8c0.4,1.4,0.8,2.4,1.4,3s1.3,0.9,2.2,0.9h26c5.6,0,10.6-2.1,15.1-6.2c4.5-4.1,6.9-9.6,7.2-16.4v-3.3h0.5
		v26.4h-15.4h-6.5h-53.7v-0.5c0.9,0,1.6-0.3,2.2-0.9c0.6-0.6,1.1-1.6,1.4-3c0.4-1.4,0.6-2.6,0.9-3.8c0.2-1.1,0.4-2.7,0.5-4.8
		c0.1-2,0.1-3.5,0.1-4.4v-4.1V63.5z"/>
	<path class="st1" d="M886.3,66.3c0-7-2.2-12.6-6.5-17c-4.3-4.3-9.3-6.6-15-6.8h-4.7c-3,0.5-4.6,5.8-4.7,16.1v62.5
		c0,2.7,0,4.9,0.1,6.4s0.2,3.6,0.5,6.2s0.8,4.7,1.5,6.1c0.7,1.4,1.6,2.1,2.7,2.3h0.4v0.1v0.4h-26.8v-0.5h0.4c3-0.4,4.6-5.7,4.7-16
		V63.5v-4.1c0-0.9,0-2.3-0.1-4.4c-0.1-2-0.2-3.6-0.5-4.8c-0.2-1.1-0.5-2.4-0.9-3.8c-0.4-1.4-0.8-2.4-1.4-3s-1.3-0.9-2.2-0.9h-3.5
		c-5.6,0-10.6,2.1-15.1,6.2c-4.5,4.2-6.9,9.7-7.2,16.5v3.2h-0.5V42.1h79.4v26.4h-0.5V66.3z"/>
	<path class="st1" d="M904.1,143.8v-27.6h0.5c0.6,7.3,3.7,13.4,9.1,18.4s11.9,7.5,19.2,7.5c4.8,0,9.2-1.1,13.3-3.3
		c4.1-2.2,7.5-5.2,10.1-8.9c2.2-3.1,2.8-6.6,1.7-10.5s-3.7-7.2-7.8-9.9l-35.7-22.7c-3.3-2.1-5.7-4.9-7.3-8.4
		c-1.6-3.5-2.4-7-2.4-10.4c0-7.1,2.7-13.2,8-18.3c5.3-5.1,11.8-7.6,19.3-7.6c2.7,0,5.7,0.5,8.7,1.4c3.1,0.9,6.2,1.2,9.4,0.8
		s5.8-1.5,7.9-3.4h0.5v25.8v1.1h-0.5v-1.1c-0.1-6.2-2.5-11.5-7.3-16c-4.8-4.5-9.8-7.1-15-7.9c-1.7-0.2-3-0.2-3.8-0.2
		c-8.7,0-15.7,3.2-21,9.7c-1.6,1.8-2.3,3.7-2.1,5.6s0.8,3.7,1.8,5.2c1.1,1.6,2.5,3.1,4.4,4.5l33.1,21.1c4.2,2.7,7.5,6.2,9.9,10.7
		c2.4,4.4,3.7,9.2,3.7,14.4c0,7.9-2.8,14.7-8.5,20.4s-12.5,8.5-20.5,8.5c-3.4,0-6.6-0.5-9.7-1.6c-3.4-1.1-6.8-1.4-10.1-0.8
		c-3.4,0.5-6.2,1.8-8.6,3.7H904.1z"/>
	<path class="st1" d="M1108.5,66.7c0-9.7-0.6-16.1-1.8-19.2s-3.8-4.8-8-4.9h-0.6v-0.5h21v0.5h-2.7c-1.8,0-3.2,0.6-4.3,1.8
		c-1.1,1.2-1.8,2.9-2.2,5.1c-0.4,2.2-0.6,4.7-0.8,7.7c-0.1,2.9-0.1,6.1-0.1,9.6c0.1,3.5,0,7.1-0.1,10.8v65.1h-18.6l-39.9-91.5
		c-1.1-2.3-2.3-4.2-3.6-5.7V118c0,9.1,0.9,15.4,2.6,18.8s4.8,5.2,9.2,5.4h0.7v0.5h-20.4v-0.5c2.7,0,4.5-1.3,5.6-3.9
		c1.1-2.6,1.7-6.5,1.8-11.7c0-1.9,0-5-0.1-9.3s0-7.7,0.1-10.1V45c-1.6-1.6-3.3-2.4-4.8-2.5h-0.2v-0.5h23.5l43.2,99.3
		c0.3,0.6,0.5,0.6,0.5-0.1V66.7z"/>
	<path class="st1" d="M1229.8,92.4c0,13.9-4.9,25.7-14.7,35.6c-9.7,9.8-21.5,14.7-35.6,14.7c-8.6,0-16.8-2.1-24.4-6.3
		c-7.7-4.2-13.9-10.2-18.7-18s-7.2-16.4-7.2-26c0-4.5,0.6-8.8,1.8-13.1c1.2-4.2,2.6-7.8,4.2-10.7c1.6-2.9,3.3-5.4,4.9-7.6
		c1.6-2.2,3.1-3.8,4.2-4.8l1.8-1.5c3-2.5,6.9-4.9,11.7-7.3l0.1,0.2c-1.7,1.2-3.1,2.4-4.2,3.8c-4.8,5.7-7.3,13-7.5,22.1v36.4
		c0,4,0.5,7.9,1.6,11.7l18-77.7c4.5-1.2,9-1.8,13.7-1.8c14,0,25.9,4.9,35.6,14.7C1224.9,66.5,1229.8,78.3,1229.8,92.4z M1213,74
		c-0.2-6.2-1.5-11.9-4.2-17s-6-8.6-10.1-10.6c-10.5-4.4-21.3-5.1-32.4-2.1l-18.2,78.1c2.7,8,6.9,13.4,12.6,16.1
		c6,2.4,12.3,3.7,18.8,3.7c6.7,0,13-1.3,19-3.8c4.2-2,7.7-5.7,10.4-11c2.7-5.3,4.1-11.1,4.1-17.5V74z"/>
	<path class="st1" d="M1290.8,42.6c-2.4,0.3-1.8,5,1.8,14.1l6.2,16.1c3-10,7.5-19.3,13.4-27.9c5.9-8.4,12.9-15.6,21-21.7
		c17.1-13,36.5-19.4,58-19.4c13.2,0,25.7,2.5,37.4,7.5c11.5,4.8,21.7,11.7,30.6,20.6c8.9,9,15.8,19.2,20.6,30.6
		c5.1,12,7.7,24.5,7.7,37.6c0,13-2.6,25.4-7.7,37.4c-4.8,11.5-11.7,21.7-20.6,30.6c-8.6,8.8-18.8,15.7-30.6,20.7
		c-12.1,5-24.6,7.5-37.4,7.5c-15.6,0-31-3.9-46.3-11.8c-22.1-11.5-40.4-20.8-54.7-27.7l-28.8-14c-8.1-3.9-16.6-5.9-25.5-5.9
		c-10.5,0-20.2,2.6-29.1,7.8c-8.9,5.2-16,12.2-21.1,21.1c-5.2,8.9-7.8,18.6-7.8,29.1s2.6,20.2,7.8,29.1c5.2,8.9,12.2,16,21.1,21.2
		c8.9,5.2,18.6,7.8,29.1,7.8c13.5,0,25.6-4.3,36.3-12.8c10.7-8.6,17.5-19.4,20.4-32.6c1.2-4.9-2-9.2-9.7-12.7
		c-2.8-1.3-9.8-3.8-20.8-7.3c-3.2-1-5.7-2.7-7.4-5s-2.5-4.8-2.4-7.5c0.1-2.7,0.7-5.2,1.8-7.7c1.1-2.4,2.9-4.4,5.4-5.9
		c2.5-1.5,5.3-2.2,8.4-2.1c4.6,0.2,8.6,1.5,12.2,3.9c3.6,2.4,6.3,5.4,8.2,8.9s3.4,7.4,4.6,11.7c1.2,4.3,1.7,8.5,1.5,12.5
		c-0.2,4.1-0.6,7.8-1.2,11.2c-3.1,13.2-9.9,24.1-20.4,32.7c-10.8,8.7-23.1,13.1-36.9,13.1c-16.1,0-29.9-5.7-41.3-17.2
		c-11.5-11.5-17.2-25.3-17.2-41.4c0-16.1,5.7-29.9,17.2-41.3c11.5-11.5,25.2-17.2,41.3-17.2c9,0,17.6,2,25.8,6l28.8,13.9l54.6,27.7
		c15.2,7.8,30.6,11.8,46.2,11.8c13,0,25.4-2.5,37.2-7.6c11.9-5.1,22.1-11.9,30.6-20.4c8.6-8.6,15.4-18.8,20.4-30.6
		c5.1-11.9,7.6-24.3,7.6-37.2s-2.5-25.4-7.6-37.2c-5.1-11.9-11.9-22.1-20.4-30.6c-8.6-8.6-18.8-15.4-30.6-20.4
		c-11.9-5.1-24.3-7.6-37.2-7.6c-13.8,0-27,2.9-39.6,8.6c-12.6,5.7-23.4,13.8-32.6,24.1c-9.1,10.4-15.7,22.2-19.7,35.4l-0.4,1.1
		l17.9,45.6l16.8-49.9c1.3-4,2.2-7.4,2.8-10.3c0.6-2.9,1-5.6,1-8.2c0-2.6-0.6-4.6-1.8-6c-1.3-1.4-3.1-2.1-5.7-2.1v-0.5h21v0.5h-0.8
		c-4.5,0.3-8.6,5.8-12.5,16.4l-28.4,83.7l-18.5-47.2l-16,47.2l-33.8-86.4c-3.6-8.6-6.6-13.2-8.9-13.7h-0.9v-0.5h26.8v0.5h-1.8
		c-2.4,0.3-1.8,5,1.8,14.1l24.4,62.4l8.2-24.4l-15.1-38.5c-3.6-8.6-6.6-13.2-8.9-13.7h-0.9v-0.5h26.8v0.5H1290.8z"/>
</g>
<g>
	<path class="st1" d="M431.7,234.8l4.2-5c3.8,3.3,7.7,5.2,12.5,5.2c4.3,0,7-2,7-5v-0.1c0-2.8-1.6-4.4-9-6.1
		c-8.4-2-13.2-4.5-13.2-11.8v-0.1c0-6.8,5.7-11.5,13.5-11.5c5.8,0,10.4,1.8,14.4,5l-3.7,5.3c-3.6-2.7-7.1-4.1-10.8-4.1
		c-4.1,0-6.5,2.1-6.5,4.7v0.1c0,3.1,1.8,4.4,9.5,6.2c8.4,2,12.7,5,12.7,11.6v0.1c0,7.4-5.8,11.8-14.2,11.8
		C442.2,241.2,436.4,239.1,431.7,234.8z"/>
	<path class="st1" d="M484.3,200.9h29.4v6.2h-22.4v10.3h19.9v6.2h-19.9v10.7H514v6.2h-29.7V200.9z"/>
	<path class="st1" d="M535.9,200.9h7v33.3h20.9v6.3h-27.8V200.9z"/>
	<path class="st1" d="M584.7,200.9h7v33.3h20.9v6.3h-27.8V200.9z"/>
	<path class="st1" d="M633.8,200.9h7v39.7h-7V200.9z"/>
	<path class="st1" d="M665.1,200.9h6.5l21.3,27.4v-27.4h6.9v39.7h-5.8l-21.9-28.2v28.2h-6.9V200.9z"/>
	<path class="st1" d="M721.8,220.9v-0.1c0-11.1,8.5-20.5,20.5-20.5c6.9,0,11.2,1.9,15.2,5.4l-4.4,5.3c-3.1-2.6-6.1-4.3-11.1-4.3
		c-7.3,0-12.9,6.4-12.9,14v0.1c0,8.2,5.4,14.2,13.5,14.2c3.7,0,7.1-1.2,9.6-3v-7.4H742v-6.1h16.9v16.7c-3.9,3.3-9.5,6.2-16.6,6.2
		C729.9,241.3,721.8,232.4,721.8,220.9z"/>
	<path class="st1" d="M812.3,200.9h29.5v6.3h-22.6v10.8h20v6.3h-20v16.2h-7V200.9z"/>
	<path class="st1" d="M872.7,200.6h6.5l17.5,40h-7.4l-4-9.6h-18.8l-4.1,9.6h-7.1L872.7,200.6z M882.6,224.8l-6.9-15.9l-6.8,15.9
		H882.6z"/>
	<path class="st1" d="M913.7,234.8l4.2-5c3.8,3.3,7.7,5.2,12.5,5.2c4.3,0,7-2,7-5v-0.1c0-2.8-1.6-4.4-9-6.1
		c-8.4-2-13.2-4.5-13.2-11.8v-0.1c0-6.8,5.7-11.5,13.5-11.5c5.8,0,10.4,1.8,14.4,5l-3.7,5.3c-3.6-2.7-7.1-4.1-10.8-4.1
		c-4.1,0-6.5,2.1-6.5,4.7v0.1c0,3.1,1.8,4.4,9.5,6.2c8.4,2,12.7,5,12.7,11.6v0.1c0,7.4-5.8,11.8-14.2,11.8
		C924.2,241.2,918.5,239.1,913.7,234.8z"/>
	<path class="st1" d="M975.2,207.4h-12.6v-6.5h32.2v6.5h-12.6v33.2h-7V207.4z"/>
</g>
</svg>
