<svg id="Layer_1" data-name="Layer 1" xmlns="http://www.w3.org/2000/svg" xmlns:xlink="http://www.w3.org/1999/xlink" viewBox="0 0 200 150"><defs><style>.cls-1{fill:url(#linear-gradient);}</style><linearGradient id="linear-gradient" x1="9.96" y1="121.83" x2="161.15" y2="34.54" gradientUnits="userSpaceOnUse"><stop offset="0" stop-color="#228c62"/><stop offset="1" stop-color="#28a382"/></linearGradient></defs><title>jade-logo</title><path class="cls-1" d="M188.81,84.77a.42.42,0,0,0-.39.08s-.08,0-.12.08c-4.19,3-8.35,6.06-12.39,9.32a5.61,5.61,0,0,1-1.86-.35,5.14,5.14,0,0,1-2-1.17,7.56,7.56,0,0,1-1.48-2.06,4.78,4.78,0,0,1-.35-1.13A7.39,7.39,0,0,1,170,87.6v-2.1a8.2,8.2,0,0,1,.08-1s0,0,0,0a3.9,3.9,0,0,1,1.44-2.21,12,12,0,0,1,3.73-1.86c1.48-.47,3.11-.89,4.86-1.28A28.43,28.43,0,0,0,185,77.58a10.81,10.81,0,0,0,3.77-2.49,6.11,6.11,0,0,0,1.48-4.31,6.36,6.36,0,0,0-3.22-5.4c-2.18-1.44-5.32-2.18-9.44-2.25h-3.26a22.72,22.72,0,0,0-6.53,1,16.28,16.28,0,0,0-3.38,1.4,12.13,12.13,0,0,0-.74-1.4,47.72,47.72,0,0,0-7.57-9.83,49.44,49.44,0,0,0-7.11-5.9,59.29,59.29,0,0,0-6.14-13.21,61.64,61.64,0,0,0-10.6-12.62,63.68,63.68,0,0,0-14.1-9.75A73.52,73.52,0,0,0,101,6.5,84.48,84.48,0,0,0,81.29,4.25,68.89,68.89,0,0,0,46.14,13.8a73.82,73.82,0,0,0-14.1,11,69.66,69.66,0,0,0-17.91,30.8,70.29,70.29,0,0,0,0,37.06,68.85,68.85,0,0,0,7,16.66,69.76,69.76,0,0,0,25,25,69.37,69.37,0,0,0,35.23,9.52,92.23,92.23,0,0,0,20.24-2.1,97.85,97.85,0,0,0,15.93-5,38.34,38.34,0,0,0,4.27.23,46.84,46.84,0,0,0,12.82-1.75,49.38,49.38,0,0,0,11.58-4.89,47.72,47.72,0,0,0,9.83-7.57,48.95,48.95,0,0,0,12.47-21.36c0-.16.08-.35.12-.5q2.8-2.39,5.59-4.66h.12a16.52,16.52,0,0,0,9.32-3A14.25,14.25,0,0,0,189,85.62a.6.6,0,0,0,0-.58A.29.29,0,0,0,188.81,84.77Zm-19.42-2,.12-.23a3.38,3.38,0,0,0,.31-.89,14.15,14.15,0,0,0,.19-2.52V70.75c0-2.49.43-4.23,1.28-5.2A4,4,0,0,1,174.4,64a3.58,3.58,0,0,1,3,1.24,5.94,5.94,0,0,1,.89,3.42v2.8a8.67,8.67,0,0,1-1.09,4.82A10.32,10.32,0,0,1,174.75,79c-1,.7-1.94,1.36-2.87,2a4.44,4.44,0,0,0-1.9,2.21,1.38,1.38,0,0,0-.16.35.69.69,0,0,1-.31.27.32.32,0,0,1-.19.19c-.19.12-.27,0-.27-.19A3,3,0,0,1,169.39,82.79Zm-67.74,58.38a92.21,92.21,0,0,1-20.24,2.1,68.47,68.47,0,0,1-18.33-2.49,71.09,71.09,0,0,1-16.55-7,69.51,69.51,0,0,1-24.78-24.86,71.1,71.1,0,0,1-7-16.55A66.94,66.94,0,0,1,12.27,74a69.31,69.31,0,0,1,2.41-18.29A67.22,67.22,0,0,1,21.59,39.4,68.15,68.15,0,0,1,46.34,14.85,70.52,70.52,0,0,1,81.64,5.53C91,5.53,99.08,7,106.07,10a47,47,0,0,1,17.4,12.58,52.39,52.39,0,0,1,10.25,19,46.93,46.93,0,0,0-24.66.19,48.9,48.9,0,0,0-11.46,4.78A47.8,47.8,0,0,0,87.82,54a49.1,49.1,0,0,0-7.73,9.84,17.13,17.13,0,0,0-4.74,1.62A9.87,9.87,0,0,0,72,68.18a6.7,6.7,0,0,0,.62,8.43,7.28,7.28,0,0,0,5.28,1.75,7.91,7.91,0,0,0,3.19-.58,10.88,10.88,0,0,0,2.33-1.4,7.15,7.15,0,0,0,1.44-1.71,3.34,3.34,0,0,0,.47-1.48c0-.5-.19-.78-.54-.78a2.56,2.56,0,0,1-2-.93,4,4,0,0,1-.85-2.91,4.48,4.48,0,0,1,1.32-3.3A4.65,4.65,0,0,1,86.46,64a3.56,3.56,0,0,1,3,1.4,6,6,0,0,1,1.09,3.85v.85a6.83,6.83,0,0,1-1.09,3.73,10.54,10.54,0,0,1-3,3A19.22,19.22,0,0,1,82,79.13a37.58,37.58,0,0,1-5.48,1.4,10.17,10.17,0,0,0-3.19,1,9.14,9.14,0,0,0-2.52,1.75,7.22,7.22,0,0,0-1.71,2.25,5.9,5.9,0,0,0-.62,2.68c0,5.28,2.87,8,8.66,8a12.44,12.44,0,0,0,5.17-.85A11.05,11.05,0,0,0,86,93a13,13,0,0,0,2.52-3.46,23.39,23.39,0,0,0,1.55-4,1.57,1.57,0,0,1,.19-.35.37.37,0,0,1,.27-.23c.19,0,.27.08.27.23a.83.83,0,0,1-.12.47,8.74,8.74,0,0,0-.5,3A7,7,0,0,0,91,92a7.16,7.16,0,0,0,2.21,2.37,10.3,10.3,0,0,0,3.19,1.4,15.88,15.88,0,0,0,3.88.47,15.17,15.17,0,0,0,4-.62,5.49,5.49,0,0,0,2.45-1.51,6,6,0,0,0,1.2-2.49,17.7,17.7,0,0,0,.31-3.42V83.41c0-.43-.16-.62-.47-.62s-.47.23-.47.62v5.2a8.43,8.43,0,0,1-.54,3.53c-.39.74-.82,1.09-1.32,1.09s-.85-.31-1-1a15.33,15.33,0,0,1-.27-3.65V76.26a19.53,19.53,0,0,0-.7-5.48,8.43,8.43,0,0,0-2.6-4.12,13.39,13.39,0,0,0-5.44-2.56,35.82,35.82,0,0,0-9-.93,28.93,28.93,0,0,0-5.63.5A48.55,48.55,0,0,1,88,54.63a48,48,0,0,1,9.71-7.5,49,49,0,0,1,11.46-4.82,47.5,47.5,0,0,1,12.7-1.71,46,46,0,0,1,12.08,1.55,85.45,85.45,0,0,1,3.42,24.94V85.23a31.48,31.48,0,0,1-.31,5.09,9.43,9.43,0,0,1-.93,3.19,3.67,3.67,0,0,1-1.63,1.63,6.44,6.44,0,0,1-2.37.58,6.21,6.21,0,0,1-1.83-.31,3.78,3.78,0,0,1-1.71-1,5.38,5.38,0,0,1-1.2-2,10,10,0,0,1-.5-3.38V71.87c0-2.8.47-4.78,1.36-5.94a4.84,4.84,0,0,1,4-1.75v-.89a31.13,31.13,0,0,0-7.46.85A17.31,17.31,0,0,0,118.62,67a13.92,13.92,0,0,0-4.23,5.09,17.06,17.06,0,0,0-1.59,7.69,18.58,18.58,0,0,0,1.55,7.92,14.2,14.2,0,0,0,4.16,5.2,16.7,16.7,0,0,0,6.1,2.87,29.22,29.22,0,0,0,7.22.85h.54a18.59,18.59,0,0,0,8.35-1.79,16.89,16.89,0,0,0,6.06-4.89,22.81,22.81,0,0,0,3.77-7.3,31,31,0,0,0,1.28-9.09V66.63A58.8,58.8,0,0,0,149.5,50l-.23-.7a43.65,43.65,0,0,1,6.37,5.32A47.51,47.51,0,0,1,164,65.73a18,18,0,0,0-2.14,1.36,16.33,16.33,0,0,0-4.31,5.13,15.54,15.54,0,0,0-1.67,7.46,18.79,18.79,0,0,0,1.48,7.81,13.75,13.75,0,0,0,4.08,5.13,15.39,15.39,0,0,0,5.9,2.8,15.89,15.89,0,0,0,1.86.39,33.64,33.64,0,0,1-1,4.86c-2.1,1.79-4.16,3.57-6.25,5.4q-6.41,5.65-13.17,11t-14,10.1a105.56,105.56,0,0,1-15.5,8.31,13.46,13.46,0,0,1-1.59.62,33.76,33.76,0,0,1-8.7-1.94,53,53,0,0,1-11.42-5.87,72.33,72.33,0,0,1-10.29-8.43c-3.22-3.15-6.37-6.45-9.44-9.87s-6.06-6.8-9-10.22-5.9-6.53-8.9-9.44a41,41,0,0,0,1.67-7.69,64.12,64.12,0,0,0,.5-8.31V47.44h3.42q.58,0,.58-.47c0-.35-.19-.5-.58-.5h-22a23.63,23.63,0,0,0-8.16,1.32,18.31,18.31,0,0,0-5.87,3.46,14,14,0,0,0-3.5,4.93A15,15,0,0,0,24.82,62c0,3.38.89,6,2.68,7.81a9.22,9.22,0,0,0,6.87,2.76,10.83,10.83,0,0,0,3.92-.7,10,10,0,0,0,3.19-2,9.16,9.16,0,0,0,2.14-3,9.48,9.48,0,0,0,.78-3.77,10.31,10.31,0,0,0-.47-3.07,8.51,8.51,0,0,0-1.36-2.64,6.52,6.52,0,0,0-2.18-1.83,4.89,4.89,0,0,0-2.8-.5,2.72,2.72,0,0,1-1,2,3.63,3.63,0,0,1-2.49,1,3.05,3.05,0,0,1-2-.89,3.56,3.56,0,0,1-1-2.76,5.6,5.6,0,0,1,3.11-5.13c2.06-1.2,5.17-1.83,9.24-1.86H47l.08,33.29a30.29,30.29,0,0,0-6-2.37,23.5,23.5,0,0,0-6.45-.85,15.54,15.54,0,0,0-6,1.17,16.59,16.59,0,0,0-5,3.11,14.48,14.48,0,0,0-3.38,4.58,12.79,12.79,0,0,0-1.2,5.48,17.27,17.27,0,0,0,1.24,6.8,13.67,13.67,0,0,0,3.46,4.82,13.52,13.52,0,0,0,5.09,2.91,20.54,20.54,0,0,0,6.29.93,32.12,32.12,0,0,0,9.32-1.2,23.7,23.7,0,0,0,7-3.42,19.63,19.63,0,0,0,5-5.13A28.27,28.27,0,0,0,59.7,91c2.91,2.87,5.87,6,8.82,9.44s5.9,6.8,8.93,10.18,6.18,6.68,9.4,9.83a74.81,74.81,0,0,0,10.29,8.39,52.19,52.19,0,0,0,11.54,5.9,35,35,0,0,0,7.85,1.83A97.63,97.63,0,0,1,101.65,141.17ZM90.58,73.11v4.31a34,34,0,0,1-.78,6.25,25.33,25.33,0,0,1-1.48,4.89,11.24,11.24,0,0,1-2,3.19,3.47,3.47,0,0,1-2.37,1.13,1.35,1.35,0,0,1-1.48-1.2,22.77,22.77,0,0,1-.27-4.43c0-.85,0-1.71.12-2.52a8.07,8.07,0,0,1,.54-2.41,7.72,7.72,0,0,1,1.2-2.21,9.31,9.31,0,0,1,2.21-2,13.07,13.07,0,0,0,2.6-2.25A8.34,8.34,0,0,0,90.58,73.11ZM47.11,81.35a50.1,50.1,0,0,1-.82,9.79A31.05,31.05,0,0,1,44.2,98a14.69,14.69,0,0,1-3,4.39,13.76,13.76,0,0,1-3.34,2.52A10.5,10.5,0,0,1,34.53,106a22.38,22.38,0,0,1-3,.23,11.79,11.79,0,0,1-2.87-.58,11.64,11.64,0,0,1-4-2.18,14.06,14.06,0,0,1-3.5-4.39,15.17,15.17,0,0,1-1.51-7.26,12.37,12.37,0,0,1,1.2-5.28A14.11,14.11,0,0,1,24,82.2a16.7,16.7,0,0,1,4.78-3,15.39,15.39,0,0,1,5.83-1.09,25.07,25.07,0,0,1,6.45.82A30.62,30.62,0,0,1,47.11,81.35Zm116.06,31.27A49.76,49.76,0,0,1,146,129.82a48.13,48.13,0,0,1-11.42,4.86,47.49,47.49,0,0,1-12.7,1.71,28.71,28.71,0,0,1-3.19-.16,2.7,2.7,0,0,0,.5-.19,102,102,0,0,0,15.5-8.31c4.86-3.19,9.56-6.53,14.06-10.1s8.9-7.22,13.21-11c2-1.75,4-3.46,6-5.17A47.84,47.84,0,0,1,163.17,112.62Zm5.67-12.55a29.7,29.7,0,0,0,.85-4.2,24.87,24.87,0,0,0,3.85.31C172,97.47,170.4,98.75,168.84,100.07Zm14.72-8.16a11.67,11.67,0,0,1-6.91,2.33c3.73-3,7.54-5.87,11.42-8.58A12.25,12.25,0,0,1,183.57,91.91Z"/></svg>