<?xml version="1.0" encoding="utf-8"?>
<!-- Generator: Adobe Illustrator 21.1.0, SVG Export Plug-In . SVG Version: 6.00 Build 0)  -->
<svg version="1.1" id="Layer_1" xmlns="http://www.w3.org/2000/svg" xmlns:xlink="http://www.w3.org/1999/xlink" x="0px" y="0px"
	 viewBox="0 0 380 60" style="enable-background:new 0 0 380 60;" xml:space="preserve">
<style type="text/css">
	.st0{fill:#A9F7B0;}
</style>
<title>subtitle-light</title>
<path class="st0" d="M71.7,14L71.7,14c0-4.1,3.2-7.6,7.6-7.6s7.6,3.4,7.6,7.5v0c0,4.1-3.2,7.5-7.6,7.5S71.7,18.1,71.7,14z M84.2,14
	L84.2,14c0-2.9-2.1-5.2-4.9-5.2s-4.9,2.3-4.9,5.1v0c0,2.8,2.1,5.2,4.9,5.2C82.2,19.1,84.2,16.8,84.2,14z M93.5,15.1V6.7h2.6V15
	c0,2.7,1.4,4.1,3.7,4.1c2.3,0,3.7-1.4,3.7-4V6.7h2.6V15c0,4.3-2.5,6.5-6.3,6.5C95.9,21.5,93.5,19.3,93.5,15.1z M117.8,6.6h2.4
	l6.4,14.6h-2.7l-1.5-3.5h-6.9l-1.5,3.5h-2.6L117.8,6.6z M121.5,15.5l-2.5-5.8l-2.5,5.8H121.5z M132.8,6.7h5.7c3.4,0,5.5,1.9,5.5,4.9
	v0c0,3.3-2.6,5-5.8,5h-2.9v4.7h-2.6V6.7z M138.3,14.3c1.9,0,3.1-1.1,3.1-2.6v0c0-1.7-1.2-2.6-3.1-2.6h-3v5.2H138.3z M149.4,19.1
	l1.5-1.8c1.4,1.2,2.8,1.9,4.6,1.9c1.6,0,2.6-0.7,2.6-1.8v0c0-1-0.6-1.6-3.3-2.2c-3.1-0.7-4.8-1.7-4.8-4.3v0c0-2.5,2.1-4.2,5-4.2
	c2.1,0,3.8,0.6,5.3,1.8l-1.4,1.9c-1.3-1-2.6-1.5-3.9-1.5c-1.5,0-2.4,0.8-2.4,1.7v0c0,1.1,0.7,1.6,3.5,2.3c3.1,0.7,4.7,1.8,4.7,4.3v0
	c0,2.7-2.1,4.3-5.2,4.3C153.2,21.5,151.1,20.7,149.4,19.1z M182,15.5l-3.4,3.4l-1.6-1.6l3.4-3.4l-3.4-3.4l1.6-1.6l3.4,3.4l3.4-3.4
	l1.6,1.6l-3.4,3.4l3.4,3.4l-1.6,1.6L182,15.5z M209.3,6.6h2.4l6.4,14.6h-2.7l-1.5-3.5H207l-1.5,3.5h-2.6L209.3,6.6z M213,15.5
	l-2.5-5.8l-2.5,5.8H213z M224.3,6.7h6.5c1.7,0,3,0.5,3.8,1.3c0.6,0.6,1,1.4,1,2.4v0c0,1.7-1,2.7-2.1,3.2c1.7,0.6,2.9,1.6,2.9,3.5v0
	c0,2.6-2.1,4-5.4,4h-6.7V6.7z M233,10.8c0-1.1-0.9-1.8-2.6-1.8h-3.7v3.9h3.5C231.9,12.8,233,12.2,233,10.8L233,10.8z M230.9,15h-4.1
	v4h4.2c1.7,0,2.8-0.7,2.8-2v0C233.9,15.7,232.9,15,230.9,15z M248.2,6.6h2.4l6.4,14.6h-2.7l-1.5-3.5h-6.9l-1.5,3.5h-2.6L248.2,6.6z
	 M251.8,15.5l-2.5-5.8l-2.5,5.8H251.8z M261.6,14L261.6,14c0-4.2,3.1-7.6,7.5-7.6c2.7,0,4.3,0.9,5.7,2.3l-1.6,1.9
	c-1.2-1.1-2.4-1.8-4.1-1.8c-2.8,0-4.8,2.3-4.8,5.1v0c0,2.8,2,5.2,4.8,5.2c1.8,0,2.9-0.7,4.2-1.9l1.6,1.7c-1.5,1.6-3.2,2.6-5.9,2.6
	C264.7,21.5,261.6,18.2,261.6,14z M281,15.1V6.7h2.6V15c0,2.7,1.4,4.1,3.7,4.1c2.3,0,3.7-1.4,3.7-4V6.7h2.6V15
	c0,4.3-2.5,6.5-6.3,6.5C283.4,21.5,281,19.3,281,15.1z M299.7,19.1l1.5-1.8c1.4,1.2,2.8,1.9,4.6,1.9c1.6,0,2.6-0.7,2.6-1.8v0
	c0-1-0.6-1.6-3.3-2.2c-3.1-0.7-4.8-1.7-4.8-4.3v0c0-2.5,2.1-4.2,5-4.2c2.1,0,3.8,0.6,5.3,1.8l-1.4,1.9c-1.3-1-2.6-1.5-3.9-1.5
	c-1.5,0-2.4,0.8-2.4,1.7v0c0,1.1,0.7,1.6,3.5,2.3c3.1,0.7,4.7,1.8,4.7,4.3v0c0,2.7-2.1,4.3-5.2,4.3
	C303.6,21.5,301.5,20.7,299.7,19.1z M34,40.2h7.5c1.8,0,3.1,0.5,4,1.3c0.6,0.6,0.9,1.4,0.9,2.4v0c0,1.7-1,2.7-2.2,3.2
	c1.8,0.6,2.9,1.6,2.9,3.6v0c0,2.5-2,4-5.5,4H34V40.2z M42.4,44.7c0-0.8-0.6-1.2-1.8-1.2h-2.6V46h2.5C41.7,46,42.4,45.5,42.4,44.7
	L42.4,44.7z M41,48.8h-3.1v2.7H41c1.2,0,1.9-0.5,1.9-1.3v0C43,49.3,42.4,48.8,41,48.8z M57.2,47.5L57.2,47.5c0-4.2,3.4-7.6,7.9-7.6
	s7.8,3.3,7.8,7.5v0c0,4.2-3.4,7.6-7.9,7.6S57.2,51.7,57.2,47.5z M68.7,47.5L68.7,47.5c0-2.2-1.5-4-3.7-4c-2.2,0-3.7,1.8-3.7,3.9v0
	c0,2.1,1.5,3.9,3.7,3.9C67.3,51.4,68.7,49.6,68.7,47.5z M87.9,40.1h3.9L98,54.7h-4.3l-1-2.6H87l-1,2.6h-4.2L87.9,40.1z M91.4,49
	l-1.6-4.1L88.2,49H91.4z M109.9,43.7h-4.3v-3.5h12.7v3.5h-4.4v11h-4V43.7z M143.5,40.2h6.3c3.7,0,6,1.9,6,5.1v0
	c0,3.4-2.6,5.3-6.2,5.3h-2v4.2h-4V40.2z M149.5,47.4c1.4,0,2.3-0.8,2.3-1.9v0c0-1.2-0.9-1.9-2.3-1.9h-1.9v3.8H149.5z M169.9,40.1
	h3.9l6.2,14.6h-4.3l-1-2.6H169l-1,2.6h-4.2L169.9,40.1z M173.4,49l-1.6-4.1l-1.6,4.1H173.4z M190.2,40.2h6.9c2.2,0,3.8,0.6,4.7,1.6
	c0.9,0.9,1.3,2,1.3,3.4v0c0,2.2-1.2,3.7-3,4.5l3.5,5.1H199l-2.9-4.4h-1.8v4.4h-4V40.2z M196.9,47.1c1.4,0,2.2-0.7,2.2-1.7v0
	c0-1.2-0.9-1.7-2.2-1.7h-2.7v3.5H196.9z M217.5,43.7h-4.3v-3.5h12.7v3.5h-4.4v11h-4V43.7z M240.8,49.3l-5.5-9.1h4.6l3,5.3l3-5.3h4.5
	l-5.5,9v5.5h-4V49.3z M274.4,51.7l5.4-4.2c1.4-1.1,1.9-1.7,1.9-2.6c0-0.9-0.6-1.5-1.6-1.5c-1,0-1.7,0.6-2.9,1.9l-2.7-2.3
	c1.6-2,3.1-3.1,5.9-3.1c3.2,0,5.4,1.9,5.4,4.6v0c0,2.3-1.2,3.5-3.4,5.1l-2.5,1.7h6v3.3h-11.5V51.7z M296.4,47.5L296.4,47.5
	c0-4.2,2.6-7.6,6.8-7.6c4.1,0,6.7,3.4,6.7,7.5v0c0,4.1-2.6,7.6-6.8,7.6C298.9,55,296.4,51.6,296.4,47.5z M305.8,47.5L305.8,47.5
	c0-2.4-1.1-4.1-2.7-4.1c-1.6,0-2.7,1.6-2.7,4v0c0,2.3,1.1,4,2.7,4C304.7,51.4,305.8,49.8,305.8,47.5z M322.6,43.8l-2.5,0.6l-0.8-3.1
	l4.3-1.2h2.9v14.6h-4V43.8z M337.4,50.7L337.4,50.7c0-1.8,0.9-2.9,2.5-3.5c-1.1-0.6-2-1.6-2-3.2v0c0-2.3,2.2-4,5.5-4s5.5,1.7,5.5,4
	v0c0,1.6-0.9,2.6-2,3.2c1.5,0.7,2.5,1.7,2.5,3.4v0c0,2.6-2.5,4.3-6,4.3S337.4,53.2,337.4,50.7z M345.5,50.3L345.5,50.3
	c0-1-0.9-1.6-2.1-1.6c-1.2,0-2.1,0.6-2.1,1.6v0c0,0.9,0.7,1.6,2.1,1.6S345.5,51.2,345.5,50.3z M345.2,44.5L345.2,44.5
	c0-0.9-0.7-1.6-1.8-1.6c-1.1,0-1.8,0.7-1.8,1.5v0c0,0.9,0.7,1.6,1.8,1.6C344.4,46.1,345.2,45.4,345.2,44.5z"/>
</svg>
