<svg id="Layer_1" data-name="Layer 1" xmlns="http://www.w3.org/2000/svg" viewBox="0 0 820 160"><defs><style>.cls-1{fill:#201626;}</style></defs><title>primary-logo-horizontal-dark</title><path class="cls-1" d="M169.57,98.82q-.18,11.66-3.56,12.1h-.27v.36H186v-.36h-.27a2.83,2.83,0,0,1-2-1.74,13.38,13.38,0,0,1-1.11-4.58q-.31-3-.36-4.72t0-4.81V51.47q0-3.11,0-4.81t.36-4.67a13.76,13.76,0,0,1,1.11-4.58,2.83,2.83,0,0,1,2-1.78H186v-.36H165.74v.36a2.17,2.17,0,0,1,1.65.71,5.22,5.22,0,0,1,1.07,2.27q.4,1.56.67,2.85a23.27,23.27,0,0,1,.36,3.6q.09,2.31.09,3.29V98.82Z"/><path class="cls-1" d="M247.62,55.39V35.28h-59.9V55.39h.71V52.81a18.16,18.16,0,0,1,10.9-15.62A14.23,14.23,0,0,1,205,36h2.67q1.34,0,2.09,1.69a14.69,14.69,0,0,1,1.07,4.09,45.45,45.45,0,0,1,.36,5.07q0,2.67,0,4.63V98.74a30.92,30.92,0,0,1-.27,4,26.64,26.64,0,0,1-.76,3.78,10.68,10.68,0,0,1-1.2,2.85,2.28,2.28,0,0,1-1.69,1.2v.71H228v-.71a2.82,2.82,0,0,1-2.27-1.91,16.4,16.4,0,0,1-1.11-4.14,38.56,38.56,0,0,1-.4-5q0-2.58,0-4.54V47.91q0-2,.18-4a33.19,33.19,0,0,1,.53-3.78,10,10,0,0,1,1-2.85A2.36,2.36,0,0,1,227.51,36H231a17.53,17.53,0,0,1,5.79,1.38,16.33,16.33,0,0,1,5.12,3.43,16.68,16.68,0,0,1,3.65,5.47,18.62,18.62,0,0,1,1.38,7.34v1.78Z"/><path class="cls-1" d="M296.57,35.63h1q3.12.27,3.65,2.8a11.41,11.41,0,0,1-1,6.36l-13.8,33.82q-.18.44-.36.09L271.73,47.89q-1.29-3.38-2.85-6.54-1.9-5.42.28-5.71h.8v-.36h-4.43a69.41,69.41,0,0,0-5-7.12,74.66,74.66,0,0,0-21.18-18A69.44,69.44,0,0,0,212,1.45Q207.55,1,204,1a72.61,72.61,0,0,0-55.54,25.81l.8.18A71.92,71.92,0,0,1,174,8.31a71.21,71.21,0,0,1,30.08-6.59,76.89,76.89,0,0,1,7.92.44,74.47,74.47,0,0,1,26.35,8.77A73.32,73.32,0,0,1,259.89,28.6c1.71,2.19,3.27,4.41,4.7,6.68H249.66v.36h1.07q2.58.45,7.65,10.68l15.49,33.2v9.08a75.52,75.52,0,0,1-7.49,19.22,73.93,73.93,0,0,1-17.71,21.54q-20.12,15.75-44.5,15.75-3.74,0-8.19-.44A74.76,74.76,0,0,1,162.7,132L137.24,115.2l-2.63-1.82q-2-1.38-3.16-2.09h1.33a39.73,39.73,0,0,0,11.75-1.78,12.6,12.6,0,0,1,4-.62,19.28,19.28,0,0,1,5.87.93,13.49,13.49,0,0,1,4.63,2.36h.62V91.44H159v1.07q-.44,10.06-10.77,14.69l-.62.27a46.48,46.48,0,0,1-10.24,2.85,38.13,38.13,0,0,1-4.54.27q-2,0-2.94-.09h.09L108,96.33V59.4A30.12,30.12,0,0,1,110.9,46.8q2.76-5.65,7.21-7.79l2.76-1.07a33.39,33.39,0,0,1,12-1.87,36.73,36.73,0,0,1,22.52,7.74,12.7,12.7,0,0,0-3.65-.62,11.09,11.09,0,0,0-11,11,11,11,0,1,0,18.78-7.83,37.71,37.71,0,0,0-53.49,0,36.73,36.73,0,0,0-11.13,27A37.4,37.4,0,0,0,99,90.64L96.39,89l-2.14-1.38-5.34-3.47-5.52-3.38q-.45-.27-3.12-2T76.1,76.13A47.75,47.75,0,0,0,57.4,69.54a50.22,50.22,0,0,0-5.16-.27,43.74,43.74,0,0,0-27.32,9.61Q10.68,90.64,8.63,108.44a50.21,50.21,0,0,0-.27,5.16A43.63,43.63,0,0,0,18,140.83a43.05,43.05,0,0,0,29.55,16.29,46,46,0,0,0,4.9.27,43.54,43.54,0,0,0,23.76-6.94,45.46,45.46,0,0,0,10.86-10,44.4,44.4,0,0,0,7.12-12.73,35.91,35.91,0,0,0,1.69-11.39,32.61,32.61,0,0,0-4.63-17.13,19,19,0,0,0-13.35-9.3,10.38,10.38,0,0,0-8.94,3,11.54,11.54,0,0,0-3.69,8.46A9.71,9.71,0,0,0,67,106.92a11.3,11.3,0,0,0,4.94,4L74.49,112a3.43,3.43,0,0,0,.44.18q2.23.89,4,1.69l3.83,1.69q2,.89,3.43,1.69T89.18,119a11.62,11.62,0,0,1,2.31,1.87,18.77,18.77,0,0,1,1.56,2,3.6,3.6,0,0,1,.71,2.18,15.77,15.77,0,0,1-.31,2.4,42.31,42.31,0,0,1-15.84,21,42.07,42.07,0,0,1-25,8.14,45.19,45.19,0,0,1-5-.27q-18.25-2.31-29-16a42.19,42.19,0,0,1-9.52-26.88,45.93,45.93,0,0,1,.27-5.07,44.87,44.87,0,0,1,5.21-16.11A41.41,41.41,0,0,1,25.36,79.51,42,42,0,0,1,52.24,70a46.05,46.05,0,0,1,5.07.27,44.88,44.88,0,0,1,18.42,6.5l2.67,1.69,10.15,6.41,73.78,47.8a74.44,74.44,0,0,0,33.55,12.73q4.45.44,7.92.44a74,74,0,0,0,20.74-3A69.41,69.41,0,0,0,249.12,130a72.74,72.74,0,0,0,18.07-21.18,75.91,75.91,0,0,0,6.69-16.6v6.63q-.18,12.1-3.83,12.1H270v.36h20.38v-.36h-.27a2.83,2.83,0,0,1-2-1.74,13.38,13.38,0,0,1-1.11-4.58q-.31-3-.36-4.72t0-4.81V80a4,4,0,0,1,.18-1.25L298.44,50a46.15,46.15,0,0,1,3.38-6.54A27.19,27.19,0,0,1,305,39.28,15.86,15.86,0,0,1,307.74,37a8.5,8.5,0,0,1,2-1.07q.67-.18,1.11-.27h.89v-.36H296.57Z"/><path class="cls-1" d="M426,70.43l-25-15.93a14.36,14.36,0,0,1-3.34-3.38,8.15,8.15,0,0,1-1.38-4,5.66,5.66,0,0,1,1.6-4.23,19.43,19.43,0,0,1,15.84-7.3q.89,0,2.85.18,5.87.89,11.3,6a16.31,16.31,0,0,1,5.52,12.1v.8h.36V34.39h-.36a11.4,11.4,0,0,1-6,2.54,16.32,16.32,0,0,1-7.08-.58,22.42,22.42,0,0,0-6.59-1.07A20.45,20.45,0,0,0,399.07,41,18.39,18.39,0,0,0,393,54.86a19.09,19.09,0,0,0,1.78,7.88,14.5,14.5,0,0,0,5.52,6.36l27,17.18a12.91,12.91,0,0,1,5.92,7.48,8.94,8.94,0,0,1-1.29,7.92,22.09,22.09,0,0,1-7.65,6.76,21.55,21.55,0,0,1-24.61-3.16,20.66,20.66,0,0,1-6.9-13.93h-.36v20.83h.36a13.72,13.72,0,0,1,6.5-2.76,16.06,16.06,0,0,1,7.65.62,21.44,21.44,0,0,0,7.3,1.25,22,22,0,0,0,22-21.9,22.3,22.3,0,0,0-2.76-10.9A21.93,21.93,0,0,0,426,70.43Z"/><path class="cls-1" d="M477,35.63h3.56a16.56,16.56,0,0,1,11.3,5.16q4.9,4.9,4.9,12.82v1.6h.36V35.28h-60V55.21h.36v-2.4a17.37,17.37,0,0,1,5.43-12.46,16.32,16.32,0,0,1,11.39-4.72H457a2.17,2.17,0,0,1,1.65.71,5.22,5.22,0,0,1,1.07,2.27q.4,1.56.67,2.85a23.2,23.2,0,0,1,.36,3.6q.09,2.31.09,3.29V98.82q-.18,11.66-3.56,12.1H457v.36H477.3v-.36H477a2.83,2.83,0,0,1-2-1.74,13.36,13.36,0,0,1-1.11-4.58q-.31-3-.36-4.72t0-4.81V47.82Q473.65,36.17,477,35.63Z"/><path class="cls-1" d="M808.66,53.7A71.57,71.57,0,0,0,795.75,29,72.46,72.46,0,0,0,746.89,2.08a73.32,73.32,0,0,0-63.55,25.19l.27.27A71.81,71.81,0,0,1,712.13,7.06,72.19,72.19,0,0,1,795.4,29.22a72.65,72.65,0,0,1,13.08,25.1,71.25,71.25,0,0,1,2.4,28.13,70.18,70.18,0,0,1-8.81,27.37,71.39,71.39,0,0,1-42.72,34,71.46,71.46,0,0,1-28.57,2.58q-17.36-2-33.64-12.73L649.87,103.1a21.46,21.46,0,0,0,4.81-13.71,22.3,22.3,0,0,0-2.76-10.9,21.93,21.93,0,0,0-7.48-8.05L619.52,54.5a15.21,15.21,0,0,1-3.38-3.38,7.91,7.91,0,0,1-1.42-4,5.65,5.65,0,0,1,1.6-4.23,19.56,19.56,0,0,1,15.84-7.3,21.81,21.81,0,0,1,4.27.44,21.25,21.25,0,0,1,7.3,3.16,18.37,18.37,0,0,1,5.7,5.92,19.06,19.06,0,0,1,2.49,8.9v.8h.36V34.39h-.36A11.56,11.56,0,0,1,646,37a15.37,15.37,0,0,1-6.94-.53l-.89-.27a22,22,0,0,0-6.05-.89A20.34,20.34,0,0,0,617.65,41a18.39,18.39,0,0,0-6.05,13.84,19,19,0,0,0,1.78,7.92,14.55,14.55,0,0,0,5.52,6.32l26.88,17.18a13.11,13.11,0,0,1,6,7.48,8.84,8.84,0,0,1-1.25,7.92l-.89,1.16-39.7-25.46a45.16,45.16,0,0,0-17.24-6.43,21,21,0,0,0,3.58-3.71,20,20,0,0,0-1.91-26.08,19.29,19.29,0,0,0-14.15-5.87H547.7v.36h.36q3.2.36,5,5.16a32.5,32.5,0,0,1,2.09,9.88V83a42.05,42.05,0,0,0-12.67,24.29,60.59,60.59,0,0,1-3.26-6.81L513.7,35.28l-19,56.16-1.42,4.09a53.13,53.13,0,0,1-4.36,10.32q-2.14,3.56-3.43,4.32a6.15,6.15,0,0,1-3.16.76v.36h15.84v-.36h-.62a5.32,5.32,0,0,1-3.87-1.69,6.47,6.47,0,0,1-1.29-4.32,28.89,28.89,0,0,1,.62-5.83,72.08,72.08,0,0,1,2-7.21l4.27-12.55q.53-1.51.89-1.6a24.7,24.7,0,0,1,5.25-.62,21.21,21.21,0,0,1,13.53,4.81,5.77,5.77,0,0,1,1.42,2.4l6.23,15.93q.71,1.87,1.16,3.25t.93,3.34a8,8,0,0,1,.31,3,1.1,1.1,0,0,1-1.16,1.07h-2.14v.36H542a42.8,42.8,0,0,0,9.48,31.06,43.44,43.44,0,0,0,13.22,11.17,44.07,44.07,0,0,0,16.51,5.21A44.14,44.14,0,0,0,610,152a42.77,42.77,0,0,0,18-22.79,34.89,34.89,0,0,0,1.6-8.37,39.88,39.88,0,0,0-.45-9.52,34.41,34.41,0,0,0-2.76-9.08A20,20,0,0,0,620.64,95a17.33,17.33,0,0,0-8.94-3.65,10.91,10.91,0,0,0-6.41,1,9.88,9.88,0,0,0-4.41,4.18,15.2,15.2,0,0,0-1.78,5.7,8.32,8.32,0,0,0,0,1.88l-13-29.69a20,20,0,0,0,6.14-3.2,42.55,42.55,0,0,1,17.36,6.4L697,134.07q16.47,10.77,33.82,12.73a73.19,73.19,0,0,0,28.75-2.49,71.62,71.62,0,0,0,24.74-13A72.87,72.87,0,0,0,802.34,110a70,70,0,0,0,8.81-27.5A71.94,71.94,0,0,0,808.66,53.7ZM519.13,81.56q0,.09-.27-.09a21.46,21.46,0,0,0-13.53-4.72,24.56,24.56,0,0,0-5,.53q-.36.09-.36-.13a2.83,2.83,0,0,1,.18-.76l7.92-23.32,10.95,28Q519.22,81.56,519.13,81.56Zm36.4-29.73a27,27,0,0,1,1.11-7.34,13.55,13.55,0,0,1,3.92-6,11.09,11.09,0,0,1,7.34-2.85h12.28A19.75,19.75,0,0,1,599.86,55.3a18.94,18.94,0,0,1-5.79,13.88,21.69,21.69,0,0,1-1.91,1.68c-.37-.05-.74-.12-1.12-.17A43.06,43.06,0,0,0,566.41,75a11.24,11.24,0,0,0-6.74,2.48,11.51,11.51,0,0,0-3.62,4.76l-.52.48Zm10.11,23.55a46.76,46.76,0,0,0-7.18,4.75q-.95.76-1.84,1.56a11.26,11.26,0,0,1,2.2-3.07A10.81,10.81,0,0,1,565.64,75.38Zm-10.11,7.9.21-.19c-.07.23-.15.45-.21.69Zm47.8,27.52a2.61,2.61,0,0,1-1-.49,4.67,4.67,0,0,1-.91-1.23A10.42,10.42,0,0,0,603.33,110.8Zm-16.47-3.25a6.94,6.94,0,0,0,3.92,3.6,5,5,0,0,0,1,.13H604a13.34,13.34,0,0,0,1.77.89q12.1,5,15.13,6.68,8.46,4.72,6.68,10.15a44,44,0,0,1-46.37,29.37A42.84,42.84,0,0,1,565,153.16a44.59,44.59,0,0,1-13.08-11.08,41.83,41.83,0,0,1-9.47-30.8h4.41v-.36H546c-.87,0-1.94-1-3.2-3.1a41.86,41.86,0,0,1,12.37-24.2v.86q0,4.09-.09,7t-.31,6.19a32.84,32.84,0,0,1-.76,5.47,31.47,31.47,0,0,1-1.29,4.09,5.92,5.92,0,0,1-2,2.8,5.12,5.12,0,0,1-3,.89v.36h17.8v-.36H565q-5.07-.18-7.25-4.09t-2.18-14.15V86.63a11.46,11.46,0,0,1,.69-4c.82-.75,1.66-1.49,2.56-2.2a46.51,46.51,0,0,1,7.88-5.11h1.87l.71,0q.53,0,.8.09t.76.18a3.18,3.18,0,0,1,.85.36l.8.49a3.43,3.43,0,0,1,.8.67q.36.4.71.89a5.72,5.72,0,0,1,.62,1.11ZM580.19,75h-12.8A42.47,42.47,0,0,1,591,71.05l.73.11A18.77,18.77,0,0,1,580.19,75Z"/><path class="cls-1" d="M347.68,63.12a16.3,16.3,0,0,0-5.17-3.45,15.72,15.72,0,0,0-12.11,0,16.36,16.36,0,0,0-5.15,3.45,15.16,15.16,0,0,0-3.49,5.2,16.23,16.23,0,0,0-1.18,6.1,15.9,15.9,0,0,0,1.18,6.08,15.3,15.3,0,0,0,3.49,5.15,15.81,15.81,0,0,0,5.15,3.47,15.59,15.59,0,0,0,6,1.19,15.39,15.39,0,0,0,6.17-1.25,16.28,16.28,0,0,0,5.06-3.4,15.9,15.9,0,0,0,3.41-5,15.49,15.49,0,0,0,1.25-6.21,15.79,15.79,0,0,0-1.21-6.1A16.19,16.19,0,0,0,347.68,63.12Zm-.82,17.16a12.73,12.73,0,0,1-.37,2.76,11.13,11.13,0,0,1-.93,2.48,9.08,9.08,0,0,1-1.4,2,5.85,5.85,0,0,1-1.73,1.31,15.23,15.23,0,0,1-6,1.19,15,15,0,0,1-3.06-.32,16.82,16.82,0,0,1-2.84-.84,6,6,0,0,1-1.79-1.4,10.16,10.16,0,0,1-1.44-2.09,11.11,11.11,0,0,1-1-2.57A12.18,12.18,0,0,1,326,80V68.57a14,14,0,0,1,.35-2.82,11.22,11.22,0,0,1,.88-2.48,8.32,8.32,0,0,1,1.36-2A5.68,5.68,0,0,1,330.4,60a16,16,0,0,1,2.93-.91,15.13,15.13,0,0,1,3.12-.32,15.31,15.31,0,0,1,3.15.32,16,16,0,0,1,2.93.91,5.63,5.63,0,0,1,1.72,1.31,8.5,8.5,0,0,1,1.34,2,12.44,12.44,0,0,1,.9,2.48,12.87,12.87,0,0,1,.37,2.8Z"/><path class="cls-1" d="M353.16,58.76a1,1,0,0,1,.93.71,6.11,6.11,0,0,1,.48,1.72,16.39,16.39,0,0,1,.17,2.13q0,1.12,0,1.94h0V83.5h0q0,.82,0,1.94a16.86,16.86,0,0,1-.17,2.15,6.13,6.13,0,0,1-.48,1.73,1,1,0,0,1-.93.71v.3h8.62V90h-.22a1.3,1.3,0,0,1-.8-.88,7.55,7.55,0,0,1-.41-1.72q-.13-1-.17-2.07t0-1.87v-7h8.43v-2.3h-8.43V63.76q0-.82.07-1.68a13.9,13.9,0,0,1,.22-1.59,4.18,4.18,0,0,1,.41-1.19,1,1,0,0,1,.71-.54h4.29a4.66,4.66,0,0,1,3.86,1.83,9,9,0,0,1,1.59,5.22v1.08h.3V58.46H353.16Z"/></svg>