<svg id="Layer_1" data-name="Layer 1" xmlns="http://www.w3.org/2000/svg" viewBox="0 0 380 60"><defs><style>.cls-1{fill:#201626;}</style></defs><title>subtitle-dark</title><path class="cls-1" d="M98.46,12.39v0a5.8,5.8,0,0,1,11.6,0v0a5.8,5.8,0,0,1-11.6,0Zm9.56,0v0a3.8,3.8,0,0,0-3.77-3.95,3.75,3.75,0,0,0-3.74,3.92v0a3.79,3.79,0,0,0,3.77,3.93A3.74,3.74,0,0,0,108,12.39Z"/><path class="cls-1" d="M115.11,13.2V6.81h1.95v6.31c0,2.06,1.06,3.16,2.81,3.16s2.79-1,2.79-3.08V6.81h2v6.29c0,3.31-1.87,5-4.77,5S115.11,16.42,115.11,13.2Z"/><path class="cls-1" d="M133.67,6.73h1.81l4.88,11.18H138.3l-1.13-2.68h-5.25l-1.14,2.68h-2Zm2.79,6.77-1.92-4.44-1.9,4.44Z"/><path class="cls-1" d="M145.11,6.81h4.38c2.6,0,4.22,1.47,4.22,3.71v0c0,2.49-2,3.79-4.44,3.79h-2.2v3.57h-2Zm4.22,5.77c1.47,0,2.39-.82,2.39-2v0c0-1.3-.94-2-2.39-2h-2.27v4Z"/><path class="cls-1" d="M157.81,16.29,159,14.9a5.14,5.14,0,0,0,3.5,1.44c1.21,0,2-.57,2-1.4v0c0-.79-.44-1.22-2.5-1.7-2.36-.57-3.69-1.27-3.69-3.31v0c0-1.9,1.58-3.22,3.79-3.22a6.15,6.15,0,0,1,4,1.39l-1,1.47a5,5,0,0,0-3-1.14c-1.14,0-1.81.59-1.81,1.32v0c0,.86.51,1.24,2.65,1.74,2.35.57,3.55,1.41,3.55,3.25v0c0,2.08-1.63,3.31-4,3.31A6.84,6.84,0,0,1,157.81,16.29Z"/><path class="cls-1" d="M182.74,13.49l-2.58,2.63L179,14.93l2.63-2.58L179,9.76l1.22-1.22,2.58,2.63,2.58-2.63,1.19,1.19-2.63,2.58,2.63,2.58-1.22,1.22Z"/><path class="cls-1" d="M203.6,6.73h1.81l4.88,11.18h-2.06l-1.13-2.68h-5.25l-1.14,2.68h-2Zm2.79,6.77-1.92-4.44-1.9,4.44Z"/><path class="cls-1" d="M215,6.81h5a4,4,0,0,1,2.9,1,2.49,2.49,0,0,1,.75,1.84v0a2.64,2.64,0,0,1-1.59,2.47,2.72,2.72,0,0,1,2.2,2.7v0c0,2-1.63,3-4.11,3H215ZM221.72,10c0-.87-.7-1.41-2-1.41H217v2.95h2.66c1.25,0,2.09-.49,2.09-1.51Zm-1.67,3.19H217v3h3.23c1.33,0,2.14-.52,2.14-1.52v0C222.33,13.69,221.59,13.14,220.05,13.14Z"/><path class="cls-1" d="M233.27,6.73h1.81L240,17.91H237.9l-1.13-2.68h-5.25l-1.14,2.68h-2Zm2.79,6.77-1.92-4.44-1.9,4.44Z"/><path class="cls-1" d="M243.52,12.39v0a5.62,5.62,0,0,1,5.72-5.74,5.79,5.79,0,0,1,4.34,1.73l-1.25,1.44a4.41,4.41,0,0,0-3.11-1.38,3.74,3.74,0,0,0-3.66,3.92v0a3.74,3.74,0,0,0,3.66,3.93,4.34,4.34,0,0,0,3.19-1.43l1.25,1.27a5.73,5.73,0,0,1-4.5,2A5.58,5.58,0,0,1,243.52,12.39Z"/><path class="cls-1" d="M258.39,13.2V6.81h1.95v6.31c0,2.06,1.06,3.16,2.81,3.16s2.79-1,2.79-3.08V6.81h2v6.29c0,3.31-1.87,5-4.77,5S258.39,16.42,258.39,13.2Z"/><path class="cls-1" d="M272.67,16.29l1.17-1.39a5.14,5.14,0,0,0,3.5,1.44c1.21,0,2-.57,2-1.4v0c0-.79-.44-1.22-2.5-1.7-2.36-.57-3.69-1.27-3.69-3.31v0c0-1.9,1.58-3.22,3.79-3.22a6.15,6.15,0,0,1,4,1.39l-1,1.47a5,5,0,0,0-3-1.14c-1.14,0-1.81.59-1.81,1.32v0c0,.86.51,1.24,2.65,1.74,2.35.57,3.55,1.41,3.55,3.25v0c0,2.08-1.63,3.31-4,3.31A6.84,6.84,0,0,1,272.67,16.29Z"/><path class="cls-1" d="M5.23,45.64v0A6.6,6.6,0,0,1,12,39.05a6.54,6.54,0,0,1,6.77,6.52v0A6.6,6.6,0,0,1,12,52.16,6.54,6.54,0,0,1,5.23,45.64Zm10,0v0A3.25,3.25,0,0,0,12,42.21,3.22,3.22,0,0,0,8.8,45.57v0A3.28,3.28,0,0,0,12,49,3.21,3.21,0,0,0,15.23,45.64Z"/><path class="cls-1" d="M35.67,39.31l-4.14,6.14,4.32,6.46h-4l-2.41-3.82L27,51.91H23.07l4.32-6.41-4.14-6.19h4l2.21,3.55,2.27-3.55Z"/><path class="cls-1" d="M41.5,39.31H48a4.72,4.72,0,0,1,3.44,1.12,2.84,2.84,0,0,1,.81,2.05v0a2.92,2.92,0,0,1-1.94,2.81c1.53.5,2.5,1.37,2.5,3.08v0c0,2.16-1.76,3.47-4.77,3.47H41.5Zm7.27,3.89c0-.7-.56-1.08-1.58-1.08H44.91v2.21h2.2c1.06,0,1.67-.36,1.67-1.1Zm-1.21,3.58H44.91V49.1h2.7c1.08,0,1.67-.41,1.67-1.15v0C49.28,47.23,48.74,46.78,47.57,46.78Z"/><path class="cls-1" d="M58.71,39.31h6a5.58,5.58,0,0,1,4.11,1.35,3.93,3.93,0,0,1,1.12,2.93v0a4,4,0,0,1-2.59,3.89l3,4.39h-4l-2.54-3.82H62.2v3.82H58.71Zm5.82,6c1.17,0,1.87-.58,1.87-1.49v0c0-1-.74-1.51-1.89-1.51H62.2v3Z"/><path class="cls-1" d="M76.08,39.31h3.49v12.6H76.08Z"/><path class="cls-1" d="M86.21,39.31h4.88c4.48,0,7.09,2.59,7.09,6.23v0c0,3.64-2.65,6.34-7.17,6.34H86.21Zm3.49,3.08v6.43h1.42c2.11,0,3.49-1.15,3.49-3.19v0c0-2-1.39-3.21-3.49-3.21Z"/><path class="cls-1" d="M103.93,45.64v0a6.54,6.54,0,0,1,6.77-6.55,7.34,7.34,0,0,1,5.11,1.82l-2.05,2.48a4.41,4.41,0,0,0-3-1.19,3.29,3.29,0,0,0-3.22,3.44v0a3.33,3.33,0,0,0,3.42,3.51,3.48,3.48,0,0,0,2-.52V47.1h-2.47V44.55h5.78V50.2a8.39,8.39,0,0,1-5.47,2C106.84,52.16,103.93,49.46,103.93,45.64Z"/><path class="cls-1" d="M122.52,39.31h10.14v3H126v1.93h6v2.75h-6v2h6.77v3H122.52Z"/><path class="cls-1" d="M148.21,39.31h6.46a4.72,4.72,0,0,1,3.44,1.12,2.84,2.84,0,0,1,.81,2.05v0A2.92,2.92,0,0,1,157,45.32c1.53.5,2.5,1.37,2.5,3.08v0c0,2.16-1.76,3.47-4.77,3.47h-6.5Zm7.27,3.89c0-.7-.56-1.08-1.58-1.08h-2.29v2.21h2.2c1.06,0,1.67-.36,1.67-1.1Zm-1.21,3.58h-2.67V49.1h2.7c1.08,0,1.67-.41,1.67-1.15v0C156,47.23,155.45,46.78,154.28,46.78Z"/><path class="cls-1" d="M165,45.64v0a6.79,6.79,0,0,1,13.58,0v0a6.79,6.79,0,0,1-13.58,0Zm10,0v0a3.25,3.25,0,0,0-3.22-3.4,3.22,3.22,0,0,0-3.21,3.37v0a3.28,3.28,0,0,0,3.24,3.4A3.21,3.21,0,0,0,175,45.64Z"/><path class="cls-1" d="M188.26,39.22h3.37L197,51.91h-3.75l-.9-2.27h-4.88l-.9,2.27h-3.66Zm3.06,7.71-1.4-3.57-1.42,3.57Z"/><path class="cls-1" d="M204,42.37h-3.76V39.31h11v3.06H207.5v9.54H204Z"/><path class="cls-1" d="M226.47,39.31h5.42c3.17,0,5.22,1.64,5.22,4.41v0c0,3-2.29,4.56-5.4,4.56H230v3.6h-3.49Zm5.17,6.27c1.22,0,2-.67,2-1.66v0c0-1.08-.77-1.64-2-1.64H230v3.33Z"/><path class="cls-1" d="M246,39.22h3.37l5.37,12.69H251l-.9-2.27h-4.88l-.9,2.27h-3.66Zm3.06,7.71-1.4-3.57-1.42,3.57Z"/><path class="cls-1" d="M260.31,39.31h6a5.58,5.58,0,0,1,4.11,1.35,3.93,3.93,0,0,1,1.12,2.93v0a4,4,0,0,1-2.59,3.89l3,4.39h-4l-2.54-3.82H263.8v3.82h-3.49Zm5.82,6c1.17,0,1.87-.58,1.87-1.49v0c0-1-.74-1.51-1.89-1.51h-2.3v3Z"/><path class="cls-1" d="M280.67,42.37h-3.76V39.31h11v3.06h-3.78v9.54h-3.49Z"/><path class="cls-1" d="M297.46,47.19l-4.81-7.89h4l2.59,4.59,2.61-4.59h3.91L301,47.14v4.77h-3.49Z"/><path class="cls-1" d="M320,49.28l4.72-3.6c1.17-.92,1.64-1.51,1.64-2.27a1.27,1.27,0,0,0-1.42-1.3c-.85,0-1.51.5-2.5,1.64l-2.36-2a5.86,5.86,0,0,1,5.13-2.7c2.75,0,4.65,1.64,4.65,4v0c0,2-1,3.06-2.92,4.41l-2.16,1.51h5.2v2.84H320Z"/><path class="cls-1" d="M335.68,45.64v0c0-3.57,2.27-6.55,5.85-6.55s5.82,3,5.82,6.52v0c0,3.57-2.25,6.55-5.85,6.55S335.68,49.21,335.68,45.64Zm8.16,0v0c0-2-.94-3.47-2.34-3.47s-2.3,1.42-2.3,3.44v0c0,2,.94,3.46,2.34,3.46S343.83,47.64,343.83,45.64Z"/><path class="cls-1" d="M355.08,42.46,353,43l-.67-2.7,3.69-1h2.54V51.91h-3.44Z"/><path class="cls-1" d="M370.74,42.24h-5.83V39.31h9.71v2.63l-5.56,10H365.2Z"/></svg>